<svg id="Layer_1" data-name="Layer 1" xmlns="http://www.w3.org/2000/svg" viewBox="0 0 820.71 200.79"><defs><style>.cls-2{fill:#979797}.cls-3{fill:#333}.cls-4{fill:#969696}</style></defs><path d="M7233.24 7364.47a27.25 27.25 0 11-27.24-27.25 27.24 27.24 0 0127.24 27.25z" transform="translate(-7045.2 -7215.01)" fill="#74b74a"/><path class="cls-2" d="M7166.88 7364.47a27.27 27.27 0 11-27.25-27.25 27.25 27.25 0 0127.25 27.25z" transform="translate(-7045.2 -7215.01)"/><path class="cls-3" d="M7099.7 7364.47a27.25 27.25 0 11-27.26-27.25 27.25 27.25 0 0127.26 27.25zM7233.24 7299.05a27.25 27.25 0 11-27.24-27.25 27.25 27.25 0 0127.24 27.25z" transform="translate(-7045.2 -7215.01)"/><path class="cls-2" d="M7166.88 7242.25a27.27 27.27 0 11-27.25-27.24 27.24 27.24 0 0127.25 27.24z" transform="translate(-7045.2 -7215.01)"/><path class="cls-3" d="M7314.15 7368.36h-37.53q0 11.39 10.95 11.38a9.5 9.5 0 008.55-4.79h17.32a23.3 23.3 0 01-6.09 10.58q-7.31 6.81-19.56 6.8-15.59 0-23.42-9.48a26.14 26.14 0 01-5.88-17.27q0-12.09 7.35-19.66t20.75-7.57q16.5 0 23.59 12a30.54 30.54 0 014 15.71zm-16.72-10.19q-1.89-8.55-10.13-8.55a9.59 9.59 0 00-10.19 8.55zM7374.2 7339.76l-26.31 50.55H7336l-26.09-50.55H7330l12.09 25.93 12.15-25.93zM7430.76 7365a25.74 25.74 0 01-6.91 18q-8.39 9.15-23.48 9.15t-23.53-9.15a26.25 26.25 0 01-6.92-18.46 25.17 25.17 0 017-17.49q8.45-9.21 24-9.2 14.33 0 22.88 9.2a25.44 25.44 0 016.96 17.95zm-18.62 0a11.73 11.73 0 00-11.77-11.76 11.14 11.14 0 00-9 4.16 11.73 11.73 0 000 15.26 11.17 11.17 0 009 4.16 11.66 11.66 0 0011.77-11.82zM7450.5 7390.31h-17.92v-81.82h17.92z" transform="translate(-7045.2 -7215.01)"/><path class="cls-3" d="M7512.51 7339.76l-26.3 50.55h-11.94l-26.09-50.55h20.1l12.09 25.93 12.15-25.93z" transform="translate(-7045.2 -7215.01)"/><path class="cls-3" d="M7529.21 7320.34a10 10 0 11-2.94-7.09 9.61 9.61 0 012.94 7.09zm-1.1 70h-17.92v-50.55h17.92zM7589.73 7390.31h-17.91v-25.56c0-4.47-.51-7.42-1.52-8.88a7.58 7.58 0 00-6.66-3.2 9.28 9.28 0 00-6.82 2.76q-2.49 2.51-2.49 7.81v27.07h-17.92v-50.55h17.92v6.37a22.91 22.91 0 015.71-5.07 21.41 21.41 0 0110.61-2.39q8.16 0 13.27 4.42 5.82 5 5.81 15zM7650.17 7386.82a50 50 0 01-.93 10.73q-1.48 6.54-7.63 11.71-7.78 6.54-20.7 6.54-13.5 0-21.51-7.13-5.34-4.74-6.81-9.92a20.61 20.61 0 01-.44-2.29h20.05a7.2 7.2 0 002.34 3.56 10 10 0 006.1 1.78q6.21 0 9.53-4.39c1.38-1.85 2.07-4.5 2.07-7.93v-4.78a30.32 30.32 0 01-5.38 4.14 21.69 21.69 0 01-10.67 2.51 24.7 24.7 0 01-13.81-4 22.76 22.76 0 01-9-11.17 28.72 28.72 0 01-1.85-10.4q0-12.42 7.89-20.22a24.29 24.29 0 0117.68-7.24 20.93 20.93 0 019.79 2.24 20 20 0 015.33 4.46v-5.28h17.93zm-17.06-21.95a11.69 11.69 0 00-3.3-8.33 10.75 10.75 0 00-8.13-3.49 10.89 10.89 0 00-8.79 4.14 11.78 11.78 0 00-2.71 7.68 11.52 11.52 0 003.34 8.31 11.3 11.3 0 0016.26 0 11.55 11.55 0 003.33-8.31z" transform="translate(-7045.2 -7215.01)"/><path class="cls-4" d="M7753.71 7339.76l-26.46 50.55h-11.93l-12.65-27.73-12.08 27.73h-12l-26-50.55h19.94l12.09 26.64 12.69-26.64h11.22l12.63 27.4 12.69-27.4zM7805.11 7368.36h-37.53q0 11.39 10.94 11.38a9.51 9.51 0 008.55-4.79h17.33a23.31 23.31 0 01-6.1 10.58q-7.3 6.8-19.56 6.8-15.58 0-23.42-9.48a26.1 26.1 0 01-5.88-17.28q0-12.07 7.35-19.65t20.75-7.58q16.52 0 23.59 12a30.44 30.44 0 014 15.71zm-16.73-10.2q-1.89-8.53-10.13-8.54a9.59 9.59 0 00-10.19 8.54zM7865.91 7365q0 12.73-8.75 20.46a24.61 24.61 0 01-16.76 6.47 20.87 20.87 0 01-10.39-2.56 16.71 16.71 0 01-5.16-4.68v5.61h-17.92v-81.82h17.92v36.28a19.92 19.92 0 015.6-4.3 22.84 22.84 0 0110.12-2.29 24.31 24.31 0 0116.37 6.15q8.99 7.73 8.97 20.68zm-18.62.05a11.26 11.26 0 00-2.77-7.48 10.92 10.92 0 00-8.72-4 11.52 11.52 0 100 23 10.82 10.82 0 008.72-4 11.37 11.37 0 002.77-7.51z" transform="translate(-7045.2 -7215.01)"/></svg>