<svg version="1.0" xmlns="http://www.w3.org/2000/svg" fill="#064771" viewBox="0 0 2083 2083"><path d="M1146.5 685.1c-12.3 1.5-31 5.5-44.1 9.4-12.7 3.9-63.6 24.6-64.1 26.2-.2.5 1.4 1.7 3.4 2.7 2.1 1 8.9 5.1 15.1 9.2l11.2 7.5 14.5-6c22.9-9.5 37.3-14 57.5-17.8 7.2-1.3 14.7-1.7 31-1.8 18.6 0 23.1.3 33 2.3 22 4.5 46.1 13.9 64.5 25.2 39.3 24.2 69.9 65.3 86.9 116.5 16.3 49.2 13 100.2-9.4 145.3-21.8 43.7-49.2 68.8-101.5 92.9-13.4 6.2-120.1 51.3-121.3 51.3-.5 0-15.7-35.1-33.7-78l-32.8-78 3.1-12.8c4.4-18 5.6-29.5 4.9-48.5-.6-16.8-2-25.7-6.3-38.7-12-35.8-40.8-69.2-74-85.6l-7.2-3.6-4.2-10c-2.4-5.6-3.9-10.3-3.4-10.7.5-.5 9.7-4.5 20.4-9s19.9-8.6 20.4-9.1c1.5-1.5-18.6-10.1-32.3-13.9l-6.8-1.9-20.6 8.7c-11.4 4.8-20.9 8.9-21.2 9.2-.2.3 2 6.3 5 13.3 3 7 5.5 12.8 5.5 12.9 0 .1-7.5.2-16.7.2-11.8.1-19.4.6-25.6 1.8-27.3 5.5-50.5 17.6-70.4 37-21.8 21.2-36.7 49-43 80.2-2.4 12.3-2.4 44 0 57.2 3.6 19.4 11.9 40.4 22.3 56 6.9 10.4 21.1 25.4 31.2 33 29.9 22.5 70.8 33.2 106.2 27.8 18.9-2.8 39.3-10.6 54.1-20.5 13.5-9.1 29.1-23.8 37.6-35.5 1.2-1.7 2.4-2.8 2.7-2.5.3.3 15.6 36.6 34.1 80.5 18.5 44 33.8 80.1 33.9 80.3.8.8 144.9-60.8 162.1-69.3 45.5-22.4 73.4-47.1 95.7-84.7 28-47.4 37.5-99.7 27.8-153.5-6.8-37.6-25-79-48.6-110.3-33.2-44.1-83-74.2-138.4-83.6-11.4-1.9-46.9-2.7-58.5-1.3zM949.2 825.4c42.4 10.9 77.8 50 84.8 93.8 1.6 9.9.8 34.5-1.4 44.8-5.2 24-15.5 43-32.6 60-20.7 20.6-42.8 31.3-67.7 32.7-26.9 1.5-53.2-6.2-74.3-21.7-29.4-21.7-46-56.2-46-95.7 0-45.4 27.2-89.6 66.1-107.2 8.2-3.7 21.7-7.9 29.4-9.1 10.4-1.6 30.8-.4 41.7 2.4z"/><path d="M891 704.6c-83 11.2-157 71-186.5 150.8-22.3 60.3-18.3 134.9 10.2 192 21.5 43.1 59.6 81.6 102.1 103.4 21.1 10.9 46.3 19 71.2 22.9 16.2 2.5 53.1 2.5 68.5 0 25.9-4.2 45.2-10.5 69-22.2 14.4-7.1 39.7-23.2 41.8-26.7.8-1.2-.2-4.6-4.3-14.5-2.9-7-5.7-13.2-6.1-13.7-.5-.5-4.3 1.7-8.6 5.1-38.3 29.4-80.7 44.3-126.3 44.3-59.8 0-115.2-26.3-154.8-73.5-32.2-38.3-48.8-88.7-46.9-142 2-53.7 22.1-99.6 60.7-138.5 28.1-28.3 63-47.2 102.9-55.7 11.9-2.6 14.1-2.8 38.6-2.8 28.3 0 39.4 1.3 59 7 27.9 8.1 58.5 26.1 80.9 47.6l10.9 10.5-14.3 6c-7.8 3.2-14.5 6.4-14.7 7-.2.7 16.5 41.3 37.1 90.4 20.7 49.1 37.6 90.1 37.6 91.1 0 3.4-7.1 24.2-11.6 33.8-2.4 5.1-6.6 13.1-9.4 17.7l-5 8.3 6.6 15.6c5.5 12.9 6.9 15.4 8 14.4 2.8-2.3 19.2-27.8 24.4-37.9l5.3-10.3 8.3 19.8c4.7 10.9 8.7 20.1 8.9 20.3.6.6 60.8-24.6 74.5-31.2 29.7-14.2 52.7-35.8 65.3-61.1 16.9-34 17.6-70.8 2.2-112-17-45.3-45.8-76.7-82.5-90-18.2-6.5-43.1-9.1-63.5-6.5-11.5 1.4-30 5.8-40.3 9.5l-7.3 2.6-10.6-11.1c-20.3-21.3-37.9-34.3-65.4-48.3-33.4-17.1-63.7-23.8-105.9-23.6-10.7.1-24.2.7-30 1.5zM1194.5 806c9.2 2.5 22.1 8.3 29.2 13.1 6.9 4.7 18.7 16.3 24.3 23.9 15.1 20.6 26.3 49 29 74 2.3 20.7-3.1 43-14.5 60.5-8.7 13.3-27.6 29.5-44.5 38-6 3.1-47.3 20.6-47.5 20.2-1.1-1.6-87.5-208-87.3-208.3.2-.2 7.4-3.3 15.8-6.9 22.5-9.5 33.8-13 55-16.9 1.4-.2 9.3-.3 17.5-.1 11.5.2 16.9.8 23 2.5zm-774.7 445c-28 5-44.9 20.2-52 46.5-1.8 6.7-2.1 10.7-2.1 25 0 15.1.3 18.1 2.5 26.6 8.3 30.8 28.6 47.5 60.5 49.7 49.4 3.5 76.3-15.1 82.3-56.7 1.8-11.8.8-35.4-1.8-45.2-6-22.7-20.4-37.6-42.2-43.9-6.1-1.8-10.7-2.3-25-2.6-9.6-.1-19.6.1-22.2.6zm35.3 25.6c19.3 5.6 29.2 24.5 27.6 52.9-1.6 27.1-12.9 41.4-35.5 44.7-21.2 3.1-39.4-4.8-47-20.5-4.2-8.7-5.6-16.3-5.6-30.2.1-29 11-44.2 34.7-48.5 6.7-1.1 18.9-.4 25.8 1.6zm87.9 47.9v73.5h28v-147h-28v73.5zm61-62.5v11h28v-22h-28v11zm439 62.5v73.6l39.3-.4c43.4-.4 44.2-.5 58.6-7.4 9-4.3 19.1-14 23.8-22.8 1.7-3.3 4.4-10.1 5.9-15 2.3-7.8 2.7-11.3 3.1-26.6.6-21.3-.8-30.2-6.8-42.7-7.1-14.6-19.6-24.4-37.6-29.4-7.2-2-10.6-2.2-47-2.6l-39.3-.3v73.6zm74.5-47.2c15.1 4.3 24.1 14.1 27.4 29.5 1.6 7.6 1.4 23-.5 32-4 19.2-14 30.1-31.1 33.7-4.4 1-13 1.5-24.5 1.5H1071v-99.2l20.8.5c13.6.3 22.4 1 25.7 2zM1447 1262v11h28v-22h-28v11zm207.5 28.4c-12.7 2.9-20.8 8.5-25.2 17.4-2.5 5.1-2.8 6.7-2.8 16.2 0 9.7.2 11 3 16.5 3.3 6.6 9 11.6 15.3 13.6 2 .6 12 1.4 22 1.8l18.4.6 2.4 2.8c5.2 6.1 2.2 14.3-6.2 16.6-8.2 2.3-29 .4-42.4-3.8-3.6-1.2-6.9-2.1-7.3-2.1-.4 0-.6 5.2-.5 11.7l.3 11.6 4 1.4c12.7 4.4 42.6 5.9 55.8 2.9 12.1-2.8 19.1-7.6 23.4-16 2.3-4.3 2.8-6.7 3.1-15.1.3-8.4 0-10.9-1.7-15.6-5.4-14.2-16.2-18.9-43.4-18.9-14.1 0-17.4-.9-19.5-5.5-1.6-3.4-1.5-5 .3-8.4 4-7.9 27.5-9.1 50.2-2.5 4.6 1.3 8.6 2.4 8.8 2.4.3 0 .4-5.3.3-11.8l-.3-11.7-9-2.4c-11.4-2.9-39.2-3.9-49-1.7zM604 1344v54h28v-108h-28v54zm49.3-50.8c.7 1.8 10.1 26.1 20.7 54l19.4 50.8h27.2l21.7-53.4c11.9-29.4 21.7-53.7 21.7-54 0-.3-6.7-.6-14.8-.6h-14.8l-12.9 35.7c-7 19.7-13.1 36.1-13.4 36.5-.3.4-6.2-15.6-13.2-35.5l-12.5-36.2-15.2-.3-15.2-.3 1.3 3.3zm158.7-1.4c-16.6 4.5-27.3 16-31.1 33.7-1.8 8.6-1.6 28.5.5 36.4 5.1 18.9 17.2 30.2 37.2 34.7 6.3 1.4 11 1.6 27.8 1.1 11-.3 21.7-1 23.6-1.4l3.5-.9.3-11.3.3-11.4-3.9.7c-20.8 3.3-39 3.2-48.3-.3-8.3-3.1-13.9-9.9-13.9-16.7v-2.4h70.9l.7-3.6c1.2-6.3-.3-24.4-2.5-31.6-4-12.7-12.5-21.6-24.6-25.9-8.6-3-31.2-3.7-40.5-1.1zm30.6 23c5.1 2.6 8.2 7.4 9.3 14.2l.8 5h-22.3c-25.3 0-23.8.6-20.9-8.2 1.9-5.4 6.8-10.4 12.1-12.4 5.4-2 15.8-1.3 21 1.4zM908 1344v54h28v-72.8l4.1-3.6c5.4-4.5 11.9-7.6 18-8.3l4.9-.6v-23l-5.5.6c-6.4.6-14.3 4.1-20 8.6-4.4 3.6-4.4 3.7-6.5-4.7l-1.1-4.2H908v54zm314.8-52.5c-4.8.8-10.6 1.9-12.8 2.5l-4 1.1v22.2l3.3-.6c1.7-.3 7.5-1.3 12.7-2.3 5.2-.9 14.7-1.7 21-1.8 10.1 0 12 .2 15.7 2.2 5.3 2.8 7.3 6.5 7.3 13.5v5.4l-4.7-.8c-2.7-.4-10.2-.8-16.8-.8-19.5-.1-32.2 3.6-39.4 11.4-6.1 6.6-7.4 10.5-7.4 21.5-.1 8.1.3 10.3 2.5 15 5.9 12.8 16.4 18 36.3 18 11.1 0 18-1.5 26.1-5.6l5.5-2.8 4.2 4.2 4.3 4.2h17.4v-39.8c0-43.3-.2-45.6-5.6-53.3-3.4-5-10.1-9.4-18.4-12.1-8.5-2.7-34-3.4-47.2-1.3zm39.2 61.1l4.1.7-.3 8.6-.3 8.5-5.5 2.8c-11.8 6.1-24.8 6.2-30.7.3-3-3-3.3-3.9-3.3-9s.3-6 3.1-8.6c1.6-1.5 4.9-3.3 7.2-3.8 4.2-1 18-.7 25.7.5zm58.4-46.4c3.4 9 12.7 33.3 20.6 54l14.5 37.8h27.2l21.6-53.3c12-29.2 21.7-53.5 21.7-54 0-.4-6.6-.7-14.8-.7h-14.7l-12.9 35.7c-7.1 19.7-13.1 36.2-13.4 36.7-.3.5-6.2-15.5-13.1-35.5l-12.6-36.4-15.2-.3-15.1-.3 6.2 16.3zM1447 1344v54h28v-108h-28v54zm91.5-53c-17.9 3.6-30.2 15.8-34 33.7-1.9 8.7-1.9 26.9-.1 35.5 4.2 19.6 17.1 32.1 37.6 36.4 6 1.3 11.5 1.5 27.5 1.1 11-.3 21.6-1 23.5-1.4l3.5-.9.3-11.2c.1-6.2-.1-11.2-.5-11.2s-5.7.7-11.8 1.5c-20.9 2.8-37 1.3-45-4.3-4.2-2.8-8.5-9.9-8.5-13.9v-2.3l35.8-.2 35.7-.3.3-11.3c.1-6.3-.2-13.7-.7-16.5-3.4-18.4-14.1-30.1-31.2-34.2-6.8-1.6-25.5-1.9-32.4-.5zm23 22.1c8 2.2 12.6 7.7 14.1 16.7l.7 4.2h-45.5l.7-3.3c1.3-5.9 4.2-11.4 7.6-14 5.8-4.4 14.4-5.8 22.4-3.6z"/></svg>