<svg version="1.1" id="Layer_1" xmlns="http://www.w3.org/2000/svg" x="0" y="0" viewBox="0 0 159.3 49.1" xml:space="preserve"><style>.st0{fill:#efd11e}.st1{fill:#010101}</style><path d="M53 16.5h-4.2l-6.2 15.8h4.3l1.1-2.7h5.6l1 2.7H59l-6-15.8zm-3.9 10.1l1.7-5.1 1.7 5.1h-3.4zM36.8 16.5h-6.3v15.8h4.2V27H37c3.6 0 5.6-1.5 5.6-5.3-.1-3.6-2.4-5.2-5.8-5.2zm-1.5 7.4h-.5V20h.5c1.6 0 2.9 0 2.9 2 .1 1.9-1.4 1.9-2.9 1.9zM116.7 26.2h4.3v-3.5h-4.3V20h5.8v-3.5h-10v15.9h10v-3.9h-5.8zM79.6 20.8h3.9v11.6h4.3V20.8h3.8v-4.3h-12zM104.8 22.7H99v-6.2h-4.3v15.9H99v-6.2h5.8v6.2h4.2V16.5h-4.2zM132.8 20.8c2 0 3.7 1.6 3.7 3.7s-1.6 3.7-3.7 3.7c-2 0-3.7-1.6-3.7-3.7s1.6-3.7 3.7-3.7m0-4.3c-4.4 0-7.9 3.5-7.9 7.9s3.5 7.9 7.9 7.9 7.9-3.5 7.9-7.9-3.6-7.9-7.9-7.9zM154.6 25.4l-6.8-8.9h-4v15.9h4.2v-8.9l6.5 8.9h4.3V16.5h-4.2zM72.3 25.4l-6.8-8.9h-4v15.9h4.2v-8.9l6.5 8.9h4.3V16.5h-4.2z"/><g><path class="st0" d="M6.8 0l4.4 10.6H5.6l1.8 4.6h11.4zM21.7 38.5l-1.9-4.6h-2.6l-5.4-13.1H9.5l5.4 13.1H8.3l12.2 15.2-4.4-10.6z"/><g><path class="st1" d="M23.2 19.9c.1 0 .5-.2.5-1.8s-.3-1.8-.5-1.8h-7.8l1.5 3.6h6.3zM18.7 24.2h5.2c.1 0 .5-.2.5-1.8s-.3-1.8-.5-1.8h-6.7l1.5 3.6zM23.2 29.2h-7.1l1.5 3.6h5.6c.1 0 .5-.2.5-1.8s-.4-1.8-.5-1.8zM23.9 24.9h-9.5l1.5 3.6h8c.1 0 .5-.2.5-1.8s-.4-1.8-.5-1.8z"/><path class="st1" d="M23.2 29.2h-7.1l1.5 3.6h5.6c.1 0 .5-.2.5-1.8s-.4-1.8-.5-1.8zM23.9 24.9h-9.5l1.5 3.6h8c.1 0 .5-.2.5-1.8s-.4-1.8-.5-1.8z"/><path class="st1" d="M10.1 24.2l-1.7-4.3h3.9l1.8 4.3h3.7l-3.3-7.9h-8c-.6 0-1 0-1.3.9-.3 1.1-.4 3.2-.4 7.3s0 6.2.4 7.3c.3.9.6.9 1.3.9h7.1l-3.5-8.5z"/></g></g><g><path d="M30.5 44.8l.1-.4.7-.1c.1 0 .1 0 .1-.1l.6-4.3h-1.1c-.1 0-.1 0-.1.1l-.2.6h-.5l.2-1.3h4.4l-.2 1.3H34V40c0-.1 0-.1-.1-.1h-1.2l-.6 4.3c0 .1 0 .1.1.1l.8.1v.4h-2.5zM37.2 44.8l.1-.8.2-1.7v-.4c0-.2-.1-.5-.3-.5-.4 0-1 .4-1.5.9l-.3 1.9c0 .1 0 .1.1.1l.5.1-.1.4h-1.7l.1-.4.4-.1c.1 0 .1 0 .1-.1l.6-4.4c0-.1 0-.1-.1-.2l-.3-.1.1-.4h1.2l-.4 2.5c.5-.4 1-.8 1.6-.8.6 0 .8.3.9.9v.5l-.3 2c0 .1 0 .1.1.1l.4.1-.1.4h-1.3zM42 44.5c-.4.2-.9.3-1.3.3-1.1 0-1.5-.6-1.5-1.5 0-1.3.9-2.5 2.1-2.5.8 0 1 .4 1 .9 0 1.1-1.6 1.4-2.4 1.5 0 .7.2 1.1.9 1.1.4 0 .7-.1 1.1-.3l.1.5zm-.3-2.7c0-.2-.1-.4-.5-.4-.7 0-1.1.6-1.3 1.3.5 0 1.8-.2 1.8-.9zM48.4 44.8l-.5-3.4-1.4 3.4h-.8l-.6-4.8c0-.1 0-.1-.1-.2l-.4-.1.1-.4h1.9l-.1.4-.7.1.4 4.2 1.5-3.5h.7l.5 3.6 1.6-4.3-.6-.1.1-.4h1.8l-.1.4-.4.1c-.1 0-.1.1-.2.2l-1.8 4.8h-.9zM54 44.5c-.4.2-.9.3-1.3.3-1.1 0-1.5-.6-1.5-1.5 0-1.3.9-2.5 2.1-2.5.8 0 1 .4 1 .9 0 1.1-1.6 1.4-2.4 1.5 0 .7.2 1.1.9 1.1.4 0 .7-.1 1.1-.3l.1.5zm-.3-2.7c0-.2-.1-.4-.5-.4-.7 0-1.1.6-1.3 1.3.5 0 1.8-.2 1.8-.9zM54.9 44.8c.1-.3.2-.7.2-1.1l.6-3.9c0-.1 0-.1-.1-.2l-.4-.1.1-.4h1.2l-.3 2.5c.5-.4 1-.8 1.5-.8.6 0 1 .4 1 1.4 0 1.1-.4 2.5-1.8 2.5-.5 0-.8-.2-1.1-.5l-.1.4h-.8zm.8-1c.2.3.6.5.9.5.9 0 1.2-1.1 1.2-1.9 0-.7-.2-.9-.6-.9-.5 0-1 .5-1.3.8l-.2 1.5zM59.2 42.6c0-1.9 1-3.4 2.9-3.4 1.5 0 2.1 1 2.1 2.2 0 2.1-1.1 3.4-2.9 3.4-1.4 0-2.1-.9-2.1-2.2zm4.4-1c0-.3 0-.5-.1-.7-.2-.7-.6-1.1-1.4-1.1-1.2 0-2.1.9-2.1 2.7 0 .3 0 .5.1.7.2.7.6 1.1 1.4 1.1 1.1 0 2-.9 2.1-2.7zM64.7 46.3l.2-1.3.5-3.5c0-.1 0-.1-.1-.2l-.4-.1v-.4H66v.8c.4-.4.9-.8 1.5-.8s1 .4 1 1.5c0 1.2-.5 2.5-1.8 2.5-.4 0-.8-.2-1.1-.5l-.2 1.3c0 .1 0 .1.1.1l.7.1-.1.4h-1.4zm1-2.5c.2.3.6.5.9.5.9 0 1.2-1.1 1.2-1.9 0-.7-.2-.9-.6-.9-.5 0-1 .5-1.4.8l-.1 1.5zM71.4 42v-.5c0-.1 0-.1-.1-.1s-.3-.1-.5-.1c-.4 0-.8.2-.8.6 0 .3.3.5.7.6.5.2 1.1.4 1.1 1.1 0 .8-.6 1.2-1.5 1.2-.7 0-1.2-.2-1.3-.2l.1-.9h.5v.5c0 .1 0 .1.1.1.1.1.3.1.7.1.5 0 .8-.2.8-.6 0-.4-.3-.5-.8-.7-.5-.2-1-.4-1-1 0-.8.6-1.2 1.5-1.2.6 0 1 .1 1.1.2l-.1 1-.5-.1zM74 44.8l.1-.4.5-.1c.1 0 .1 0 .1-.1l.6-4.3c0-.1 0-.1-.1-.1l-.4-.1v-.4H77c1.2 0 1.6.6 1.6 1.4 0 1.4-.9 2-2.3 2h-.8l-.2 1.5c0 .1 0 .1.1.1l1 .1v.4H74zm2.3-2.6c.8 0 1.6-.2 1.6-1.4 0-.6-.4-.9-1.1-.9H76l-.3 2.3h.6zM79 44.8l.1-.9.6-4.1c0-.1 0-.1-.1-.2l-.4-.1.1-.4h1.2l-.7 5c0 .1 0 .1.1.1l.4.1-.1.4H79zM83.5 44.8l.1-.7c-.4.4-.9.8-1.4.8-.7 0-1.1-.5-1.1-1.4 0-1.1.5-2.6 1.9-2.6.4 0 .8.2 1.1.4l.1-.3h.6c-.1.3-.1.6-.2.9l-.3 2.3c0 .1 0 .1.1.1l.4.1-.1.4h-1.2zm.3-3c-.2-.2-.6-.4-.9-.4-.9 0-1.2 1.2-1.2 2 0 .7.3.9.6.9.4 0 .9-.5 1.3-.9l.2-1.6zM87.6 44.6c-.3.1-.7.2-1 .2-.6 0-.9-.3-.9-.8v-.2l.3-2.3v-.1h-.5l.1-.4c.5-.1.8-.3 1-1.1h.4l-.1.9c0 .1 0 .1.1.1h1.1l-.1.5h-1.1l-.3 2.2v.3c0 .3.1.4.5.4.2 0 .5-.1.7-.2l-.2.5zM88.2 46.3l.7-4.8s0-.1-.1-.1h-.5l.1-.5h.6l.1-.7c.1-.8.6-1.2 1.3-1.2.5 0 .9.2 1.1.4l-.3.5c-.1-.1-.4-.3-.8-.3s-.6.3-.7.7l-.1.5c0 .1 0 .1.1.1h1.2l-.1.5h-1.2l-.7 4.9h-.7zM90.8 43.3c0-1.4.7-2.4 2.1-2.4 1.1 0 1.5.7 1.5 1.6 0 1.5-.7 2.4-2.1 2.4-1-.1-1.5-.7-1.5-1.6zm3-.9c0-.7-.3-1-.9-1-.8 0-1.4.6-1.4 1.9 0 .7.3 1.1.9 1.1.8-.1 1.4-.7 1.4-2zM94.8 44.8l.1-.4h.4c.1 0 .1 0 .1-.1l.4-2.6c0-.1 0-.1-.1-.2l-.4-.1.1-.4h1.1l-.1.8c.3-.3.7-.8 1.2-.8.2 0 .3 0 .5.1l-.1 1.1h-.5v-.5c0-.1 0-.1-.1-.1-.2 0-.6.3-1 .8l-.4 1.8c0 .1 0 .1.1.1l.7.1-.1.4h-1.9zM103 44.8l.1-1 .2-1.4c0-.2.1-.4.1-.5 0-.2-.1-.3-.3-.3-.4 0-.8.3-1.3.8l-.3 1.9c0 .1 0 .1.1.1l.4.1-.1.4h-1.2l.1-1 .2-1.4c0-.2.1-.4.1-.5 0-.2 0-.4-.3-.4-.4 0-.8.4-1.4.8l-.3 1.9c0 .1 0 .1.1.1l.5.1-.1.4H98l.1-.4.4-.1c.1 0 .1 0 .1-.1l.4-2.6c0-.1 0-.1-.1-.2l-.4-.1.1-.4h1.1l-.1.7c.6-.5 1-.8 1.5-.8s.8.3.7.8c.4-.4.9-.8 1.5-.8s.8.3.8.8c0 .2 0 .3-.1.5l-.3 2c0 .1 0 .1.1.1l.4.1-.1.4H103zM106.5 44.8l.1-.4.5-.1c.1 0 .1 0 .1-.1l.6-4.3c0-.1 0-.1-.1-.1l-.5-.1.1-.4h2.2c1.1 0 1.4.5 1.4 1.1 0 .9-.6 1.3-1.1 1.4.7.1 1.1.5 1.1 1.1 0 1.2-.9 1.7-2.2 1.7h-2.2zm2.1-.6c.8 0 1.5-.2 1.5-1.1 0-.6-.5-.8-1.1-.8h-1l-.3 1.9h.9zm.2-2.5c.6 0 1.4-.2 1.4-1.1 0-.6-.3-.7-1-.7h-.8l-.2 1.8h.6zM114 44.8l.1-.7c-.4.3-1 .8-1.5.8-.6 0-.9-.2-.9-.9v-.4l.3-2c0-.1 0-.1-.1-.1l-.4-.1.1-.4h1.1l-.3 2.4v.5c0 .3.1.4.4.4.5 0 .9-.4 1.4-.8l.3-1.9c0-.1 0-.1-.1-.1l-.4-.1.1-.4h1.2l-.5 3.2c0 .1 0 .1.1.1l.4.1v.4H114zM116.2 44.8l.1-.9.3-2.3c0-.1 0-.1-.1-.2l-.4-.1.1-.4h1.2l-.5 3.3c0 .1 0 .1.1.1l.4.1-.1.4h-1.1zm.4-5.1c0-.3.2-.6.6-.6.3 0 .4.1.4.4 0 .3-.2.6-.6.6-.2 0-.4-.1-.4-.4zM118.3 44.8l.1-.9.6-4.1c0-.1 0-.1-.1-.2l-.4-.1.1-.4h1.2l-.7 5c0 .1 0 .1.1.1l.4.1-.1.4h-1.2zM122.6 44.6c-.3.1-.7.2-1 .2-.6 0-.9-.3-.9-.8v-.2l.3-2.3v-.1h-.5l.1-.4c.5-.1.8-.3 1-1.1h.4l-.1.9c0 .1 0 .1.1.1h1.1l-.1.5h-1.1l-.3 2.2v.3c0 .3.1.4.5.4.2 0 .5-.1.7-.2l-.2.5zM125 46.3l.7-4.8s0-.1-.1-.1h-.5l.1-.5h.6l.1-.7c.1-.8.6-1.2 1.3-1.2.5 0 .9.2 1.1.4l-.3.5c-.1-.1-.4-.3-.8-.3s-.6.3-.7.7l-.1.5c0 .1 0 .1.1.1h1.2l-.1.5h-1.2l-.7 4.9h-.7zM127.6 43.3c0-1.4.7-2.4 2.1-2.4 1.1 0 1.5.7 1.5 1.6 0 1.5-.7 2.4-2.1 2.4-1-.1-1.5-.7-1.5-1.6zm3-.9c0-.7-.3-1-.9-1-.8 0-1.4.6-1.4 1.9 0 .7.3 1.1.9 1.1.8-.1 1.4-.7 1.4-2zM131.6 44.8l.1-.4h.4c.1 0 .1 0 .1-.1l.4-2.6c0-.1 0-.1-.1-.2l-.4-.1.1-.4h1.1l-.1.8c.3-.3.7-.8 1.2-.8.2 0 .3 0 .5.1l-.1 1.1h-.5v-.5c0-.1 0-.1-.1-.1-.2 0-.6.3-1 .8l-.3 1.9c0 .1 0 .1.1.1l.7.1-.1.4h-2zM139.6 44.8l.1-.3.6-.1-.2-1.2h-2l-.6 1.2.6.1-.1.3h-1.7l.1-.3.3-.1c.1 0 .2-.1.2-.2l2.2-4.8h.8l1 4.8c0 .1.1.1.2.1l.3.1-.1.3h-1.7zm-.2-4.8l-1.2 2.6h1.7l-.5-2.6zM144.4 44.1c-.4.4-.8.8-1.4.8-.7 0-1.1-.4-1.1-1.4 0-1.1.4-2.6 1.9-2.6.4 0 .8.2 1.1.4l.1-.3h.6c-.1.4-.2.7-.2 1l-.4 3.1c-.1 1-.8 1.4-1.6 1.4-.7 0-1.2-.2-1.5-.3l.2-.5c.1.1.6.3 1.1.3.6 0 1-.3 1.1-.9l.1-1zm.3-2.3c-.2-.2-.6-.4-.9-.4-.9 0-1.2 1.2-1.2 2 0 .7.3.9.6.9.5 0 1-.5 1.3-.8l.2-1.7zM146.3 44.8l.1-.9.3-2.3c0-.1 0-.1-.1-.2l-.4-.1.1-.4h1.2l-.5 3.3c0 .1 0 .1.1.1l.4.1-.1.4h-1.1zm.5-5.1c0-.3.2-.6.6-.6.3 0 .4.1.4.4 0 .3-.2.6-.6.6-.2 0-.4-.1-.4-.4zM148.5 44.8l.1-.9.6-4.1c0-.1 0-.1-.1-.2l-.4-.1.1-.4h1.2l-.7 5c0 .1 0 .1.1.1l.4.1-.1.4h-1.2zM150.7 44.8l.1-.9.3-2.3c0-.1 0-.1-.1-.2l-.4-.1.1-.4h1.2l-.5 3.3c0 .1 0 .1.1.1l.4.1-.1.4h-1.1zm.5-5.1c0-.3.2-.6.6-.6.3 0 .4.1.4.4 0 .3-.2.6-.6.6-.2 0-.4-.1-.4-.4zM155 44.6c-.3.1-.7.2-1 .2-.6 0-.9-.3-.9-.8v-.2l.3-2.3v-.1h-.5l.1-.4c.5-.1.8-.3 1-1.1h.4l-.1.9c0 .1 0 .1.1.1h1.1l-.1.5h-1.1l-.3 2.2v.3c0 .3.1.4.5.4.2 0 .5-.1.7-.2l-.2.5z"/><path d="M156.8 44.6l-.8-3.2c0-.1-.1-.1-.1-.1l-.3-.1.1-.4h1l.2.9.4 1.9 1.2-2.5-.5-.1v-.4h1.2l.1.1-2.2 4.3c-.4.7-.7 1.1-1.4 1.1-.5 0-.8-.2-1-.3l.3-.4c.2.1.4.2.7.2.4 0 .6-.3.8-.7l.3-.3z"/></g></svg>