<svg width="2303.1" height="412" xmlns="http://www.w3.org/2000/svg"><defs><clipPath id="c"><path d="M14169 2174.4c-199.3-241.71-606.4-504.64-873.6-661.55 8.5-135.7 21.2-288.37 34-419.83 16.9-173.87 29.6-212.03 38.1-216.28 29.7-50.879-38.1-101.78-72.1-50.879-12.7 4.239-29.7 29.68-55.1 233.23-12.7 114.5-25.4 254.45-33.9 402.87-127.2-76.33-220.5-127.21-330.8-186.59-38.2-16.96-76.3 46.65-29.7 63.62 106 72.09 241.7 139.94 356.2 212.03-8.4 139.94-8.4 258.69-8.4 360.47 8.4 190.82 25.4 241.71 46.6 267.16 29.7 50.88 106 0 76.3-50.9 0 0-21.2-29.68-25.4-216.26-8.5-80.58 0-182.36 0-305.34 246 152.66 623.4 402.86 805.7 623.38 50.9 59.38 110.3 148.43 101.8 216.28 0 38.17-25.4 84.82-101.8 122.98-127.2 63.61-322.3 80.57-462.2 80.57-356.2 12.73-784.5-42.4-1119.6-118.73-173.8-38.17-441-110.26-593.7-199.32-29.6-16.96-114.5-67.85-106-114.49 17-55.14-76.3-76.34-84.8-16.98-17 63.62 38.2 118.75 89.1 156.92 165.3 114.49 483.4 203.55 682.7 250.2 347.8 80.57 776.1 139.94 1132.3 131.46 156.9 0 360.5-16.96 500.4-89.06 84.8-38.16 148.4-101.77 152.7-190.82 12.7-101.78-55.2-207.8-118.8-284.14z"/></clipPath><clipPath id="e"><path d="M11494 960.98c-89-38.171-212-89.058-305.3-93.289-50.9-8.492-101.8-8.492-148.4 16.957-25.5 21.204-42.4 46.653-63.6 114.5-25.5 139.94-25.5 407.11-17 547.05 0 165.39 17 483.44 42.4 644.59 12.7 55.13 97.5 38.17 97.5-21.2-33.9-139.95-46.6-487.69-46.6-636.11-4.2-127.22-12.7-394.39 12.7-521.61 12.7-50.89 12.7-55.132 72.1-67.85 50.9-8.481 114.5-8.481 144.2 0 84.8 4.242 161.2 12.718 212 16.96z"/></clipPath><clipPath id="g"><path d="M14169 2174.4c-199.3-241.71-606.4-504.64-873.6-661.55 8.5-135.7 21.2-288.37 34-419.83 16.9-173.87 29.6-212.03 38.1-216.28 29.7-50.879-38.1-101.78-72.1-50.879-12.7 4.239-29.7 29.68-55.1 233.23-12.7 114.5-25.4 254.45-33.9 402.87-127.2-76.33-220.5-127.21-330.8-186.59-38.2-16.96-76.3 46.65-29.7 63.62 106 72.09 241.7 139.94 356.2 212.03-8.4 139.94-8.4 258.69-8.4 360.47 8.4 190.82 25.4 241.71 46.6 267.16 29.7 50.88 106 0 76.3-50.9 0 0-21.2-29.68-25.4-216.26-8.5-80.58 0-182.36 0-305.34 246 152.66 623.4 402.86 805.7 623.38 50.9 59.38 110.3 148.43 101.8 216.28 0 38.17-25.4 84.82-101.8 122.98-127.2 63.61-322.3 80.57-462.2 80.57-356.2 12.73-784.5-42.4-1119.6-118.73-173.8-38.17-441-110.26-593.7-199.32-29.6-16.96-114.5-67.85-106-114.49 17-55.14-76.3-76.34-84.8-16.98-17 63.62 38.2 118.75 89.1 156.92 165.3 114.49 483.4 203.55 682.7 250.2 347.8 80.57 776.1 139.94 1132.3 131.46 156.9 0 360.5-16.96 500.4-89.06 84.8-38.16 148.4-101.77 152.7-190.82 12.7-101.78-55.2-207.8-118.8-284.14z"/></clipPath><clipPath id="h"><path d="M15352 953.04c-122.9-33.93-267.1-72.09-394.4-76.34-101.7-8.48-216.2 0-275.6 80.582-25.4 33.918-42.4 76.329-42.4 122.97-46.6-38.16-101.8-76.32-161.2-110.25-63.6-38.16-131.4-67.852-207.7-89.051-63.7-12.73-127.3-12.73-165.4 33.922-46.7 42.41-38.2 118.74-21.2 178.11 46.6 93.3 152.6 190.83 237.4 254.44 76.4 63.62 203.6 144.19 296.9 139.94 59.4-12.71 89-59.36 84.8-110.25-8.5-38.16-25.4-63.61-38.2-67.85-33.9-33.93-76.3 12.72-50.8 42.4 0 8.49 4.2 25.45 4.2 33.93 0 16.97-55.1 0-67.9 0-59.3-25.44-122.9-72.09-173.8-110.26-67.9-55.12-169.7-139.94-207.8-216.28-12.7-42.4-8.5-76.331 0-89.05 12.7-16.961 63.6-12.719 80.6-12.719 72 21.199 135.7 46.649 199.3 76.329 63.6 38.17 156.9 101.78 207.8 161.15 12.7 38.17 33.9 67.85 50.8 93.3 25.5 38.16 50.9 63.6 76.4 84.81 25.4 16.96 59.3 12.72 72.1-8.49 16.9-12.72 16.9-38.16 4.2-55.12-25.4-50.89-55.1-89.05-101.8-127.23-38.1-76.33-29.6-148.42-12.7-173.87 38.2-63.609 140-76.32 212-76.32 114.5-4.238 279.9 8.469 394.4 21.199z"/></clipPath><clipPath id="i"><path d="M16044 1538.3c-127.3-72.1-322.3-139.95-508.9-165.39 12.7-351.98 25.4-394.39 25.4-445.27-4.2-33.93-12.7-63.622-38.1-72.102-25.5-4.238-50.9 8.48-55.2 33.922-8.5 12.726-8.5 29.687 4.3 42.418 0 0-17 292.6-25.5 432.54-55.1-4.23-114.5-4.23-165.4 8.49-50.8 12.72-101.7 25.44-131.4 63.61-25.5 16.96-38.2 50.88-46.7 76.33 0 25.45 21.2 50.89 46.7 50.89 38.1 4.24 38.1-33.92 50.9-46.65 16.9-29.69 63.6-42.4 93.3-50.89 50.9-12.72 101.7-12.72 148.4-12.72 0 165.39-12.7 542.81 12.7 699.72 4.2 63.62 93.3 50.89 89.1 0 0-42.41-25.5-139.94-8.5-691.24 161.1 12.73 241.7 25.44 508.9 76.34z"/></clipPath><clipPath id="j"><path d="M0 0h17273v3090H0z"/></clipPath><clipPath id="k"><path d="M17273 944.55c-46.7-12.711-97.6-25.442-140-38.16-97.5-25.442-199.3-50.891-292.6-55.129-89 0-173.8 25.437-237.5 89.047-38.1 42.41-63.6 93.301-80.5 152.67-21.2 55.13-25.5 118.74-38.2 182.35-50.9-101.78-135.7-190.83-216.3-267.17-46.6-42.398-76.3-76.32-114.5-89.051-59.3-16.961-114.5 0-139.9 76.34-12.7 38.161-21.2 84.801-12.7 318.05 0 173.86 12.7 377.42 16.9 547.05 12.7 224.76 21.2 318.06 33.9 534.33 4.3 59.38 93.3 50.89 89.1-12.72-12.7-182.36-25.4-347.74-33.9-534.33-12.7-169.63-17-373.18-25.5-538.57 0-212.03 8.5-279.89 25.5-305.33 25.4 4.23 63.6 42.4 97.5 67.85 80.6 76.33 156.9 173.86 216.3 275.64 12.7 25.45 55.1 139.94 55.1 139.94 25.5 55.14 101.8 38.18 101.8-21.2 0-106.01 8.5-245.95 33.9-356.22 4.3-42.4 25.5-89.05 55.2-118.74 38.1-59.359 101.7-72.09 173.8-76.328 80.6-12.723 190.8 4.238 284.1 16.969 50.9 0 97.6 8.469 148.5 12.711z"/></clipPath><clipPath id="l"><path d="M7215 1291.8c-38.17 76.33-106.02 152.66-182.36 186.59-33.92 12.72-76.32 16.96-114.49 0-38.17-12.73-63.61-46.65-89.06-76.33-46.65-76.34-72.09-190.84-97.53-275.65-16.97-89.06-29.69-190.83-42.41-284.13 93.29 29.684 182.35 55.133 279.89 101.78 80.57 29.679 131.46 63.61 156.91 80.57 46.64 38.17 101.77 97.54 114.49 152.67 8.48 38.16-4.24 76.33-25.44 114.5zm-610.67-534.33c-25.44-4.25-50.88-12.719-76.33-12.719 8.48-55.133 8.48-156.91 12.72-229.01 0-63.609 8.49-156.9 12.73-220.51 8.48 55.129 21.2 190.83 25.44 254.44 21.21 144.19 21.21 152.66 25.44 207.8zm725.17 402.86c-16.96-89.05-80.58-148.42-156.91-190.83-46.64-33.922-101.78-63.609-173.87-97.539-101.78-38.16-207.79-67.852-322.3-101.77-8.47-76.328-12.72-152.67-25.44-233.24-21.2-262.93-21.2-212.04-25.44-301.09-8.48-38.172-8.48-80.582-21.21-114.5-16.96-50.89-38.16-72.09-63.61-80.582 0 0-55.13-12.719-63.61 55.133-4.24 25.449-4.24 84.82-12.72 114.5-4.24 101.78-12.72 203.56-16.96 301.09-8.49 195.08-12.72 394.39-25.45 597.94 0 67.86 0 229.01 4.24 292.62 8.49 42.4 33.93 50.89 33.93 50.89 38.17 16.96 80.57-25.45 55.13-63.61v-275.65c0-89.06 8.48-169.63 12.72-309.58 25.45 4.25 59.37 12.731 84.82 16.969 12.72 101.77 29.68 212.04 55.13 318.05 21.2 101.78 50.89 212.04 97.53 292.61 29.68 50.89 67.85 101.78 118.74 127.23 59.37 25.44 122.99 25.44 178.11 0 101.78-38.17 190.83-127.23 237.48-220.52 29.69-59.38 42.41-114.5 29.69-178.12z"/></clipPath><clipPath id="n"><path d="M6193.1 1469.9c-4.24-203.56-139.95-381.67-292.61-508.89-178.11-152.66-398.63-254.44-614.9-322.29-224.76-72.101-453.76-101.78-687.01-110.26-178.1 0-330.77 12.718-457.99 38.16-148.43 33.93-326.54 89.058-441.04 186.59-67.85 63.621-118.74 144.19-106.01 233.25 12.72 89.05 76.33 165.39 144.18 199.31-16.96-50.89-55.13-135.7-55.13-203.55 0-63.621 25.45-114.5 76.34-161.15 101.77-80.578 267.16-127.22 394.38-152.67 144.19-25.441 296.85-38.16 445.27-29.68 245.97 4.239 462.25 38.168 653.08 93.289 212.03 63.622 419.83 165.39 585.22 301.1 135.7 114.49 262.93 267.16 267.16 445.27 0 101.78-38.16 190.83-114.5 267.17-101.78 101.77-241.72 156.9-381.66 182.35-267.17 72.09-610.66 59.37-882.07 33.92-313.82-33.92-521.61-97.53-619.15-110.26-38.16-4.24-76.33 0-89.05 38.17 0 25.45 12.72 46.65 33.92 63.61 42.41 46.65 538.58 377.42 750.61 517.37 296.85 195.07 398.63 258.68 513.13 279.89 50.89 4.23 101.78 0 139.95-38.17 72.09-63.61-50.89-50.88-50.89-59.37 0 0-29.69 12.72-76.34 0-89.05-12.72-178.11-63.61-474.96-258.68-186.59-127.22-458-305.34-619.14-419.84 161.14 38.17 318.05 63.62 479.2 76.34 284.13 29.68 640.35 38.16 920.23-25.45 152.67-38.16 305.33-101.78 419.83-216.27 97.54-97.54 148.43-216.28 139.95-339.26z"/></clipPath><clipPath id="p"><path d="M7215 1291.8c-38.17 76.33-106.02 152.66-182.36 186.59-33.92 12.72-76.32 16.96-114.49 0-38.17-12.73-63.61-46.65-89.06-76.33-46.65-76.34-72.09-190.84-97.53-275.65-16.97-89.06-29.69-190.83-42.41-284.13 93.29 29.684 182.35 55.133 279.89 101.78 80.57 29.679 131.46 63.61 156.91 80.57 46.64 38.17 101.77 97.54 114.49 152.67 8.48 38.16-4.24 76.33-25.44 114.5zm-610.67-534.33c-25.44-4.25-50.88-12.719-76.33-12.719 8.48-55.133 8.48-156.91 12.72-229.01 0-63.609 8.49-156.9 12.73-220.51 8.48 55.129 21.2 190.83 25.44 254.44 21.21 144.19 21.21 152.66 25.44 207.8zm725.17 402.86c-16.96-89.05-80.58-148.42-156.91-190.83-46.64-33.922-101.78-63.609-173.87-97.539-101.78-38.16-207.79-67.852-322.3-101.77-8.47-76.328-12.72-152.67-25.44-233.24-21.2-262.93-21.2-212.04-25.44-301.09-8.48-38.172-8.48-80.582-21.21-114.5-16.96-50.89-38.16-72.09-63.61-80.582 0 0-55.13-12.719-63.61 55.133-4.24 25.449-4.24 84.82-12.72 114.5-4.24 101.78-12.72 203.56-16.96 301.09-8.49 195.08-12.72 394.39-25.45 597.94 0 67.86 0 229.01 4.24 292.62 8.49 42.4 33.93 50.89 33.93 50.89 38.17 16.96 80.57-25.45 55.13-63.61v-275.65c0-89.06 8.48-169.63 12.72-309.58 25.45 4.25 59.37 12.731 84.82 16.969 12.72 101.77 29.68 212.04 55.13 318.05 21.2 101.78 50.89 212.04 97.53 292.61 29.68 50.89 67.85 101.78 118.74 127.23 59.37 25.44 122.99 25.44 178.11 0 101.78-38.17 190.83-127.23 237.48-220.52 29.69-59.38 42.41-114.5 29.69-178.12z"/></clipPath><clipPath id="q"><path d="M8741.7 969.46c-122.98-33.922-267.16-72.09-394.39-76.332-101.77-8.481-216.27 0-275.64 80.57-25.45 33.931-42.41 76.341-42.41 122.98-46.64-38.16-101.78-76.33-161.15-110.25-63.61-38.168-131.46-67.86-207.79-89.059-63.61-12.723-127.23-12.723-165.39 33.93-46.65 42.398-38.16 118.74-21.2 178.1 46.64 93.31 152.67 190.84 237.48 254.45 76.33 63.61 203.55 144.19 296.85 139.94 59.37-12.72 89.05-59.37 84.81-110.25-8.48-38.17-25.44-63.62-38.16-67.86-33.93-33.92-76.34 12.73-50.89 42.41 0 8.48 4.24 25.45 4.24 33.93 0 16.96-55.13 0-67.86 0-59.36-25.45-122.97-72.1-173.86-110.26-67.85-55.13-169.63-139.94-207.8-216.28-12.72-42.4-8.48-76.332 0-89.05 12.72-16.969 63.61-12.731 80.58-12.731 72.09 21.211 135.7 46.651 199.31 76.341 63.61 38.16 156.91 101.78 207.79 161.14 12.72 38.17 33.93 67.85 50.89 93.3 25.45 38.17 50.89 63.61 76.34 84.82 25.44 16.96 59.37 12.72 72.09-8.49 16.96-12.72 16.96-38.16 4.24-55.13-25.45-50.89-55.13-89.05-101.78-127.22-38.17-76.33-29.68-148.42-12.72-173.87 38.17-63.61 139.94-76.328 212.03-76.328 114.51-4.242 279.9 8.476 394.39 21.199z"/></clipPath><clipPath id="r"><path d="M9433 1554.7c-127.23-72.09-322.3-139.94-508.89-165.38 12.72-351.99 25.44-394.39 25.44-445.28-4.24-33.93-12.72-63.61-38.16-72.098-25.45-4.231-50.89 8.488-55.13 33.93-8.49 12.718-8.49 29.687 4.24 42.41 0 0-16.96 292.61-25.45 432.55-55.13-4.24-114.49-4.24-165.38 8.49-50.89 12.72-101.78 25.44-131.47 63.61-25.44 16.96-38.16 50.88-46.65 76.33 0 25.44 21.21 50.89 46.65 50.89 38.17 4.24 38.17-33.93 50.89-46.65 16.97-29.69 63.62-42.41 93.3-50.89 50.89-12.72 101.78-12.72 148.42-12.72 0 165.38-12.72 542.81 12.73 699.72 4.23 63.61 93.29 50.89 89.05 0 0-42.41-25.44-139.95-8.48-691.24 161.14 12.72 241.72 25.44 508.89 76.33z"/></clipPath><clipPath id="s"><path d="M9555.9 1826.1c4.24 25.44 38.17 38.17 63.61 33.92 25.44-8.48 42.41-33.92 38.16-59.37 0-4.23-12.72-25.44-12.72-25.44-8.48-29.68 25.45-29.68 4.25-55.13-12.73-21.2-29.69-25.44-50.89-12.72-16.96 12.72-29.69 29.68-42.41 50.89-8.48 38.17 0 63.61 0 67.85zm309.57-877.83c-38.17-25.453-93.29-42.41-127.22-55.133-42.41-12.719-131.46-46.649-203.55-25.438-50.89 12.719-67.86 55.118-89.06 106.01-16.96 76.341-16.96 262.93-16.96 368.95 0 63.61 93.29 72.09 93.29 12.72-4.24-106.02-4.24-284.13 12.73-356.22 12.72-25.449 21.2-42.41 46.65-55.128 25.44-25.45 106.01-12.719 152.66-8.481 42.4 8.481 93.29 12.723 131.46 12.723z"/></clipPath><clipPath id="t"><path d="M11112 969.46c-123-33.922-267.2-72.09-394.4-76.332-101.8-8.481-216.3 0-275.7 80.57-25.4 33.931-42.4 76.341-42.4 122.98-46.6-38.16-101.7-76.33-161.1-110.25-63.6-38.168-131.5-67.86-207.8-89.059-63.62-12.723-127.23-12.723-165.39 33.93-46.65 42.398-38.17 118.74-21.2 178.1 46.64 93.31 152.66 190.84 237.49 254.45 76.3 63.61 203.5 144.19 296.8 139.94 59.4-12.72 89.1-59.37 84.8-110.25-8.4-38.17-25.4-63.62-38.1-67.86-33.9-33.92-76.3 12.73-50.9 42.41 0 8.48 4.2 25.45 4.2 33.93 0 16.96-55.1 0-67.8 0-59.4-25.45-123-72.1-173.9-110.26-67.8-55.13-169.62-139.94-207.78-216.28-12.72-42.4-8.49-76.332 0-89.05 12.73-16.969 63.6-12.731 80.58-12.731 72.1 21.211 135.7 46.651 199.3 76.341 63.6 38.16 156.9 101.78 207.8 161.14 12.7 38.17 33.9 67.85 50.9 93.3 25.4 38.17 50.9 63.61 76.3 84.82 25.5 16.96 59.4 12.72 72.1-8.49 17-12.72 17-38.16 4.3-55.13-25.5-50.89-55.2-89.05-101.8-127.22-38.2-76.33-29.7-148.42-12.7-173.87 38.1-63.61 139.9-76.328 212-76.328 114.5-4.242 279.9 8.476 394.4 21.199z"/></clipPath><clipPath id="u"><path d="M11494 960.98c-89-38.171-212-89.058-305.3-93.289-50.9-8.492-101.8-8.492-148.4 16.957-25.5 21.204-42.4 46.653-63.6 114.5-25.5 139.94-25.5 407.11-17 547.05 0 165.39 17 483.44 42.4 644.59 12.7 55.13 97.5 38.17 97.5-21.2-33.9-139.95-46.6-487.69-46.6-636.11-4.2-127.22-12.7-394.39 12.7-521.61 12.7-50.89 12.7-55.132 72.1-67.85 50.9-8.481 114.5-8.481 144.2 0 84.8 4.242 161.2 12.718 212 16.96z"/></clipPath><linearGradient id="a" x2="1" gradientTransform="translate(0 -1507.5) scale(2911.8)" gradientUnits="userSpaceOnUse"><stop stop-color="#f14625" offset="0"/><stop stop-color="#9c1662" offset=".509"/><stop stop-color="#2c3796" offset="1"/></linearGradient><linearGradient id="b" x2="1" gradientTransform="translate(39.412 -963.35) scale(2993.8)" gradientUnits="userSpaceOnUse"><stop stop-color="#f14625" offset="0"/><stop stop-color="#9c1662" offset=".509"/><stop stop-color="#2c3796" offset="1"/></linearGradient><linearGradient id="d" x2="1" gradientTransform="matrix(5414.7 0 0 -5414.7 11728 1772)" gradientUnits="userSpaceOnUse"><stop stop-color="#f03f25" offset="0"/><stop stop-color="#ad1472" offset=".5"/><stop stop-color="#2c3796" offset="1"/></linearGradient><linearGradient id="f" x2="1" gradientTransform="scale(9571.3 -9571.3) rotate(21.111 1.266 1.044)" gradientUnits="userSpaceOnUse"><stop stop-color="#f03f25" offset="0"/><stop stop-color="#ad1472" offset=".5"/><stop stop-color="#2c3796" offset="1"/></linearGradient><linearGradient id="m" x2="1" gradientTransform="matrix(912.43 0 0 -912.43 6422 808.9)" gradientUnits="userSpaceOnUse"><stop stop-color="#f03f25" offset="0"/><stop stop-color="#ad1472" offset=".5"/><stop stop-color="#2c3796" offset="1"/></linearGradient><linearGradient id="o" x2="1" gradientTransform="scale(5530 -5530) rotate(21.111 1.695 1.758)" gradientUnits="userSpaceOnUse"><stop stop-color="#f03f25" offset="0"/><stop stop-color="#ad1472" offset=".5"/><stop stop-color="#2c3796" offset="1"/></linearGradient></defs><path d="M1270.5 1145.8l1591.2-552.88m-2811.8 0l1220.5 552.88m26.55 1894.2l-28.43-1894.1" fill="none" stroke="url(#a)" stroke-linecap="round" stroke-miterlimit="10" stroke-width="100" transform="matrix(.1333 0 0 -.1333 0 412)"/><path d="M1767.6 40l14.21 1894.1m1211.4 564.74l-1215.2-561.42M79.41 2504.69l1698.6-567.27" fill="none" stroke="url(#b)" stroke-dasharray="180, 150" stroke-linecap="round" stroke-linejoin="round" stroke-miterlimit="10" stroke-width="80" transform="matrix(.1333 0 0 -.1333 0 412)"/><path d="M1532.495 283.873c-11.866 5.089-28.266 11.874-40.706 12.438-6.786 1.132-13.573 1.132-19.786-2.261-3.4-2.827-5.653-6.22-8.48-15.266-3.4-18.659-3.4-54.28-2.266-72.939 0-22.051 2.266-64.457 5.653-85.943 1.693-7.35 13-5.089 13 2.827-4.52 18.66-6.214 65.024-6.214 84.812-.56 16.963-1.693 52.584 1.694 69.547 1.693 6.785 1.693 7.35 9.613 9.046 6.786 1.13 15.266 1.13 19.226 0 11.306-.566 21.493-1.696 28.266-2.261" fill="#231f20"/><g clip-path="url(#c)" transform="matrix(.1333 0 0 -.1333 0 412)"><path d="M14169 2174.4c-199.3-241.71-606.4-504.64-873.6-661.55 8.5-135.7 21.2-288.37 34-419.83 16.9-173.87 29.6-212.03 38.1-216.28 29.7-50.879-38.1-101.78-72.1-50.879-12.7 4.239-29.7 29.68-55.1 233.23-12.7 114.5-25.4 254.45-33.9 402.87-127.2-76.33-220.5-127.21-330.8-186.59-38.2-16.96-76.3 46.65-29.7 63.62 106 72.09 241.7 139.94 356.2 212.03-8.4 139.94-8.4 258.69-8.4 360.47 8.4 190.82 25.4 241.71 46.6 267.16 29.7 50.88 106 0 76.3-50.9 0 0-21.2-29.68-25.4-216.26-8.5-80.58 0-182.36 0-305.34 246 152.66 623.4 402.86 805.7 623.38 50.9 59.38 110.3 148.43 101.8 216.28 0 38.17-25.4 84.82-101.8 122.98-127.2 63.61-322.3 80.57-462.2 80.57-356.2 12.73-784.5-42.4-1119.6-118.73-173.8-38.17-441-110.26-593.7-199.32-29.6-16.96-114.5-67.85-106-114.49 17-55.14-76.3-76.34-84.8-16.98-17 63.62 38.2 118.75 89.1 156.92 165.3 114.49 483.4 203.55 682.7 250.2 347.8 80.57 776.1 139.94 1132.3 131.46 156.9 0 360.5-16.96 500.4-89.06 84.8-38.16 148.4-101.77 152.7-190.82 12.7-101.78-55.2-207.8-118.8-284.14" fill="url(#d)"/></g><path d="M2046.882 284.931c-16.386 4.524-35.612 9.612-52.585 10.179-13.56 1.13-28.826 0-36.746-10.744-3.387-4.523-5.653-10.177-5.653-16.396-6.213 5.088-13.573 10.176-21.493 14.7-8.48 5.088-17.52 9.046-27.693 11.873-8.493 1.697-16.972 1.697-22.052-4.523-6.227-5.655-5.094-15.832-2.827-23.747 6.213-12.44 20.346-25.444 31.653-33.925 10.186-8.482 27.146-19.225 39.585-18.658 7.92 1.695 11.867 7.914 11.307 14.7-1.134 5.087-3.387 8.48-5.094 9.046-4.52 4.524-10.173-1.696-6.773-5.653 0-1.132.56-3.393.56-4.524 0-2.263-7.346 0-9.053 0-7.906 3.392-16.386 9.612-23.173 14.7-9.053 7.35-22.626 18.66-27.706 28.837-1.693 5.654-1.133 10.178 0 11.874 1.694 2.26 8.48 1.695 10.747 1.695 9.6-2.826 18.093-6.22 26.573-10.177 8.48-5.089 20.919-13.57 27.705-21.486 1.694-5.089 4.52-9.046 6.774-12.44 3.4-5.087 6.786-8.48 10.186-11.307 3.387-2.261 7.907-1.696 9.613 1.132 2.253 1.696 2.253 5.088.56 7.349-3.386 6.785-7.346 11.873-13.573 16.964-5.08 10.177-3.946 19.788-1.693 23.182 5.093 8.48 18.666 10.175 28.266 10.175 15.266.565 37.319-1.129 52.585-2.826M2139.147 206.898c-16.973 9.614-42.973 18.66-67.852 22.052 1.693 46.93 3.386 52.584 3.386 59.368-.56 4.524-1.693 8.482-5.08 9.613-3.4.565-6.786-1.13-7.36-4.523-1.133-1.696-1.133-3.958.574-5.655 0 0-2.267-39.013-3.4-57.67-7.346.563-15.266.563-22.053-1.133-6.773-1.696-13.56-3.392-17.52-8.48-3.4-2.262-5.092-6.785-6.226-10.178 0-3.393 2.827-6.785 6.227-6.785 5.08-.566 5.08 4.522 6.786 6.22 2.254 3.958 8.48 5.653 12.44 6.785 6.787 1.696 13.56 1.696 19.786 1.696 0-22.052-1.693-72.373 1.693-93.294.56-8.482 12.44-6.785 11.88 0 0 5.655-3.4 18.658-1.133 92.163 21.48-1.697 32.226-3.392 67.852-10.178" fill="#231f20"/><path d="M2303.024 286.063c-6.231 1.695-13.013 3.392-18.665 5.088-12.998 3.392-26.576 6.785-39.024 7.35-11.854 0-23.171-3.391-31.663-11.873-5.072-5.654-8.477-12.44-10.724-20.355-2.826-7.351-3.405-15.832-5.1-24.313-6.782 13.57-18.085 25.443-28.838 35.622-6.216 5.653-10.172 10.176-15.273 11.873-7.898 2.261-15.26 0-18.65-10.179-1.696-5.087-2.826-11.306-1.696-42.406 0-23.182 1.696-50.322 2.26-72.938 1.696-29.968 2.827-42.407 4.522-71.244.565-7.917 12.434-6.785 11.883 1.697-1.696 24.313-3.391 46.364-4.522 71.242-1.695 22.616-2.274 49.757-3.405 71.808 0 28.27 1.13 37.317 3.405 40.71 3.377-.564 8.478-5.653 12.999-9.047 10.738-10.177 20.91-23.18 28.837-36.751 1.696-3.394 7.347-18.659 7.347-18.659 3.405-7.351 13.578-5.09 13.578 2.827 0 14.135 1.13 32.792 4.507 47.495.58 5.654 3.405 11.873 7.362 15.833 5.086 7.914 13.563 9.612 23.171 10.177 10.752 1.696 25.446-.565 37.88-2.263 6.796 0 13.013-1.129 19.809-1.695" fill="#231f20"/><g clip-path="url(#e)" transform="matrix(.1333 0 0 -.1333 0 412)"><path d="M11494 960.98c-89-38.171-212-89.058-305.3-93.289-50.9-8.492-101.8-8.492-148.4 16.957-25.5 21.204-42.4 46.653-63.6 114.5-25.5 139.94-25.5 407.11-17 547.05 0 165.39 17 483.44 42.4 644.59 12.7 55.13 97.5 38.17 97.5-21.2-33.9-139.95-46.6-487.69-46.6-636.11-4.2-127.22-12.7-394.39 12.7-521.61 12.7-50.89 12.7-55.132 72.1-67.85 50.9-8.481 114.5-8.481 144.2 0 84.8 4.242 161.2 12.718 212 16.96" fill="url(#f)"/></g><g clip-path="url(#g)" transform="matrix(.1333 0 0 -.1333 0 412)"><path d="M14169 2174.4c-199.3-241.71-606.4-504.64-873.6-661.55 8.5-135.7 21.2-288.37 34-419.83 16.9-173.87 29.6-212.03 38.1-216.28 29.7-50.879-38.1-101.78-72.1-50.879-12.7 4.239-29.7 29.68-55.1 233.23-12.7 114.5-25.4 254.45-33.9 402.87-127.2-76.33-220.5-127.21-330.8-186.59-38.2-16.96-76.3 46.65-29.7 63.62 106 72.09 241.7 139.94 356.2 212.03-8.4 139.94-8.4 258.69-8.4 360.47 8.4 190.82 25.4 241.71 46.6 267.16 29.7 50.88 106 0 76.3-50.9 0 0-21.2-29.68-25.4-216.26-8.5-80.58 0-182.36 0-305.34 246 152.66 623.4 402.86 805.7 623.38 50.9 59.38 110.3 148.43 101.8 216.28 0 38.17-25.4 84.82-101.8 122.98-127.2 63.61-322.3 80.57-462.2 80.57-356.2 12.73-784.5-42.4-1119.6-118.73-173.8-38.17-441-110.26-593.7-199.32-29.6-16.96-114.5-67.85-106-114.49 17-55.14-76.3-76.34-84.8-16.98-17 63.62 38.2 118.75 89.1 156.92 165.3 114.49 483.4 203.55 682.7 250.2 347.8 80.57 776.1 139.94 1132.3 131.46 156.9 0 360.5-16.96 500.4-89.06 84.8-38.16 148.4-101.77 152.7-190.82 12.7-101.78-55.2-207.8-118.8-284.14" fill="url(#f)"/></g><g clip-path="url(#h)" transform="matrix(.1333 0 0 -.1333 0 412)"><path d="M15352 953.04c-122.9-33.93-267.1-72.09-394.4-76.34-101.7-8.48-216.2 0-275.6 80.582-25.4 33.918-42.4 76.329-42.4 122.97-46.6-38.16-101.8-76.32-161.2-110.25-63.6-38.16-131.4-67.852-207.7-89.051-63.7-12.73-127.3-12.73-165.4 33.922-46.7 42.41-38.2 118.74-21.2 178.11 46.6 93.3 152.6 190.83 237.4 254.44 76.4 63.62 203.6 144.19 296.9 139.94 59.4-12.71 89-59.36 84.8-110.25-8.5-38.16-25.4-63.61-38.2-67.85-33.9-33.93-76.3 12.72-50.8 42.4 0 8.49 4.2 25.45 4.2 33.93 0 16.97-55.1 0-67.9 0-59.3-25.44-122.9-72.09-173.8-110.26-67.9-55.12-169.7-139.94-207.8-216.28-12.7-42.4-8.5-76.331 0-89.05 12.7-16.961 63.6-12.719 80.6-12.719 72 21.199 135.7 46.649 199.3 76.329 63.6 38.17 156.9 101.78 207.8 161.15 12.7 38.17 33.9 67.85 50.8 93.3 25.5 38.16 50.9 63.6 76.4 84.81 25.4 16.96 59.3 12.72 72.1-8.49 16.9-12.72 16.9-38.16 4.2-55.12-25.4-50.89-55.1-89.05-101.8-127.23-38.1-76.33-29.6-148.42-12.7-173.87 38.2-63.609 140-76.32 212-76.32 114.5-4.238 279.9 8.469 394.4 21.199" fill="url(#f)"/></g><g clip-path="url(#i)" transform="matrix(.1333 0 0 -.1333 0 412)"><path d="M16044 1538.3c-127.3-72.1-322.3-139.95-508.9-165.39 12.7-351.98 25.4-394.39 25.4-445.27-4.2-33.93-12.7-63.622-38.1-72.102-25.5-4.238-50.9 8.48-55.2 33.922-8.5 12.726-8.5 29.687 4.3 42.418 0 0-17 292.6-25.5 432.54-55.1-4.23-114.5-4.23-165.4 8.49-50.8 12.72-101.7 25.44-131.4 63.61-25.5 16.96-38.2 50.88-46.7 76.33 0 25.45 21.2 50.89 46.7 50.89 38.1 4.24 38.1-33.92 50.9-46.65 16.9-29.69 63.6-42.4 93.3-50.89 50.9-12.72 101.7-12.72 148.4-12.72 0 165.39-12.7 542.81 12.7 699.72 4.2 63.62 93.3 50.89 89.1 0 0-42.41-25.5-139.94-8.5-691.24 161.1 12.73 241.7 25.44 508.9 76.34" fill="url(#f)"/></g><g clip-path="url(#j)" transform="matrix(.1333 0 0 -.1333 0 412)"><g clip-path="url(#k)"><path d="M15870 803.06v.943h-13.2v.944h-8.5v.944h-8.5v.943h-7.6v.944h-5.6v.944h-4.7v.943h-4.8v.944h-4.7v.944h-4.7v.943h-4.7v.944h-3.8v.944h-3.8v.943h-2.8v.944h-2.8v.944h-3.8v.943h-2.8v.944h-2.9v.944h-3.7v.943h-2.9v.944h-2.8v.944h-2.8v.943h-1.9v.944h-1.9v.944h-2.8v.943h-1.9v.944h-2.9v.944h-1.8v.943h-1.9v.944h-2.9v.944h-1.8v.943h-2.9v.944h-1.9v.944h-1.9v.943h-1.8v.944h-1.9v.944h-1.9v.943h-1v.944h-1.8v.944h-1.9v.943h-1.9v.944h-1.9v.944h-1.9v.943h-.9v.944h-1.9v.944h-1.9v.943h-1.9v.944h-1.9v.944h-.9v.943h-1.9v.944h-1v.944h-1.8v.943h-1v.944h-.9v.944h-1.9v.943h-1v.944h-1.9v.944h-.9v.943h-1.9v.944h-.9v.944h-1v.943h-1.9v.944h-.9v.944h-1.9v.943h-.9v.944h-1.9v.944h-1v.943h-.9v.944h-1v.944h-1.8v.943h-1v.944h-.9v.944h-1v.943h-.9v.944h-1v.944h-1.8v.943h-1v.944h-.9v.944h-1v.943h-.9v.944h-1v.944h-1.9v.943h-.9v.944h-.9v.944h-1v.944h-.9v.943h-1v.944h-.9v.944h-1v.943h-.9v.944h-.9v.944h-1v.943h-.9v1.888h-1v.943h-.9v.944h-1v.944h-.9v.943h-1v1.888h-.9v.943h-.9v.944h-1v1.887h-.9v.944h-1v.944h-.9v1.887h-1v.944h-.9v.943h-.9v1.888h-1v.943h-.9v.944h-1v1.887h-.9v.944h-1v.944h-.9v1.887h-.9v.944h-1v.943h-.9v1.888h-1v1.887h-.9v.944h-1v1.887h-.9v1.887h-1v.944h-.9v1.887h-.9v1.888h-1v.943h-.9v1.888h-1v1.887h-.9v.944h-1v1.887h-.9v1.887h-.9v.944h-1v1.887h-.9v1.888h-1v.943h-.9v1.888h-1v1.887h-.9v.944h-1v1.887h-.9v1.887h-.9v1.888h-1v2.831h-.9v1.887h-1v1.887h-.9v1.888h-1v2.831h-.9v1.887h-.9v1.887h-1v1.888h-.9v1.887h-1v2.831h-.9v1.887h-1v1.888h-.9v1.887h-1v1.887h-.9v2.831h-.9v1.888h-1v2.831h-.9v2.831h-1v2.831h-.9v1.884h-1v2.83h-.9v2.84h-.9v2.83h-1v2.83h-.9v2.83h-1v1.89h-.9v2.83h-1v3.77h-.9v2.83h-1v3.78h-.9v2.83h-.9v1.89h-1v2.83h-.9v2.83h-1v2.83h-.9v2.83h-1v2.83h-.9v3.77h-.9v2.84h-1v3.77h-.9v3.78h-1v2.83h-.9v3.77h-1v3.78h-.9v4.71h-1v3.78h-.9v4.72h-.9v3.77h-1v5.66h-.9v4.72h-1v4.72h-.9v5.66h-1v5.66h-.9v5.67h-.9v5.66h-1v5.66h-.9v5.66h-1v5.66h-.9v6.61h-1v5.66h-.9v5.66h-.9v5.67h-1v5.66h-.9v5.66h-1v5.66h-.9v4.72h-1v5.66h-.9v4.72h-1v-.94h-.9v-1.89h-.9v-1.89h-1v-1.88h-.9v-1.89h-1v-1.89h-.9v-1.89h-1v-.94h-.9v-1.89h-.9v-1.88h-1v-1.89h-.9v-1.89h-1v-.94h-.9v-1.89h-1v-1.89h-.9v-1.89h-1v-.94h-.9v-1.89h-.9v-1.88h-1v-1.89h-.9v-.94h-1v-1.89h-.9v-.95h-1v-1.88h-.9v-1.89h-.9v-.94h-1v-1.89h-.9v-.95h-1v-1.88h-.9v-.95h-1v-1.88h-.9v-.95h-1v-1.88h-.9v-1.89h-.9v-.95h-1v-1.88h-.9v-.95h-1v-1.88h-.9v-.95h-1v-1.88h-.9v-.95h-.9v-1.89h-1v-1.88h-.9v-.95h-1v-.94h-.9v-1.89h-1v-.94h-.9v-1.89h-1v-.94h-.9v-.95h-.9v-1.88h-1v-.95h-.9v-.94h-1v-1.89h-.9v-.94h-1v-1.89h-.9v-.94h-.9v-.95h-1v-1.88h-.9v-.95h-1v-.94h-.9v-1.89h-1v-.94h-.9v-.95h-.9v-1.88h-1v-.95h-.9v-1.88h-1v-.95h-.9v-.94h-1v-1.89h-.9v-.94h-1v-.95h-.9v-.94h-.9v-1.89h-1v-.94h-.9v-.94h-1v-.95h-.9v-.94h-1v-1.89h-.9v-.94h-.9v-.95h-1v-.94h-.9v-1.89h-1v-.94h-.9v-.94h-1v-.95h-.9v-1.89h-1v-.94h-.9v-.94h-.9v-.95h-1v-1.88h-.9v-.95h-1v-.94h-.9v-.95h-1v-1.88h-.9v-.95h-.9v-.94h-1v-.94h-.9v-.95h-1v-.94h-.9v-1.89h-1v-.94h-.9v-.95h-1v-.94h-.9v-.94h-.9v-.95h-1v-.94h-.9v-.94h-1v-1.89h-.9v-.95h-1v-.94h-.9v-.94h-.9v-.95h-1v-.94h-.9v-.94h-1v-1.89h-.9v-.94h-1v-.95h-.9v-.94h-1v-.95h-.9v-.94h-.9v-.94h-1v-1.89h-.9v-.94h-1v-.95h-.9v-.94h-1v-.94h-.9v-.95h-.9v-.94h-1v-.95h-.9v-.94h-1v-.94h-.9v-.95h-1v-.94h-.9v-.94h-.9v-.95h-1v-1.89h-.9v-.94h-1v-.94h-.9v-.95h-1v-.94h-.9v-.94h-1v-.95h-.9v-.94h-.9v-.94h-1v-.95h-.9v-.94h-1v-.95h-.9v-.94h-1v-.94h-.9v-.95h-.9v-.94h-1v-1.89h-.9v-.94h-1v-.94h-.9v-.95h-1v-.94h-.9v-.95h-1v-.94h-.9v-.94h-.9v-.95h-1v-.94h-.9v-.944h-1v-.944h-.9v-.944h-1v-.943h-.9v-.944h-.9v-.944h-1v-.943h-.9v-.944h-1v-.944h-.9v-.943h-1v-.944h-.9v-.944h-1v-.943h-.9v-.944h-.9v-.944h-1v-.943h-.9v-.944h-1v-.944h-.9v-.943h-1v-.944h-.9v-.944h-.9v-.943h-1v-.944h-.9v-.944h-1v-.943h-.9v-.944h-1v-.944h-.9v-.943h-1v-.944h-.9v-.944h-.9v-.943h-1.9v-.944h-1v-.944h-.9v-.943h-1v-.944h-.9v-.944h-.9v-.943h-1v-.944h-.9v-.944h-1v-.943h-.9v-.944h-1v-.944h-.9v-.943h-1v-.944h-.9v-.944h-.9v-.943h-1v-.944h-.9v-.944h-1v-.943h-.9v-.944h-1v-.944h-.9v-.943h-.9v-.944h-1v-.944h-1.9v-.943h-.9v-.944h-1v-.944h-.9v-.943h-.9v-.944h-1v-.944h-.9v-.943h-1v-.944h-.9v-.944h-1v-.943h-.9v-.944h-1v-.944h-1.8v-.943h-1v-.944h-.9v-.944h-1v-.943h-.9v-.944h-1v-.944h-.9v-.943h-.9v-.944h-1v-.944h-.9v-.943h-1v-.944h-.9v-.944h-1v-.943h-.9v-.944h-1v-.944h-.9v-.943h-1.9v-.944h-.9v-.944h-1v-.943h-.9v-.944h-1v-.944h-.9v-.943h-.9v-.944h-1v-.944h-.9v-.943h-1v-.944h-.9v-.944h-1v-.943h-.9v-.944h-1.9v-.944h-.9v-.943h-1v-.944h-.9v-.944h-1v-.943h-.9v-.944h-1v-.944h-.9v-.943h-1.9v-.944h-.9v-.944h-1v-.943h-.9v-.944h-1v-.944h-.9v-.943h-1v-.944h-1.8v-.944h-1v-.943h-.9v-.944h-1v-.944h-1.9v-.943h-.9v-.944h-.9v-.944h-1v-.943h-1.9v-.944h-.9v-.944h-1v-.943h-1.8v-.944h-1v-.944h-1.9v-.943h-.9v-.944h-1.9v-.944h-1v-.944h-.9v-.943h-1.9v-.944h-1.9v-.944h-1.9v-.943h-.9v-.944h-1.9v-.944h-1.9v-.943h-1.9v-.944h-.9v-.944h-2.8v-.943h-1.9v-.944h-1.9v-.944h-2.8v-.943h-1.9v-.944h-2.9v-.944h-3.7v-.943h-3.8v-.944h-4.7v-.944h-4.8v-.943h-7.5v-.944h-27.4v.944h-4.7v.943h-4.7v.944h-3.8v.944h-2.8v.943h-2.8v.944h-2.9v.944h-1.9v.943h-2.8v.944h-1.9v.944h-.9v.943h-1.9v.944h-1.9v.944h-1.9v.943h-.9v.944h-1.9v.944h-1v.943h-1.8v.944h-1v.944h-.9v.943h-1.9v.944h-1v.944h-.9v.944h-1v.943h-.9v.944h-.9v.944h-1v.943h-.9v.944h-1v.944h-.9v.943h-1v.944h-.9v.944h-.9v.943h-1v.944h-.9v1.887h-1v.944h-.9v.944h-1v1.887h-.9v.944h-.9v1.887h-1v.944h-.9v.943h-1v1.888h-.9v1.887h-1v1.887h-.9v.944h-1v1.887h-.9v1.888h-.9v1.887h-1v1.887h-.9v1.888h-1v1.887h-.9v1.887h-1v1.888h-.9v2.831h-.9v1.887h-1v2.831h-.9v2.831h-1v2.831h-.9v2.831h-1v2.831h-.9v2.831h-1v3.775h-.9v2.831h-.9v4.718h-1v3.775h-.9v4.718h-1v4.718h-.9v5.662h-1v6.606h-.9v7.549h-.9v10.384h-1v12.26h-.9v16.99h-1v34.92h-.9v55.67h.9v50.96h1v33.03h.9v29.25h1v78.33h.9v43.41h.9v33.02h1v30.2h.9v27.37h1v24.53h.9v25.48h1v23.59h.9v23.6h.9v23.59h1v22.65h.9v23.59h1v24.53h.9v25.48h1v25.48h.9v29.26h1v33.02h.9v18.88h.9v16.04h1v16.04h.9v16.04h1v16.05h.9v15.1h1v16.04h.9v14.15h.9v15.1h1v15.1h.9v14.16h1v15.09h.9v14.16h1v14.15h.9v14.16h1v14.15h.9v14.16h.9v13.21h1v14.16h.9v14.15h1v14.16h.9v14.15h1v14.16h.9v14.15h.9v14.16h1v15.09h.9v14.16h1v15.1h.9v15.1h1v15.1h.9v15.09h.9v16.05h1v15.1h.9v16.04h1v6.6h.9v3.78h1v2.83h.9v1.89h1v2.83h.9v1.89h.9v.94h1v1.89h.9v.94h1v.94h.9v.95h1v.94h.9v.94h.9v.95h1v.94h.9v.95h1v.94h1.9v.94h.9v.95h1.9v.94h1.9v.94h2.8v.95h2.8v.94h3.8v.94h17v-.94h4.7v-.94h2.9v-.95h1.8v-.94h2.9v-.94h1.9v-.95h.9v-.94h1.9v-.94h.9v-.95h1.9v-.94h1v-.95h.9v-.94h1v-.94h.9v-.95h.9v-.94h1v-.94h.9v-.95h1v-1.88h.9v-.95h1v-.94h.9v-1.89h.9v-1.89h1v-1.88h.9v-2.84h1v-2.83h.9v-3.77h1v-6.61h.9v-10.38h-.9v-13.21h-1v-13.21h-.9v-13.21h-1v-14.16h-.9v-13.21h-1v-13.21h-.9v-13.21h-.9v-13.21h-1v-13.21h-.9v-14.16h-1v-13.21h-.9v-13.21h-1v-13.21h-.9v-14.16h-.9v-14.15h-1v-13.21h-.9v-14.16h-1v-14.15h-.9v-14.16h-1v-14.15h-.9v-15.1h-1v-14.16h-.9v-15.1h-.9v-15.09h-1v-16.05h-.9v-15.1h-1v-16.04h-.9v-17.93h-1v-16.98h-.9v-16.99h-.9v-17.93h-1v-18.87h-.9v-18.88h-1v-18.87h-.9v-13.21h-1v-14.16h-.9v-14.15h-.9v-15.1h-1v-16.04h-.9v-16.99h-1v-16.98h-.9v-16.99h-1v-19.82h-.9v-19.81h-1v-20.77h-.9v-21.7h-.9v-22.65h-1v-22.65h-.9v-23.59h-1v-23.59h-.9v-24.53h-1v-23.6h-.9v-24.53h-.9v-23.59h-1v-22.65h-.9v-22.65h-1v-20.76h-.9v-20.76h-1v-18.87h-.9v-63.23h.9v-56.62h1v-30.2h.9v-21.7h1v-16.99h.9v-14.15h1v-11.33h.9v-9.43h.9v-8.5h1v-7.55h.9v-6.603h1v-5.662h.9v-4.718h1v-4.718h.9v-4.719h.9v-2.831h1v-3.774h.9v-2.831h1v-2.831h.9v-2.831h1v-2.831h.9v-1.888h1v-1.887h.9v-1.887h.9v-1.888h1v-.943h3.8v.943h2.8v.944h2.8v.944h1.9v.943h1.9v.944h1.9v.944h1.9v.943h.9v.944h1.9v.944h1.9v.943h.9v.944h1.9v.944h1v.943h1.8v.944h1v.944h1.9v.943h.9v.944h1.9v.944h1v.943h.9v.944h1.9v.944h.9v.943h1v.944h1.9v.944h.9v.943h.9v.944h1.9v.944h1v.943h.9v.944h1v.944h1.9v.943h.9v.944h.9v.944h1v.943h1.9v.944h.9v.944h1v.943h.9v.944h.9v.944h1.9v.943h1v.944h.9v.944h1v.943h1.9v.944h.9v.944h.9v.943h1v.944h.9v.944h1.9v.943h1v.944h.9v.944h.9v.943h1.9v.944h1v.944h.9v.944h1v.94h.9v.95h1.9v.94h.9v.94h1v.95h.9v.94h1.9v.95h1v.94h.9v.94h1.9v.95h.9v.94h1v.94h.9v.95h1v.94h1.8v.94h1v.95h.9v.94h1v.95h.9v.94h1v.94h.9v.95h1v.94h.9v.94h.9v.95h1v.94h.9v.94h1v.95h.9v.94h1v.95h.9v.94h.9v.94h1v.95h.9v.94h1v.94h.9v.95h1v.94h.9v.95h1v.94h.9v.94h.9v.95h1v.94h.9v.94h1v.95h.9v.94h1v.94h.9v.95h.9v1.89h1v.94h.9v.94h1v.95h.9v.94h1v.94h.9v.95h1v.94h.9v.94h.9v.95h1v.94h.9v.95h1v.94h.9v.94h1v.95h.9v.94h.9v1.89h1v.94h.9v.95h1v.94h.9v.94h1v.95h.9v.94h1v.94h.9v.95h.9v.94h1v.94h.9v1.89h1v.95h.9v.94h1v.94h.9v.95h.9v.94h1v.94h.9v1.89h1v.95h.9v.94h1v.94h.9v.95h.9v.94h1v.94h.9v1.89h1v.94h.9v.95h1v.94h.9v.95h1v.94h.9v.94h.9v1.89h1v.94h.9v.95h1v.94h.9v.94h1v.95h.9v1.89h.9v.94h1v.94h.9v.95h1v.94h.9v1.89h1v.94h.9v.95h1v.94h.9v1.89h.9v.94h1v.94h.9v.95h1v1.88h.9v.95h1v.94h.9v.95h.9v.94h1v1.89h.9v.94h1v.94h.9v.95h1v1.88h.9v.95h1v.94h.9v.95h.9v1.88h1v.95h.9v.94h1v.94h.9v1.89h1v.95h.9v.94h.9v1.89h1v.94h.9v.94h1v1.89h.9v.94h1v.95h.9v1.89h1v.94h.9v.94h.9v1.89h1v.94h.9v.95h1v1.88h.9v.95h1v.94h.9v1.89h.9v.94h1v.95h.9v1.88h1v.95h.9v.94h1v1.89h.9v.94h1v.95h.9v1.88h.9v.95h1v1.88h.9v.95h1v.94h.9v1.89h1v.94h.9v1.89h.9v.94h1v1.89h.9v.95h1v.94h.9v1.89h1v.94h.9v1.89h.9v.94h1v.94h.9v1.89h1v.95h.9v1.88h1v.95h.9v1.88h1v.95h.9v.94h.9v1.89h1v.94h.9v1.89h1v1.89h.9v.94h1v1.89h.9v.94h.9v1.89h1v.94h.9v1.89h1v.94h.9v1.89h1v.94h.9v1.89h1v.95h.9v1.88h.9v.95h1v1.88h.9v.95h1v1.88h.9v.95h1v1.89h.9v1.88h.9v.95h1v1.88h.9v.95h1v1.89h.9v1.88h1v.95h.9v1.88h1v.95h.9v1.88h.9v1.89h1v.95h.9v1.88h1v1.89h.9v.94h1v1.89h.9v.94h.9v1.89h1v1.89h.9v.94h1v1.89h.9v1.89h1v.94h.9v1.89h1v1.89h.9v1.88h.9v1.89h1v1.89h.9v2.83h1v1.89h.9v1.88h1v2.83h.9v1.89h.9v1.89h1v2.83h.9v1.89h1v2.83h.9v1.89h1v2.83h.9v1.88h.9v2.84h1v1.88h.9v2.83h1v1.89h.9v2.83h1v1.89h.9v2.83h1v1.89h.9v2.83h.9v1.89h1v2.83h.9v2.83h1v1.89h.9v2.83h1v1.88h.9v2.84h.9v2.83h1v1.88h.9v2.83h1v1.89h.9v2.83h1v2.83h.9v1.89h1v2.83h.9v2.83h.9v1.89h1v2.83h.9v2.83h1v1.89h.9v2.83h1v2.83h.9v1.89h.9v2.83h1v1.89h.9v2.83h1v2.83h.9v2.83h1v1.89h.9v2.83h1v2.83h.9v1.89h.9v1.88h1v.95h.9v1.89h1v1.88h.9v.95h1v.94h.9v1.89h.9v.94h1v.95h.9v.94h1v.94h.9v.95h1v.94h.9v.94h1v.95h.9v.94h.9v.94h1.9v.95h1v.94h1.9v.95h1.8v.94h1v.94h1.9v.95h2.8v.94h1.9v.94h2.8v.95h4.7v.94h18v-.94h3.7v-.95h3.8v-.94h2.9v-.94h1.8v-.95h1.9v-.94h1.9v-.94h1.9v-.95h.9v-.94h1v-.95h1.9v-.94h.9v-.94h1v-.95h.9v-.94h1v-.94h.9v-.95h.9v-.94h1v-.94h.9v-.95h1v-.94h.9v-1.89h1v-.94h.9v-1.89h.9v-.94h1v-1.89h.9v-2.83h1v-1.89h.9v-2.83h1v-3.78h.9v-3.77h1v-26.42h.9v-43.41h.9v-27.37h1v-17.93h.9v-18.87h1v-12.27h.9v-13.21h1v-12.27h.9v-11.32h.9v-9.44h1v-9.44h.9v-9.43h1v-9.44h.9v-7.55h1v-7.55h.9v-6.6h.9v-7.55h1v-7.55h.9v-7.55h1v-5.66h.9v-5.67h1v-5.66h.9v-5.66h1v-5.66h.9v-5.66h.9v-6.61h1v-4.72h.9v-4.72h1v-4.71h.9v-4.72h1v-4.72h.9v-4.72h.9v-4.72h1v-3.77h.9v-5.66h1v-5.67h.9v-5.66h1v-4.72h.9v-3.77h1v-3.78h.9v-4.71h.9v-2.84h1v-2.83h.9v-2.83h1v-2.83h.9v-2.83h1v-2.83h.9v-1.888h.9v-1.887h1v-2.831h.9v-1.888h1v-2.831h.9v-1.887h1v-1.887h.9V983.3h1v-1.887h.9v-1.887h.9v-1.888h1v-1.887h.9v-1.887h1v-.944h.9v-1.887h1v-1.888h.9v-.943h.9v-1.888h1v-1.887h.9v-.944h1v-1.887h.9v-.944h1v-1.887h.9v-.944h1v-1.887h.9v-.944h.9v-.943h1v-1.888h.9v-.943h1v-.944h.9v-1.887h1v-.944h.9v-.944h.9v-.943h1v-1.888h.9v-.943h1v-.944h.9v-.944h1v-.943h.9v-.944h.9v-.944h1v-.943h.9v-.944h1v-1.887h.9v-.944h1v-1.887h.9v-.944h1v-1.887h.9v-.944h.9v-.944h1v-.943h.9v-1.888h1v-.943h.9v-.944h1v-.944h.9v-.943h.9v-1.888h1v-.943h.9v-.944h1v-.944h.9v-.943h1v-.944h.9v-.944h1v-.943h1.8v-.944h1v-.944h.9v-.943h1v-.944h.9v-.944h1v-.943h.9v-.944h.9v-.944h1v-.943h.9v-.944h1v-.944h1.9v-.943h.9v-.944h1.9v-.944h.9v-.943h1.9v-.944h1.9v-.944h1v-.943h1.8v-.944h1v-.944h1.9v-.943h.9v-.944h1.9v-.944h1v-.943h2.8v-.944h1.9v-.944h1.9v-.943h1.8v-.944h1.9v-.944h2.9v-.943h1.9v-.944h1.8v-.944h1.9v-.944h2.9v-.943h2.8v-.944h2.8v-.944h3.8v-.943h2.8v-.944h2.9v-.944h2.8v-.943h3.8v-.944h4.7v-.944h4.7v-.943h3.8v-.944h4.7v-.944h5.7v-.943h7.5v-.944h6.6v-.944h7.6v-.943h11.3v-.944h12.2v-.944h7.6v-.943h8.5v-.944h10.4v-.944h17.9v-.943h41.5v.943h19.8v.944h14.2v.944h13.2v.943h9.4v.944h9.5v.944h9.4v.943h8.5v.944h7.6v.944h7.5v.943h8.5v.944h7.5v.944h6.7v.943h7.5v.944h6.6v.944h7.6v.943h6.6v.944h6.6v.944h7.5v.943h6.6v.944h6.6v.944h18v.943h18.8v.944h12.3v.944h10.4v.944h10.4v.943h9.4v.944h8.5v.944h8.5v.943h8.5v.944h8.5v.944h8.5v.943h8.5v.944h9.4v.944h6.6v-.944h-.9v-.944h-3.8v-.943h-2.8v-.944h-3.8v-.944h-3.8v-.943h-3.8v-.944h-2.8v-.944h-3.8v-.943h-3.8v-.944h-3.7v-.944h-3.8v-.944h-2.8v-.943h-3.8v-.944h-3.8v-.944h-3.8v-.943h-2.8v-.944h-3.8v-.944h-3.7v-.943h-3.8v-.944h-2.8v-.944h-3.8v-.943h-3.8v-.944h-3.8v-.944h-2.8v-.943h-3.8v-.944h-3.7v-.944h-2.9v-.943h-3.8v-.944h-3.7v-.944h-2.9v-.943h-3.7v-.944h-2.9v-.944h-3.7v-.943h-2.9v-.944h-3.7v-.944h-2.9v-.943h-3.8v-.944h-2.8v-.944h-3.8v-.943h-2.8v-.944h-3.8v-.944h-3.7v-.943h-3.8v-.944h-3.8v-.944h-3.8v-.943h-3.7v-.944h-3.8v-.944h-2.8v-.943h-3.8v-.944h-3.8v-.944h-3.8v-.943h-3.7v-.944h-3.8v-.944h-3.8v-.943h-3.8v-.944h-3.7v-.944h-3.8v-.943h-4.7v-.944h-3.8v-.944h-3.8v-.943h-3.8v-.944h-3.7v-.944h-4.7v-.943h-3.8v-.944h-3.8v-.944h-3.8v-.943h-4.7v-.944h-4.7v-.944h-3.8v-.943h-4.7v-.944h-4.7v-.944h-3.8v-.943h-4.7v-.944h-3.8v-.944h-5.7v-.943h-4.7v-.944h-4.7v-.944h-4.7v-.943h-5.7v-.944h-4.7v-.944h-4.7v-.943h-5.7v-.944h-6.6v-.944h-5.6v-.943h-5.7v-.944h-6.6v-.944h-5.7v-.943h-7.5v-.944h-8.5v-.944h-7.6v-.943h-8.4v-.944h-10.4v-.944h-12.3v-.943" fill="url(#f)" transform="scale(1.0597)"/></g></g><path d="M825.726 216.018c-.565 27.14-18.66 50.888-39.014 67.85-23.747 20.355-53.149 33.925-81.984 42.971-29.968 9.614-60.5 13.57-91.6 14.701-23.745 0-44.1-1.695-61.063-5.087-19.79-4.524-43.538-11.875-58.804-24.878-9.046-8.483-15.832-19.225-14.134-31.1 1.696-11.873 10.177-22.051 19.223-26.574-2.261 6.785-7.35 18.093-7.35 27.14 0 8.482 3.393 15.266 10.178 21.486 13.57 10.743 35.62 16.962 52.583 20.355 19.225 3.392 39.579 5.088 59.368 3.957 32.795-.565 61.631-5.088 87.075-12.438 28.27-8.482 55.976-22.051 78.027-40.145 18.093-15.265 35.057-35.62 35.62-59.368 0-13.57-5.087-25.444-15.266-35.622-13.57-13.569-32.228-20.92-50.886-24.313-35.622-9.612-81.42-7.916-117.607-4.522-41.841 4.522-69.546 13.003-82.551 14.7-5.088.566-10.177 0-11.873-5.089 0-3.393 1.696-6.22 4.522-8.48 5.655-6.22 71.81-50.322 100.08-68.982 39.578-26.008 53.149-34.49 68.415-37.317 6.785-.564 13.57 0 18.66 5.089 9.611 8.481-6.786 6.784-6.786 7.916 0 0-3.958-1.696-10.178 0-11.873 1.696-23.747 8.48-63.327 34.49-24.878 16.962-61.065 40.71-82.55 55.977 21.485-5.09 42.406-8.483 63.892-10.179 37.883-3.957 85.378-5.088 122.695 3.394 20.355 5.087 40.71 13.57 55.975 28.835 13.005 13.005 19.79 28.836 18.66 45.233" fill="#231f20"/><g clip-path="url(#l)" transform="matrix(.1333 0 0 -.1333 0 412)"><path d="M7215 1291.8c-38.17 76.33-106.02 152.66-182.36 186.59-33.92 12.72-76.32 16.96-114.49 0-38.17-12.73-63.61-46.65-89.06-76.33-46.65-76.34-72.09-190.84-97.53-275.65-16.97-89.06-29.69-190.83-42.41-284.13 93.29 29.684 182.35 55.133 279.89 101.78 80.57 29.679 131.46 63.61 156.91 80.57 46.64 38.17 101.77 97.54 114.49 152.67 8.48 38.16-4.24 76.33-25.44 114.5zm-610.67-534.33c-25.44-4.25-50.88-12.719-76.33-12.719 8.48-55.133 8.48-156.91 12.72-229.01 0-63.609 8.49-156.9 12.73-220.51 8.48 55.129 21.2 190.83 25.44 254.44 21.21 144.19 21.21 152.66 25.44 207.8zm725.17 402.86c-16.96-89.05-80.58-148.42-156.91-190.83-46.64-33.922-101.78-63.609-173.87-97.539-101.78-38.16-207.79-67.852-322.3-101.77-8.47-76.328-12.72-152.67-25.44-233.24-21.2-262.93-21.2-212.04-25.44-301.09-8.48-38.172-8.48-80.582-21.21-114.5-16.96-50.89-38.16-72.09-63.61-80.582 0 0-55.13-12.719-63.61 55.133-4.24 25.449-4.24 84.82-12.72 114.5-4.24 101.78-12.72 203.56-16.96 301.09-8.49 195.08-12.72 394.39-25.45 597.94 0 67.86 0 229.01 4.24 292.62 8.49 42.4 33.93 50.89 33.93 50.89 38.17 16.96 80.57-25.45 55.13-63.61v-275.65c0-89.06 8.48-169.63 12.72-309.58 25.45 4.25 59.37 12.731 84.82 16.969 12.72 101.77 29.68 212.04 55.13 318.05 21.2 101.78 50.89 212.04 97.53 292.61 29.68 50.89 67.85 101.78 118.74 127.23 59.37 25.44 122.99 25.44 178.11 0 101.78-38.17 190.83-127.23 237.48-220.52 29.69-59.38 42.41-114.5 29.69-178.12" fill="url(#m)"/></g><g fill="#231f20"><path d="M1165.53 282.742c-16.396 4.523-35.62 9.612-52.583 10.177-13.57 1.131-28.835 0-36.751-10.742-3.393-4.524-5.655-10.179-5.655-16.397-6.218 5.088-13.57 10.177-21.486 14.7-8.481 5.088-17.527 9.047-27.705 11.874-8.48 1.696-16.963 1.696-22.051-4.524-6.22-5.653-5.088-15.832-2.827-23.746 6.219-12.441 20.356-25.445 31.664-33.926 10.177-8.481 27.139-19.225 39.579-18.658 7.915 1.696 11.873 7.916 11.307 14.7-1.13 5.089-3.392 8.482-5.088 9.047-4.523 4.523-10.178-1.697-6.785-5.654 0-1.13.566-3.394.566-4.524 0-2.261-7.35 0-9.048 0-7.915 3.393-16.396 9.613-23.18 14.7-9.047 7.351-22.618 18.659-27.707 28.837-1.696 5.654-1.13 10.178 0 11.873 1.696 2.263 8.481 1.698 10.744 1.698 9.612-2.828 18.093-6.22 26.574-10.179 8.481-5.088 20.92-13.57 27.705-21.484 1.695-5.09 4.523-9.047 6.785-12.44 3.393-5.09 6.785-8.481 10.178-11.31 3.392-2.26 7.916-1.695 9.612 1.133 2.261 1.696 2.261 5.088.565 7.35-3.393 6.785-7.35 11.873-13.57 16.962-5.09 10.178-3.957 19.79-1.696 23.183 5.09 8.48 18.658 10.176 28.27 10.176 15.267.566 37.319-1.13 52.584-2.826M1257.702 204.712c-16.964 9.612-42.972 18.658-67.85 22.05 1.696 46.93 3.392 52.584 3.392 59.37-.566 4.523-1.696 8.48-5.088 9.612-3.394.564-6.786-1.132-7.35-4.524-1.133-1.696-1.133-3.958.564-5.654 0 0-2.26-39.014-3.393-57.672-7.35.565-15.265.565-22.05-1.132-6.785-1.696-13.57-3.392-17.529-8.481-3.392-2.262-5.088-6.784-6.22-10.178 0-3.391 2.828-6.785 6.22-6.785 5.09-.565 5.09 4.524 6.785 6.22 2.263 3.959 8.483 5.655 12.44 6.785 6.785 1.696 13.57 1.696 19.789 1.696 0-22.05-1.696-72.373 1.697-93.293.564-8.481 12.439-6.786 11.873 0 0 5.654-3.392 18.66-1.13 92.163 21.484-1.696 32.228-3.392 67.85-10.177M1274.088 168.526c.565-3.392 5.09-5.09 8.481-4.522 3.392 1.13 5.655 4.522 5.088 7.915 0 .564-1.696 3.392-1.696 3.392-1.13 3.957 3.393 3.957.567 7.35-1.697 2.827-3.959 3.393-6.785 1.697-2.262-1.696-3.959-3.958-5.655-6.785-1.13-5.09 0-8.482 0-9.047zm41.275 117.041c-5.09 3.394-12.438 5.655-16.962 7.351-5.655 1.696-17.528 6.22-27.14 3.392-6.785-1.696-9.047-7.35-11.874-14.135-2.261-10.178-2.261-35.056-2.261-49.192 0-8.48 12.438-9.611 12.438-1.696-.565 14.136-.565 37.883 1.698 47.495 1.696 3.393 2.826 5.655 6.22 7.35 3.391 3.394 14.134 1.696 20.354 1.131 5.653-1.13 12.438-1.696 17.527-1.696"/><path d="M1481.563 282.742c-16.4 4.523-35.626 9.612-52.585 10.177-13.573 1.131-28.84 0-36.76-10.742-3.386-4.524-5.653-10.179-5.653-16.397-6.213 5.088-13.56 10.177-21.48 14.7-8.479 5.088-17.532 9.047-27.705 11.874-8.483 1.696-16.964 1.696-22.052-4.524-6.22-5.653-5.089-15.832-2.826-23.746 6.218-12.441 20.354-25.445 31.664-33.926 10.173-8.481 27.133-19.225 39.573-18.658 7.92 1.696 11.88 7.916 11.306 14.7-1.12 5.089-3.386 8.482-5.08 9.047-4.52 4.523-10.173-1.697-6.786-5.654 0-1.13.56-3.394.56-4.524 0-2.261-7.347 0-9.04 0-7.92 3.393-16.4 9.613-23.186 14.7-9.04 7.351-22.616 18.659-27.703 28.837-1.696 5.654-1.132 10.178 0 11.873 1.697 2.263 8.48 1.698 10.743 1.698 9.613-2.828 18.093-6.22 26.573-10.179 8.48-5.088 20.92-13.57 27.706-21.484 1.693-5.09 4.52-9.047 6.786-12.44 3.387-5.09 6.787-8.481 10.174-11.31 3.4-2.26 7.92-1.695 9.613 1.133 2.266 1.696 2.266 5.088.573 7.35-3.4 6.785-7.36 11.873-13.573 16.962-5.093 10.178-3.96 19.79-1.693 23.183 5.08 8.48 18.653 10.176 28.266 10.176 15.266.566 37.319-1.13 52.585-2.826"/><path d="M1532.495 283.873c-11.866 5.089-28.266 11.874-40.706 12.438-6.786 1.132-13.573 1.132-19.786-2.261-3.4-2.827-5.653-6.22-8.48-15.266-3.4-18.659-3.4-54.28-2.266-72.939 0-22.051 2.266-64.457 5.653-85.943 1.693-7.35 13-5.089 13 2.827-4.52 18.66-6.214 65.024-6.214 84.812-.56 16.963-1.693 52.584 1.694 69.547 1.693 6.785 1.693 7.35 9.613 9.046 6.786 1.13 15.266 1.13 19.226 0 11.306-.566 21.493-1.696 28.266-2.261"/></g><g clip-path="url(#n)" transform="matrix(.1333 0 0 -.1333 0 412)"><path d="M6193.1 1469.9c-4.24-203.56-139.95-381.67-292.61-508.89-178.11-152.66-398.63-254.44-614.9-322.29-224.76-72.101-453.76-101.78-687.01-110.26-178.1 0-330.77 12.718-457.99 38.16-148.43 33.93-326.54 89.058-441.04 186.59-67.85 63.621-118.74 144.19-106.01 233.25 12.72 89.05 76.33 165.39 144.18 199.31-16.96-50.89-55.13-135.7-55.13-203.55 0-63.621 25.45-114.5 76.34-161.15 101.77-80.578 267.16-127.22 394.38-152.67 144.19-25.441 296.85-38.16 445.27-29.68 245.97 4.239 462.25 38.168 653.08 93.289 212.03 63.622 419.83 165.39 585.22 301.1 135.7 114.49 262.93 267.16 267.16 445.27 0 101.78-38.16 190.83-114.5 267.17-101.78 101.77-241.72 156.9-381.66 182.35-267.17 72.09-610.66 59.37-882.07 33.92-313.82-33.92-521.61-97.53-619.15-110.26-38.16-4.24-76.33 0-89.05 38.17 0 25.45 12.72 46.65 33.92 63.61 42.41 46.65 538.58 377.42 750.61 517.37 296.85 195.07 398.63 258.68 513.13 279.89 50.89 4.23 101.78 0 139.95-38.17 72.09-63.61-50.89-50.88-50.89-59.37 0 0-29.69 12.72-76.34 0-89.05-12.72-178.11-63.61-474.96-258.68-186.59-127.22-458-305.34-619.14-419.84 161.14 38.17 318.05 63.62 479.2 76.34 284.13 29.68 640.35 38.16 920.23-25.45 152.67-38.16 305.33-101.78 419.83-216.27 97.54-97.54 148.43-216.28 139.95-339.26" fill="url(#o)"/></g><g clip-path="url(#p)" transform="matrix(.1333 0 0 -.1333 0 412)"><path d="M7215 1291.8c-38.17 76.33-106.02 152.66-182.36 186.59-33.92 12.72-76.32 16.96-114.49 0-38.17-12.73-63.61-46.65-89.06-76.33-46.65-76.34-72.09-190.84-97.53-275.65-16.97-89.06-29.69-190.83-42.41-284.13 93.29 29.684 182.35 55.133 279.89 101.78 80.57 29.679 131.46 63.61 156.91 80.57 46.64 38.17 101.77 97.54 114.49 152.67 8.48 38.16-4.24 76.33-25.44 114.5zm-610.67-534.33c-25.44-4.25-50.88-12.719-76.33-12.719 8.48-55.133 8.48-156.91 12.72-229.01 0-63.609 8.49-156.9 12.73-220.51 8.48 55.129 21.2 190.83 25.44 254.44 21.21 144.19 21.21 152.66 25.44 207.8zm725.17 402.86c-16.96-89.05-80.58-148.42-156.91-190.83-46.64-33.922-101.78-63.609-173.87-97.539-101.78-38.16-207.79-67.852-322.3-101.77-8.47-76.328-12.72-152.67-25.44-233.24-21.2-262.93-21.2-212.04-25.44-301.09-8.48-38.172-8.48-80.582-21.21-114.5-16.96-50.89-38.16-72.09-63.61-80.582 0 0-55.13-12.719-63.61 55.133-4.24 25.449-4.24 84.82-12.72 114.5-4.24 101.78-12.72 203.56-16.96 301.09-8.49 195.08-12.72 394.39-25.45 597.94 0 67.86 0 229.01 4.24 292.62 8.49 42.4 33.93 50.89 33.93 50.89 38.17 16.96 80.57-25.45 55.13-63.61v-275.65c0-89.06 8.48-169.63 12.72-309.58 25.45 4.25 59.37 12.731 84.82 16.969 12.72 101.77 29.68 212.04 55.13 318.05 21.2 101.78 50.89 212.04 97.53 292.61 29.68 50.89 67.85 101.78 118.74 127.23 59.37 25.44 122.99 25.44 178.11 0 101.78-38.17 190.83-127.23 237.48-220.52 29.69-59.38 42.41-114.5 29.69-178.12" fill="url(#o)"/></g><g clip-path="url(#q)" transform="matrix(.1333 0 0 -.1333 0 412)"><path d="M8741.7 969.46c-122.98-33.922-267.16-72.09-394.39-76.332-101.77-8.481-216.27 0-275.64 80.57-25.45 33.931-42.41 76.341-42.41 122.98-46.64-38.16-101.78-76.33-161.15-110.25-63.61-38.168-131.46-67.86-207.79-89.059-63.61-12.723-127.23-12.723-165.39 33.93-46.65 42.398-38.16 118.74-21.2 178.1 46.64 93.31 152.67 190.84 237.48 254.45 76.33 63.61 203.55 144.19 296.85 139.94 59.37-12.72 89.05-59.37 84.81-110.25-8.48-38.17-25.44-63.62-38.16-67.86-33.93-33.92-76.34 12.73-50.89 42.41 0 8.48 4.24 25.45 4.24 33.93 0 16.96-55.13 0-67.86 0-59.36-25.45-122.97-72.1-173.86-110.26-67.85-55.13-169.63-139.94-207.8-216.28-12.72-42.4-8.48-76.332 0-89.05 12.72-16.969 63.61-12.731 80.58-12.731 72.09 21.211 135.7 46.651 199.31 76.341 63.61 38.16 156.91 101.78 207.79 161.14 12.72 38.17 33.93 67.85 50.89 93.3 25.45 38.17 50.89 63.61 76.34 84.82 25.44 16.96 59.37 12.72 72.09-8.49 16.96-12.72 16.96-38.16 4.24-55.13-25.45-50.89-55.13-89.05-101.78-127.22-38.17-76.33-29.68-148.42-12.72-173.87 38.17-63.61 139.94-76.328 212.03-76.328 114.51-4.242 279.9 8.476 394.39 21.199" fill="url(#o)"/></g><g clip-path="url(#r)" transform="matrix(.1333 0 0 -.1333 0 412)"><path d="M9433 1554.7c-127.23-72.09-322.3-139.94-508.89-165.38 12.72-351.99 25.44-394.39 25.44-445.28-4.24-33.93-12.72-63.61-38.16-72.098-25.45-4.231-50.89 8.488-55.13 33.93-8.49 12.718-8.49 29.687 4.24 42.41 0 0-16.96 292.61-25.45 432.55-55.13-4.24-114.49-4.24-165.38 8.49-50.89 12.72-101.78 25.44-131.47 63.61-25.44 16.96-38.16 50.88-46.65 76.33 0 25.44 21.21 50.89 46.65 50.89 38.17 4.24 38.17-33.93 50.89-46.65 16.97-29.69 63.62-42.41 93.3-50.89 50.89-12.72 101.78-12.72 148.42-12.72 0 165.38-12.72 542.81 12.73 699.72 4.23 63.61 93.29 50.89 89.05 0 0-42.41-25.44-139.95-8.48-691.24 161.14 12.72 241.72 25.44 508.89 76.33" fill="url(#o)"/></g><g clip-path="url(#s)" transform="matrix(.1333 0 0 -.1333 0 412)"><path d="M9555.9 1826.1c4.24 25.44 38.17 38.17 63.61 33.92 25.44-8.48 42.41-33.92 38.16-59.37 0-4.23-12.72-25.44-12.72-25.44-8.48-29.68 25.45-29.68 4.25-55.13-12.73-21.2-29.69-25.44-50.89-12.72-16.96 12.72-29.69 29.68-42.41 50.89-8.48 38.17 0 63.61 0 67.85zm309.57-877.83c-38.17-25.453-93.29-42.41-127.22-55.133-42.41-12.719-131.46-46.649-203.55-25.438-50.89 12.719-67.86 55.118-89.06 106.01-16.96 76.341-16.96 262.93-16.96 368.95 0 63.61 93.29 72.09 93.29 12.72-4.24-106.02-4.24-284.13 12.73-356.22 12.72-25.449 21.2-42.41 46.65-55.128 25.44-25.45 106.01-12.719 152.66-8.481 42.4 8.481 93.29 12.723 131.46 12.723" fill="url(#o)"/></g><g clip-path="url(#t)" transform="matrix(.1333 0 0 -.1333 0 412)"><path d="M11112 969.46c-123-33.922-267.2-72.09-394.4-76.332-101.8-8.481-216.3 0-275.7 80.57-25.4 33.931-42.4 76.341-42.4 122.98-46.6-38.16-101.7-76.33-161.1-110.25-63.6-38.168-131.5-67.86-207.8-89.059-63.62-12.723-127.23-12.723-165.39 33.93-46.65 42.398-38.17 118.74-21.2 178.1 46.64 93.31 152.66 190.84 237.49 254.45 76.3 63.61 203.5 144.19 296.8 139.94 59.4-12.72 89.1-59.37 84.8-110.25-8.4-38.17-25.4-63.62-38.1-67.86-33.9-33.92-76.3 12.73-50.9 42.41 0 8.48 4.2 25.45 4.2 33.93 0 16.96-55.1 0-67.8 0-59.4-25.45-123-72.1-173.9-110.26-67.8-55.13-169.62-139.94-207.78-216.28-12.72-42.4-8.49-76.332 0-89.05 12.73-16.969 63.6-12.731 80.58-12.731 72.1 21.211 135.7 46.651 199.3 76.341 63.6 38.16 156.9 101.78 207.8 161.14 12.7 38.17 33.9 67.85 50.9 93.3 25.4 38.17 50.9 63.61 76.3 84.82 25.5 16.96 59.4 12.72 72.1-8.49 17-12.72 17-38.16 4.3-55.13-25.5-50.89-55.2-89.05-101.8-127.22-38.2-76.33-29.7-148.42-12.7-173.87 38.1-63.61 139.9-76.328 212-76.328 114.5-4.242 279.9 8.476 394.4 21.199" fill="url(#o)"/></g><g clip-path="url(#u)" transform="matrix(.1333 0 0 -.1333 0 412)"><path d="M11494 960.98c-89-38.171-212-89.058-305.3-93.289-50.9-8.492-101.8-8.492-148.4 16.957-25.5 21.204-42.4 46.653-63.6 114.5-25.5 139.94-25.5 407.11-17 547.05 0 165.39 17 483.44 42.4 644.59 12.7 55.13 97.5 38.17 97.5-21.2-33.9-139.95-46.6-487.69-46.6-636.11-4.2-127.22-12.7-394.39 12.7-521.61 12.7-50.89 12.7-55.132 72.1-67.85 50.9-8.481 114.5-8.481 144.2 0 84.8 4.242 161.2 12.718 212 16.96" fill="url(#o)"/></g></svg>