<?xml version="1.0" encoding="utf-8"?>
<!DOCTYPE svg PUBLIC "-//W3C//DTD SVG 1.1//EN" "http://www.w3.org/Graphics/SVG/1.1/DTD/svg11.dtd">
<svg version="1.1" id="Tiny_Logo" xmlns="http://www.w3.org/2000/svg" xmlns:xlink="http://www.w3.org/1999/xlink" x="0px" y="0px"
	 width="175px" height="60px" viewBox="0 0 175 60" style="enable-background:new 0 0 175 60;" xml:space="preserve">
<style type="text/css">
	.st1{display:inline;fill:url(#Darmstadt_x2C__Germany_1_);}
	.st6{fill:#FFFFFF;}
</style>
<g>
	<path id="Darmstadt_x2C__Germany_9_" class="st6" d="M85.9,46.1c-0.7,0-1-0.2-1-0.6c0-0.3,0.3-0.5,1-0.5c0.5,0,1,0.2,1.3,0.5
		l0.8-0.9c-0.6-0.5-1.2-0.7-2.1-0.7c-1,0-2.3,0.5-2.3,1.7c0,1.2,1.2,1.6,2.2,1.7c0.8,0,1.1,0.2,1.1,0.6c0,0.4-0.5,0.6-1,0.6
		c-0.6,0-1.5-0.3-1.8-0.8l-0.7,0.9c0.8,0.8,1.6,1,2.5,1c1.5,0,2.3-0.8,2.3-1.8C88.2,46.4,86.9,46.2,85.9,46.1z M91.6,48.3
		c-0.4,0-0.7-0.2-0.7-0.8v-2.3h1.5v-1.1h-1.5v-1.5l-1.3,0.1v1.4h-1v1.1h1v2.3c0,1.3,0.8,2,1.9,2c0.4,0,0.7-0.1,1.1-0.2l-0.4-1.1
		C92.1,48.3,91.8,48.3,91.6,48.3z M68.1,44.8c-0.4-0.5-1-0.9-1.6-0.9c0,0-0.1,0-0.1,0c-1.6,0-2.8,0.9-2.8,2.8c0,1.9,1.2,2.8,2.8,2.8
		c0.6,0,1.4-0.3,1.7-0.9l0.1,0.8h1.2v-5.4h-1.3L68.1,44.8z M66.5,48.4C66.4,48.4,66.4,48.4,66.5,48.4c-0.1,0-0.1,0-0.2,0
		c-0.8-0.1-1.5-0.8-1.4-1.6c0-0.1,0-0.1,0-0.2c0-0.8,0.7-1.5,1.6-1.5C68.5,45.1,68.5,48.4,66.5,48.4z M97.3,44.8
		c-0.4-0.5-1-0.9-1.6-0.9c0,0-0.1,0-0.1,0c-1.6,0-2.8,0.9-2.8,2.8c0,1.9,1.2,2.8,2.8,2.8c0.6,0,1.4-0.3,1.7-0.9l0.1,0.8h1.2v-5.4
		h-1.3L97.3,44.8z M95.8,48.4c-0.1,0-0.1,0-0.2,0c-0.8-0.1-1.5-0.8-1.4-1.6c0-0.1,0-0.1,0-0.2c0-0.8,0.7-1.5,1.6-1.5
		C97.8,45.1,97.8,48.4,95.8,48.4z M80.6,44c-0.7,0-1.4,0.3-1.8,1c-0.2-0.6-0.8-1-1.5-1c0,0-0.1,0-0.1,0c-0.5,0-1.1,0.2-1.4,0.7
		l-0.1-0.7h-1.2v5.4h1.3v-2.9c0-0.7,0.4-1.3,1.1-1.3c0.7,0,1.1,0.6,1.1,1.3v2.9l1.3,0v-2.9c0-0.7,0.4-1.3,1.2-1.3c0.7,0,1,0.6,1,1.3
		v2.9h1.3v-2.9C82.9,44.9,82.1,44,80.6,44z M58.9,41.8h-3v7.6h3c2.7,0,3.8-1.9,3.8-3.9C62.7,43.7,61.5,41.8,58.9,41.8z M58.9,48.1
		h-1.6v-4.9h1.6c1.6,0,2.3,1.2,2.4,2.4C61.3,46.8,60.6,48.1,58.9,48.1z M73.2,44c-0.5,0-1.1,0.1-1.5,0.8l-0.1-0.6h-1.2v5.4h1.3v-2.8
		c0-1,0.6-1.4,1.3-1.4c0.2,0,0.4,0,0.6,0.1l0-1.4C73.5,44,73.4,44,73.2,44z M147.7,44.8c-0.3-0.5-1-0.9-1.7-0.9c0,0,0,0,0,0
		c-1.6,0-2.8,0.9-2.8,2.9c0,1.9,1.2,2.9,2.8,2.9c0.6,0,1.5-0.3,1.8-1l0.1,0.8h1.3v-5.4h-1.3L147.7,44.8z M146.1,48.4
		C146.1,48.4,146.1,48.4,146.1,48.4c-0.1,0-0.1,0-0.2,0c-0.9-0.1-1.5-0.8-1.5-1.7h0c0-0.1,0-0.1,0-0.2c0-0.9,0.8-1.5,1.6-1.5
		C148.2,45.1,148.2,48.4,146.1,48.4z M153.3,44c-0.7,0-1.2,0.3-1.8,0.8l-0.1-0.7h-1.2v5.5h1.3v-2.8c0-0.8,0.5-1.5,1.4-1.5
		c0.9,0,1.3,0.6,1.3,1.5v2.9l1.3,0v-2.9C155.6,44.9,154.5,44,153.3,44z M131.7,43.9c-0.6,0-1.1,0.1-1.5,0.8l-0.1-0.6h-1.2v5.4h1.3
		v-2.9c0-1,0.7-1.4,1.4-1.4c0.4,0,0.7,0.1,1,0.4l0.6-1.2C132.7,44.1,132.2,43.9,131.7,43.9C131.7,43.9,131.7,43.9,131.7,43.9z
		 M139.8,44c-0.7,0-1.5,0.3-1.8,1c-0.3-0.6-0.9-1-1.5-1c0,0-0.1,0-0.1,0c-0.5,0-1.1,0.2-1.4,0.8l-0.1-0.7h-1.2v5.5h1.3v-2.9
		c0-0.7,0.4-1.4,1.2-1.4s1.1,0.7,1.1,1.4v2.9l1.3,0v-2.9c0-0.7,0.5-1.3,1.2-1.3c0.7,0,1,0.6,1,1.3v2.9h1.3v-2.9
		C142.1,44.9,141.3,44,139.8,44z M160.4,44.1l-1,2.4l-0.6,1.5l-0.5-1.5l-0.8-2.4h-1.6l2.2,5.4l-1,2.4h1.5l3.3-7.7H160.4z M125,43.9
		c-1.8,0-2.9,1.2-2.9,2.9c0,1.7,1.1,2.9,3,2.9c0.8,0,1.8-0.3,2.3-0.9l-0.9-0.8c-0.3,0.3-1,0.5-1.5,0.5c-1,0-1.5-0.5-1.6-1.2h4.3
		C127.9,45,126.8,43.9,125,43.9z M123.5,46.2c0.2-0.7,0.8-1.1,1.5-1.1c0.8,0,1.3,0.4,1.4,1.1H123.5z M108.8,48.3
		c-0.4,0-0.7-0.2-0.7-0.8v-2.3h1.5v-1.1h-1.5v-1.5l-1.3,0.1v1.4h-1v1.1h1v2.3c0,1.3,0.8,2,1.9,2c0.4,0,0.7-0.1,1.1-0.2l-0.4-1.1
		C109.3,48.3,109,48.3,108.8,48.3z M103.9,44.8c-0.3-0.6-1.2-0.9-1.8-0.9c-1.6,0-2.7,1-2.7,2.8c0,1.8,1.2,2.8,2.8,2.8
		c0.7,0,1.3-0.3,1.7-0.9l0.1,0.7h1.2v-7.6h-1.3V44.8z M103.8,46.8c0,0.8-0.7,1.5-1.5,1.5c0,0,0,0,0,0c-0.8,0-1.5-0.7-1.5-1.5
		c0-0.1,0-0.1,0-0.2c0-0.8,0.7-1.4,1.5-1.4c0,0,0,0,0.1,0C103.2,45.2,103.8,45.9,103.8,46.8L103.8,46.8z M111.8,48.2
		c-0.4,0-0.8,0.2-0.8,0.7c0,0.3,0.2,0.6,0.5,0.6l-0.2,1.1h0.8c0.5-1.6,0.5-1.5,0.5-1.7C112.6,48.4,112.2,48.2,111.8,48.2z
		 M117.8,46.3h2v1.4c-0.5,0.4-1.1,0.6-1.7,0.6c-1.9,0-2.7-1.3-2.7-2.6c0-1.6,1-2.9,2.7-2.9c0.7,0,1.4,0.3,2,0.8l0.9-0.9
		c-0.8-0.8-1.8-1.2-2.9-1.2c-2.7,0-4.1,2-4.1,4.2c0,2,1.2,3.9,4.1,3.9c1.2,0,2.3-0.5,3.1-1.4V45h-3.3V46.3z"/>
	<g id="Drupal_Europe_11_">
		<g>
			<path class="st6" d="M69.3,30.1l-0.1-0.9h-1.9v8.1h2V33c0-1.5,1-2.1,2-2.1c0.4,0,0.9,0.1,1.2,0.3l0-2.2C72.2,29,71.9,29,71.6,29
				C70.8,29,69.9,29.1,69.3,30.1z M60.5,25.8h-4.5v11.5h4.5c4,0,5.8-2.9,5.8-5.9C66.2,28.6,64.4,25.8,60.5,25.8z M60.5,35.2h-2.4
				v-7.4h2.4c2.5,0,3.6,1.8,3.6,3.6C64.1,33.3,63.1,35.2,60.5,35.2z M79.6,33.3c0,1.2-0.8,2.3-2.1,2.3c-1.3,0-2-0.9-2-2.2v-4.2h-2
				v4.3c0,2.5,1.4,4,3.4,4c1.1,0,1.9-0.4,2.8-1.2l0.1,1.1h1.8v-8.1h-2V33.3z M99.4,30.3c-0.5-0.8-1.5-1.3-2.6-1.3
				c-2.4,0-4.2,1.4-4.2,4.2c0,2.8,1.8,4.3,4.2,4.3c0.9,0,2.2-0.5,2.6-1.4l0.1,1.2h1.9v-8.1h-1.9L99.4,30.3z M96.9,35.7
				c-1.3,0-2.4-0.9-2.4-2.5l0,0c0-1.5,1.1-2.5,2.4-2.5C100.1,30.8,100.1,35.7,96.9,35.7z M87.5,29c-1,0-2,0.5-2.6,1.3l-0.1-1.1h-1.9
				v11.5l2,0v-4.3c0.6,0.9,1.8,1.2,2.7,1.2c2.6,0,4.1-1.9,4.1-4.2C91.7,30.9,90,29,87.5,29z M87.3,35.6c-1.3,0-2.3-1-2.3-2.3
				c0-1.3,0.9-2.3,2.3-2.3c1.4,0,2.3,1,2.3,2.3C89.6,34.5,88.6,35.6,87.3,35.6z M148.2,29c-1,0-2,0.5-2.6,1.3l-0.1-1.1h-1.9v11.5
				l2,0v-4.3c0.6,0.9,1.8,1.2,2.7,1.2c2.6,0,4.1-1.9,4.1-4.2C152.4,30.9,150.7,29,148.2,29z M148,35.6c-1.3,0-2.3-1-2.3-2.3
				c0-1.3,0.9-2.3,2.3-2.3c1.4,0,2.3,1,2.3,2.3C150.3,34.5,149.3,35.6,148,35.6z M138.2,29c-2.6,0-4.2,1.9-4.2,4.2
				c0,2.3,1.6,4.2,4.2,4.2c2.6,0,4.2-1.9,4.2-4.2C142.5,30.9,140.8,29,138.2,29z M138.3,35.6c-1.5,0-2.2-1.2-2.2-2.4
				c0-1.2,0.8-2.4,2.2-2.4c1.3,0,2.2,1.2,2.2,2.4C140.5,34.5,139.7,35.6,138.3,35.6z M157.6,28.9c-2.6,0-4.3,1.8-4.3,4.2
				c0,2.6,1.7,4.3,4.5,4.3c1.2,0,2.6-0.4,3.5-1.3l-1.3-1.3c-0.5,0.5-1.4,0.8-2.2,0.8c-1.4,0-2.3-0.7-2.4-1.7h6.3
				C162,30.6,160.3,28.9,157.6,28.9z M155.4,32.3c0.3-1.1,1.2-1.6,2.3-1.6c1.2,0,2,0.5,2.1,1.6H155.4z M108.2,37.3h8.6v-2.1h-6.5
				v-2.6h6.2v-2h-6.2v-2.7h6.5v-2.1h-8.6V37.3z M102.7,37.3h2V25.8h-2V37.3z M124.2,33.3c0,1.2-0.8,2.3-2.1,2.3c-1.3,0-2-0.9-2-2.2
				v-4.2h-2v4.3c0,2.5,1.4,4,3.4,4c1.1,0,1.9-0.4,2.8-1.2l0.1,1.1h1.8v-8.1h-2V33.3z M132,29c-0.8,0-1.7,0.1-2.3,1.2l-0.1-0.9h-1.9
				v8.1h2V33c0-1.5,1-2.1,2-2.1c0.5,0,1,0.2,1.4,0.5c0.3-0.6,0.6-1.2,1-1.7C133.5,29.2,132.8,29,132,29z"/>
		</g>
	</g>
	<path id="Signet" class="st6" d="M26.9,27.9l-0.4-1.6l-0.4,0.4c-0.4,0.4-0.9,0.9-1.3,1.3l0.9,1.1C26,28.8,26.5,28.4,26.9,27.9z
		 M27,39.2c-0.5-0.2-1-0.5-1.4-0.8l-0.8,1.3c0.6,0.4,1.2,0.8,1.9,1L27,39.2z M23.7,29.3c-0.5,0.7-0.9,1.4-1.3,2.2l1.5,0.2
		c0.2-0.5,0.5-1,0.8-1.4L23.7,29.3z M24.4,37.1c-0.3-0.5-0.6-1-0.7-1.6l-1.3,0.9c0.3,0.7,0.6,1.4,1.1,2L24.4,37.1z M35.5,36.5
		l-1.3-0.9c-0.2,0.6-0.4,1.1-0.7,1.6l0.9,1.3C34.9,37.9,35.2,37.2,35.5,36.5z M23.5,34.4c0-0.1,0-0.2,0-0.3c0-0.4,0-0.8,0.1-1.2
		l-1.5-0.1c-0.2,0.8-0.2,1.6,0,2.4L23.5,34.4z M35.4,31.5c-0.3-0.8-0.7-1.5-1.2-2.2l-1,1c0.3,0.4,0.6,0.9,0.8,1.4L35.4,31.5z
		 M33.1,39.7l-0.8-1.3c-0.4,0.3-0.9,0.6-1.4,0.8l0.4,1.5C31.9,40.4,32.5,40.1,33.1,39.7z M35.8,32.8l-1.5,0.1
		c0.1,0.4,0.1,0.8,0.1,1.2c0,0.1,0,0.2,0,0.3l1.4,0.8C35.9,34.4,35.9,33.6,35.8,32.8z M31.8,26.7l-0.4-0.4L31,28
		c0.4,0.4,0.8,0.8,1.2,1.3l0.9-1.1C32.7,27.6,32.3,27.2,31.8,26.7z M28.5,39.5L28.2,41c0.5,0.1,1,0.1,1.5,0l-0.3-1.5
		c-0.2,0-0.3,0-0.5,0C28.8,39.5,28.6,39.5,28.5,39.5z M30,24.8c-0.5-0.6-0.9-1.2-1.1-2c-0.2,0.7-0.6,1.4-1.1,2
		c0.1,0.7,0.2,1.3,0.2,1.9c0.3-0.3,0.6-0.6,0.8-0.9c0.3,0.3,0.6,0.6,0.8,0.9C29.9,26.1,29.9,25.5,30,24.8z M22,40.5
		c-0.8-0.8-1.4-1.7-1.8-2.7l-2.2,1.5c0.6,1.3,1.5,2.5,2.5,3.5L22,40.5z M43.5,30l2.9-0.5c-0.7-3.1-2.3-5.8-4.1-8.2l-2.1,2
		C41.7,25.4,42.9,27.6,43.5,30z M27.2,46.1c1.1,0.2,2.2,0.2,3.4,0l-0.5-2.7c-0.8,0.1-1.6,0.1-2.4,0L27.2,46.1z M21.8,27.2l-1.8-1.8
		c-1.2,1.5-2.1,3.1-2.7,5l2.6,0.4C20.3,29.6,20.9,28.3,21.8,27.2z M16.7,34c0,1.3,0.2,2.5,0.6,3.7l2.3-1.3c-0.2-0.8-0.3-1.7-0.3-2.5
		c0-0.5,0-1,0.1-1.4l-2.6-0.1C16.8,32.9,16.7,33.4,16.7,34z M28.9,14.3c-0.3,1.2-1,2.4-2,3.5c0.1,1.1,0.3,2.2,0.4,3.3
		c0.5-0.5,1-1.1,1.5-1.6c0.5,0.5,1,1.1,1.5,1.6c0.1-1,0.3-2.1,0.4-3.3C30,16.7,29.3,15.5,28.9,14.3z M26.7,48.8l-0.5,2.7
		c1.7,0.3,3.5,0.3,5.3,0L31,48.8C29.6,49,28.2,49,26.7,48.8z M15.6,40.9l-2.4,1.6c1,1.9,2.4,3.5,4,4.9l1.6-2.3
		C17.5,43.9,16.4,42.5,15.6,40.9z M19.1,48.8c1.6,1,3.3,1.8,5.1,2.3l0.6-2.7c-1.5-0.4-3-1.1-4.3-2C20.1,47.2,19.6,48,19.1,48.8z
		 M13.9,33.9c0-0.5,0-1.1,0.1-1.6l-2.9-0.1c0,0.5-0.1,1.1-0.1,1.7v0c0,2.3,0.5,4.6,1.3,6.7l2.5-1.4C14.2,37.5,13.9,35.7,13.9,33.9z
		 M34.5,41.7c-0.8,0.6-1.7,1-2.7,1.3l0.6,2.6c1.2-0.4,2.4-0.9,3.5-1.7L34.5,41.7z M17.7,23.4l-2.1-2c-1.9,2.4-3.4,5.1-4.1,8.2
		l2.9,0.5C15,27.6,16.2,25.4,17.7,23.4z M33,48.4l0.6,2.7c1.8-0.5,3.5-1.3,5.1-2.3c-0.5-0.8-1-1.6-1.5-2.4
		C36,47.3,34.6,47.9,33,48.4z M46.8,32.1l-2.9,0.1c0.1,0.5,0.1,1.1,0.1,1.6c0,1.8-0.3,3.6-1,5.3l2.5,1.4c0.9-2.2,1.3-4.5,1.3-6.8
		C46.9,33.2,46.9,32.7,46.8,32.1z M39,45.1l1.6,2.3c1.6-1.4,3-3.1,4-4.9l-2.4-1.6C41.4,42.5,40.3,43.9,39,45.1z M28.9,11.3
		c0.8,0.9,1.7,1.8,2.5,2.6c0.2-1.2,0.3-2.5,0.5-3.7c-1.4-1.7-2.5-3.5-3-5.3c-0.5,1.9-1.6,3.6-3,5.3c0.2,1.2,0.3,2.5,0.5,3.7
		C27.3,13,28.1,12.2,28.9,11.3z M24.1,16.3l-0.8-3.2c-0.6,0.6-1.2,1.2-1.8,1.8c-1.3,1.3-2.7,2.7-4,4.2l1.8,2.3
		C20.8,19.6,22.4,17.9,24.1,16.3z M40.3,19c-1.3-1.5-2.7-2.9-4-4.2c-0.6-0.6-1.2-1.2-1.7-1.8l-0.8,3.2c1.7,1.7,3.3,3.3,4.7,5
		L40.3,19z M40.6,30.5c-0.6-1.9-1.5-3.5-2.7-5l-1.8,1.8c0.8,1.1,1.5,2.4,1.9,3.7L40.6,30.5z M36.5,23.7c-0.8-0.9-1.7-1.8-2.6-2.6
		c-0.4-0.4-0.7-0.7-1.1-1.1l-0.7,2.8c1,1,1.9,1.9,2.7,2.9L36.5,23.7z M41.1,34c0-0.5,0-1.1-0.1-1.6l-2.6,0.1
		c0.1,0.5,0.1,0.9,0.1,1.4c0,0.8-0.1,1.7-0.3,2.5l2.3,1.3C41,36.5,41.2,35.2,41.1,34z M39.9,39.3l-2.2-1.5c-0.5,1-1.1,1.9-1.8,2.7
		l1.5,2.2C38.5,41.7,39.3,40.6,39.9,39.3z M21.4,23.7l1.6,2c0.8-1,1.8-1.9,2.7-2.9L25,20c-0.4,0.4-0.7,0.7-1.1,1.1
		C23.1,21.9,22.2,22.8,21.4,23.7z M22,44c1.1,0.7,2.2,1.3,3.5,1.7l0.6-2.6c-1-0.3-1.9-0.7-2.7-1.3L22,44z"/>
</g>
</svg>
