<?xml version="1.0" encoding="UTF-8" standalone="no"?>
<svg
   xmlns:dc="http://purl.org/dc/elements/1.1/"
   xmlns:cc="http://creativecommons.org/ns#"
   xmlns:rdf="http://www.w3.org/1999/02/22-rdf-syntax-ns#"
   xmlns:svg="http://www.w3.org/2000/svg"
   xmlns="http://www.w3.org/2000/svg"
   viewBox="0 0 287.51999 343.35999"
   height="343.35999"
   width="287.51999"
   xml:space="preserve"
   id="svg2"
   version="1.1"><metadata
     id="metadata8"><rdf:RDF><cc:Work
         rdf:about=""><dc:format>image/svg+xml</dc:format><dc:type
           rdf:resource="http://purl.org/dc/dcmitype/StillImage" /></cc:Work></rdf:RDF></metadata><defs
     id="defs6"><clipPath
       id="clipPath26"
       clipPathUnits="userSpaceOnUse"><path
         style="clip-rule:evenodd"
         id="path24"
         d="m 943.313,1669.79 c 412.607,283.9 599.067,276.25 870.257,91.35 271.19,-184.9 288.45,-724.81 244.07,-902.308 C 2013.26,681.32 1946.7,435.672 1729.75,240.469 1512.8,45.2695 1419.12,97.0391 1347.62,99.5117 1276.13,101.969 1118.35,121.691 1051.78,134.02 985.223,146.352 940.848,138.949 921.117,121.691 901.398,104.441 854.559,58.832 751.012,91.4883 647.473,124.16 395.836,280.238 253.246,523.539 159.332,683.789 73.0469,888.41 80.4453,1068.38 c 7.3945,179.97 65.2887,451.9 253.9257,576.89 193.492,128.2 283.516,140.38 608.942,24.52 z" /></clipPath><clipPath
       id="clipPath46"
       clipPathUnits="userSpaceOnUse"><path
         style="clip-rule:evenodd"
         id="path44"
         d="m 868.473,1032.34 c 190.117,3.8 301.837,-99.07 416.387,-177 40.84,-27.781 77.77,-61.039 132.66,-75.32 57.46,-14.938 106.61,30.031 136.33,48.96 45.39,28.911 89.43,51.911 132.66,82.852 42.18,30.188 87.46,68.039 143.71,82.848 49.72,13.1 87.16,-13.809 106.86,-33.891 71.89,-73.328 60.05,-239.801 18.42,-342.699 -24.72,-61.11 -62.77,-119.738 -114.23,-154.399 -14.37,-9.691 -42.9,-27.793 -73.7,-18.839 -25.3,7.359 -40.68,27.468 -58.95,41.429 -74.19,56.66 -158.93,188.739 -250.57,214.66 -65.35,18.481 -173.5,-63.41 -210.04,-86.621 C 1146.04,549.539 1038.15,481.461 912.691,444.852 856.516,428.461 751.797,431.02 698.973,448.621 625.41,473.141 572.258,520.609 544.211,591.73 c -57.383,145.5 45.902,307.141 117.914,361.532 34.125,25.769 78.238,49.428 121.598,64.018 28.246,5.02 56.504,10.04 84.75,15.06 z" /></clipPath></defs><g
     transform="matrix(1.3333333,0,0,-1.3333333,0,343.36)"
     id="g10"><g
       transform="scale(0.1)"
       id="g12"><path
         id="path14"
         style="fill:#3370c0;fill-opacity:1;fill-rule:nonzero;stroke:none"
         d="m 951.191,1706.37 c 46.418,302.94 193.609,557.58 307.019,706.6 l -45.39,58.64 C 1012.5,2232.19 948.98,1965.9 941.652,1904.83 819.496,2383.66 460.379,2347.01 333.34,2334.8 457.938,2061.18 768.195,1841.31 909.891,1804.66 l 9.773,-73.29 31.527,-25" /><path
         id="path16"
         style="fill:none;stroke:#231f20;stroke-width:130;stroke-linecap:butt;stroke-linejoin:miter;stroke-miterlimit:10;stroke-dasharray:none;stroke-opacity:1"
         d="m 951.191,1706.37 c 46.418,302.94 193.609,557.58 307.019,706.6 l -45.39,58.64 C 1012.5,2232.19 948.98,1965.9 941.652,1904.83 819.496,2383.66 460.379,2347.01 333.34,2334.8 457.938,2061.18 768.195,1841.31 909.891,1804.66 l 9.773,-73.29 z" /><path
         id="path18"
         style="fill:none;stroke:#231f20;stroke-width:160;stroke-linecap:butt;stroke-linejoin:miter;stroke-miterlimit:10;stroke-dasharray:none;stroke-opacity:1"
         d="m 943.313,1669.79 c 412.607,283.9 599.067,276.25 870.257,91.35 271.19,-184.9 288.45,-724.81 244.07,-902.308 C 2013.26,681.32 1946.7,435.672 1729.75,240.469 1512.8,45.2695 1419.12,97.0391 1347.62,99.5117 1276.13,101.969 1118.35,121.691 1051.78,134.02 985.223,146.352 940.848,138.949 921.117,121.691 901.398,104.441 854.559,58.832 751.012,91.4883 647.473,124.16 395.836,280.238 253.246,523.539 159.332,683.789 73.0469,888.41 80.4453,1068.38 c 7.3945,179.97 65.2887,451.9 253.9257,576.89 193.492,128.2 283.516,140.38 608.942,24.52 z" /><g
         id="g20"><g
           clip-path="url(#clipPath26)"
           id="g22"><path
             id="path28"
             style="fill:#255693;fill-opacity:1;fill-rule:nonzero;stroke:none"
             d="m 2347.78,942.281 c 0,-627.39 -555.64,-1136 -1241.05,-1136 -685.41,0 -1241.046,508.61 -1241.046,1136 0,627.399 555.636,1135.999 1241.046,1135.999 685.41,0 1241.05,-508.6 1241.05,-1135.999" /><path
             id="path30"
             style="fill:#3370c0;fill-opacity:1;fill-rule:nonzero;stroke:none"
             d="M 1790.52,1911.92 C 1990.97,1491.62 1670.82,920.719 1075.45,636.801 480.074,352.871 -165.055,463.422 -365.496,883.73 c -200.442,420.3 119.711,991.19 715.082,1275.12 595.367,283.93 1240.494,173.38 1440.934,-246.93" /><path
             id="path32"
             style="fill:#9ac9e7;fill-opacity:1;fill-rule:nonzero;stroke:none"
             d="m 555.879,1761.11 c 59.723,-67.27 -0.766,-218.48 -135.102,-337.76 -134.336,-119.27 -291.648,-161.43 -351.3668,-94.17 -59.7227,67.27 0.7656,218.48 135.1018,337.75 134.336,119.28 291.652,161.44 351.367,94.18" /></g></g><path
         id="path34"
         style="fill:#ffffff;fill-opacity:1;fill-rule:evenodd;stroke:none"
         d="m 870.723,1032.34 c 189.017,3.78 300.097,-98.5 413.987,-175.981 40.6,-27.621 77.32,-60.687 131.89,-74.879 57.13,-14.851 106,29.852 135.55,48.68 45.12,28.738 88.91,51.602 131.89,82.371 41.93,30.008 86.95,67.641 142.87,82.367 49.44,13.022 86.67,-13.726 106.25,-33.699 71.47,-72.898 59.71,-238.41 18.32,-340.719 -24.58,-60.761 -62.41,-119.039 -113.57,-153.511 -14.3,-9.629 -42.66,-27.617 -73.28,-18.719 -25.16,7.309 -40.44,27.309 -58.61,41.18 -73.76,56.34 -158.01,187.648 -249.12,213.422 -64.98,18.378 -172.5,-63.043 -208.83,-86.122 -101.38,-64.402 -208.65,-132.089 -333.382,-168.48 -55.852,-16.301 -159.969,-13.77 -212.489,3.738 -73.136,24.383 -125.988,71.571 -153.867,142.282 -57.059,144.66 45.641,305.371 117.231,359.449 33.929,25.621 77.789,49.141 120.898,63.651 28.086,4.99 56.176,9.98 84.262,14.97" /><path
         id="path36"
         style="fill:#ffffff;fill-opacity:1;fill-rule:evenodd;stroke:none"
         d="m 1350.65,553.082 c 110.57,2.359 190.46,-20.281 190.51,-127.301 -13.18,-9.019 -14.88,-16.769 -36.64,-18.722 -11.1,20.441 -25.24,54.632 -43.96,67.39 -17.22,11.75 -42.04,14.86 -69.61,14.981 -59.77,0.261 -90.99,-15.821 -124.56,-41.18 -24.37,-18.41 -31.24,-42.609 -73.27,-44.93 -1.22,3.739 -2.45,7.489 -3.67,11.231 -6.91,9.097 -7.65,19.609 0,29.949 11.03,30.961 86.26,84.078 117.24,97.352 13.61,5.828 32.23,3.437 43.96,11.23" /><path
         id="path38"
         style="fill:#ffffff;fill-opacity:1;fill-rule:evenodd;stroke:none"
         d="m 1563.14,317.199 c 6.1,0 12.21,0 18.32,0 1.22,-3.75 2.44,-7.488 3.66,-11.23 24.38,-40.637 -65,-74.321 -87.93,-86.117 -105.63,-54.364 -320.48,-69.321 -439.63,-14.981 -33.49,15.277 -75.732,26.59 -76.927,74.891 2.941,3.816 1.297,1.019 3.66,7.488 12.883,8.559 16.207,16.57 36.637,18.719 5.01,1.832 107.26,-48.43 135.55,-56.168 124.75,-34.129 349.54,7.148 406.66,67.398" /><g
         id="g40"><g
           clip-path="url(#clipPath46)"
           id="g42"><path
             id="path48"
             style="fill:#231f20;fill-opacity:1;fill-rule:nonzero;stroke:none"
             d="m 695.195,341.191 h -70.847 v 324.918 h 70.847 V 341.191" /><path
             id="path50"
             style="fill:#231f20;fill-opacity:1;fill-rule:nonzero;stroke:none"
             d="M 648.773,314.32 H 577.93 v 324.91 h 70.843 V 314.32" /><path
             id="path52"
             style="fill:#231f20;fill-opacity:1;fill-rule:nonzero;stroke:none"
             d="m 816.527,286.629 h -70.843 v 324.922 h 70.843 V 286.629" /><path
             id="path54"
             style="fill:#231f20;fill-opacity:1;fill-rule:nonzero;stroke:none"
             d="M 755.559,271.148 H 684.715 V 596.07 h 70.844 V 271.148" /><path
             id="path56"
             style="fill:#231f20;fill-opacity:1;fill-rule:nonzero;stroke:none"
             d="m 1008.82,355.031 h -70.851 v 324.918 h 70.851 V 355.031" /><path
             id="path58"
             style="fill:#231f20;fill-opacity:1;fill-rule:nonzero;stroke:none"
             d="M 1050.54,499.172 H 979.691 V 824.09 h 70.849 V 499.172" /><path
             id="path60"
             style="fill:#231f20;fill-opacity:1;fill-rule:nonzero;stroke:none"
             d="m 1044.72,517.488 h -59.2 V 842.41 h 59.2 V 517.488" /><path
             id="path62"
             style="fill:#231f20;fill-opacity:1;fill-rule:nonzero;stroke:none"
             d="M 1038.33,528.832 H 991.91 V 853.75 l 23.21,15 23.21,-15 V 528.832" /><path
             id="path64"
             style="fill:#231f20;fill-opacity:1;fill-rule:nonzero;stroke:none"
             d="m 1023.79,611.551 h -17.35 l 5.01,324.91 h 7.34 l 5,-324.91" /><path
             id="path66"
             style="fill:#231f20;fill-opacity:1;fill-rule:nonzero;stroke:none"
             d="M 1175.66,368.059 H 1073.15 V 692.98 h 102.51 V 368.059" /><path
             id="path68"
             style="fill:#231f20;fill-opacity:1;fill-rule:nonzero;stroke:none"
             d="M 1116.26,360.211 H 966.473 v 241.57 h 149.787 v -241.57" /><path
             id="path70"
             style="fill:#231f20;fill-opacity:1;fill-rule:nonzero;stroke:none"
             d="m 1266.05,297.211 h -102.51 v 324.918 h 102.51 V 297.211" /><path
             id="path72"
             style="fill:#231f20;fill-opacity:1;fill-rule:nonzero;stroke:none"
             d="M 1349.11,332.23 H 1246.6 v 324.918 h 102.51 V 332.23" /><path
             id="path74"
             style="fill:#231f20;fill-opacity:1;fill-rule:nonzero;stroke:none"
             d="m 1780.7,290.699 h -102.5 v 324.922 h 102.5 V 290.699" /><path
             id="path76"
             style="fill:#231f20;fill-opacity:1;fill-rule:nonzero;stroke:none"
             d="m 1729.45,524.41 h -92.5 l 15,208.512 h 52.5 l 25,-208.512" /><path
             id="path78"
             style="fill:#231f20;fill-opacity:1;fill-rule:nonzero;stroke:none"
             d="m 1938.69,271.148 h -170.1 v 268.743 h 170.1 V 271.148" /><path
             id="path80"
             style="fill:#231f20;fill-opacity:1;fill-rule:nonzero;stroke:none"
             d="m 1367.2,398.602 h -22.88 V 723.52 h 22.88 V 398.602" /><path
             id="path82"
             style="fill:#231f20;fill-opacity:1;fill-rule:nonzero;stroke:none"
             d="m 966.473,309.43 h -70.848 v 324.922 h 70.848 V 309.43" /><path
             id="path84"
             style="fill:#231f20;fill-opacity:1;fill-rule:nonzero;stroke:none"
             d="m 942.043,286.629 h -70.852 v 324.922 h 70.852 V 286.629" /><path
             id="path86"
             style="fill:#231f20;fill-opacity:1;fill-rule:nonzero;stroke:none"
             d="m 887.379,301.199 h -70.852 v 259.86 h 70.852 v -259.86" /><path
             id="path88"
             style="fill:#231f20;fill-opacity:1;fill-rule:nonzero;stroke:none"
             d="M 767.57,309.43 H 745.684 V 634.352 H 767.57 V 309.43" /><path
             id="path90"
             style="fill:#231f20;fill-opacity:1;fill-rule:nonzero;stroke:none"
             d="m 836.891,265.449 h -45.395 v 395.84 l 13.649,12.031 9.046,22.969 7.614,-21.711 15.086,-13.289 v -395.84" /><path
             id="path92"
             style="fill:#231f20;fill-opacity:1;fill-rule:nonzero;stroke:none"
             d="m 1683.2,494.691 h -58.03 v 120.93 h 58.03 v -120.93" /><path
             id="path94"
             style="fill:#231f20;fill-opacity:1;fill-rule:nonzero;stroke:none"
             d="m 1888.6,499.172 h -15.87 v 102.609 h 15.87 V 499.172" /><path
             id="path96"
             style="fill:#231f20;fill-opacity:1;fill-rule:nonzero;stroke:none"
             d="m 1893.49,530.52 h -39.85 v 30.539 h 39.85 V 530.52" /></g></g><path
         id="path98"
         style="fill:#3370c0;fill-opacity:1;fill-rule:nonzero;stroke:none"
         d="m 951.191,1706.37 c 46.418,302.94 193.609,557.58 307.019,706.6 l -45.39,58.64 C 1012.5,2232.19 948.98,1965.9 941.652,1904.83 819.496,2383.66 460.379,2347.01 333.34,2334.8 457.938,2061.18 768.195,1841.31 909.891,1804.66 l 9.773,-73.29 31.527,-25" /></g></g></svg>