<svg xmlns="http://www.w3.org/2000/svg" xmlns:xlink="http://www.w3.org/1999/xlink" height="321.684" width="544.04"><style>.st2{stroke:#000;stroke-width:15.4282;stroke-miterlimit:10}.st3{fill:#f58223}.st6{fill:#0273bb}.st8{fill-rule:evenodd;clip-rule:evenodd;fill:#fff}.st11{stroke:#000;stroke-width:13.2378;stroke-miterlimit:10}.st12{fill:#ffd600}.st13{fill:#add136}.st14{fill:#94d9f8}</style><ellipse ry="21.13" rx="59.99" cy="252.085" cx="111.737"/><path d="M95.107 99.575c4.64-30.29 19.36-55.76 30.7-70.66l-4.54-5.86c-20.03 23.93-26.38 50.56-27.11 56.67-12.22-47.88-48.13-44.22-60.83-43 12.46 27.36 43.49 49.35 57.65 53.01l.98 7.33z" fill="#0273bb" stroke="#000" stroke-width="13" stroke-miterlimit="10"/><path d="M94.327 103.225c41.26-28.39 59.91-27.63 87.03-9.14 27.12 18.49 28.84 72.48 24.41 90.23s-11.09 42.32-32.79 61.84c-21.7 19.52-31.06 14.34-38.21 14.1-7.15-.25-22.93-2.22-29.58-3.45-6.65-1.23-11.09-.49-13.07 1.23-1.98 1.72-6.66 6.29-17.01 3.02-10.35-3.27-35.52-18.87-49.78-43.2-9.39-16.02-18.02-36.49-17.28-54.48.74-18 6.53-45.19 25.39-57.69 19.34-12.82 28.34-14.04 60.89-2.46z" fill-rule="evenodd" clip-rule="evenodd" fill="none" stroke="#000" stroke-width="16" stroke-miterlimit="10"/><path d="M169.737 309.605s53.65-61.32-2-45.99l-5.78-20.99c36.44-3.89 97.75 1.89 38.43 59.32l34.44 1.89v9.66z" class="st2"/><path d="M320.697 264.725c5.67 18-8.44 38.77-32.21 46.21-23.33 7.44-47.21-1.44-52.99-19.44-5.78-18.33 8.89-38.88 32.21-46.43 23.44-7.44 47.1 1.22 52.88 19.66zm-15.21-.55c-2.56-7.66-15.77-10-29.55-5.55-14.22 4.44-23.33 14.11-21.11 21.33 2.33 7.66 15.66 10.22 29.44 5.78 13.78-4.44 23.55-14.22 21.11-21.44zM331.247 309.605s53.65-61.32-2-45.99l-5.78-20.99c36.44-3.89 97.75 1.89 38.44 59.32l34.44 1.89v9.66z" class="st2"/><path d="M482.217 264.725c5.67 18-8.44 38.77-32.21 46.21-23.33 7.44-47.21-1.44-52.99-19.44-5.78-18.33 8.89-38.88 32.21-46.43 23.44-7.44 47.1 1.22 52.88 19.66zm-15.22-.55c-2.56-7.66-15.77-10-29.55-5.55-14.22 4.44-23.33 14.11-21.11 21.33 2.33 7.66 15.66 10.22 29.44 5.78 13.78-4.44 23.55-14.22 21.11-21.44z" class="st2"/><path d="M169.737 309.605s53.65-61.32-2-45.99l-5.78-20.99c36.44-3.89 97.75 1.89 38.43 59.32l34.44 1.89v9.66z" class="st3"/><path d="M320.697 264.725c5.67 18-8.44 38.77-32.21 46.21-23.33 7.44-47.21-1.44-52.99-19.44-5.78-18.33 8.89-38.88 32.21-46.43 23.44-7.44 47.1 1.22 52.88 19.66zm-15.21-.55c-2.56-7.66-15.77-10-29.55-5.55-14.22 4.44-23.33 14.11-21.11 21.33 2.33 7.66 15.66 10.22 29.44 5.78 13.78-4.44 23.55-14.22 21.11-21.44zM331.247 309.605s53.65-61.32-2-45.99l-5.78-20.99c36.44-3.89 97.75 1.89 38.44 59.32l34.44 1.89v9.66z" class="st3"/><path d="M482.217 264.725c5.67 18-8.44 38.77-32.21 46.21-23.33 7.44-47.21-1.44-52.99-19.44-5.78-18.33 8.89-38.88 32.21-46.43 23.44-7.44 47.1 1.22 52.88 19.66zm-15.22-.55c-2.56-7.66-15.77-10-29.55-5.55-14.22 4.44-23.33 14.11-21.11 21.33 2.33 7.66 15.66 10.22 29.44 5.78 13.78-4.44 23.55-14.22 21.11-21.44z" class="st3"/><g transform="translate(-22.413 -20.385)"><defs><path d="M116.74 123.61c41.26-28.39 59.91-27.63 87.03-9.14 27.12 18.49 28.84 72.48 24.41 90.23s-11.09 42.32-32.79 61.84c-21.7 19.52-31.06 14.34-38.21 14.1-7.15-.25-22.93-2.22-29.58-3.45-6.65-1.23-11.09-.49-13.07 1.23-1.98 1.72-6.66 6.29-17.01 3.02-10.35-3.27-35.52-18.87-49.78-43.2-9.39-16.02-18.02-36.49-17.28-54.48.74-18 6.53-45.19 25.39-57.69 19.34-12.82 28.34-14.04 60.89-2.46z" id="SVGID_1_"/></defs><clipPath id="SVGID_2_"><use height="100%" width="100%" xlink:href="#SVGID_1_" overflow="visible"/></clipPath><g clip-path="url(#SVGID_2_)"><ellipse ry="113.6" rx="124.1" cy="196.36" cx="133.08" fill="#00598e"/><ellipse ry="84.31" rx="119.43" cy="150.81" cx="93.66" class="st6" transform="rotate(-25.498 93.645 150.793)"/><ellipse ry="16.29" rx="32.53" cy="136.08" cx="53.67" transform="rotate(-41.6 53.672 136.086)" fill="#94c5e2"/></g></g><path d="M87.067 166.975c18.9-.38 30.01 9.85 41.4 17.6 4.06 2.76 7.73 6.07 13.19 7.49 5.71 1.49 10.6-2.99 13.56-4.87 4.51-2.87 8.89-5.16 13.19-8.24 4.19-3 8.7-6.76 14.29-8.24 4.94-1.3 8.67 1.37 10.62 3.37 7.15 7.29 5.97 23.84 1.83 34.07-2.46 6.08-6.24 11.9-11.36 15.35-1.43.96-4.27 2.76-7.33 1.87-2.52-.73-4.05-2.73-5.86-4.12-7.38-5.63-15.8-18.76-24.91-21.34-6.5-1.84-17.25 6.3-20.88 8.61-10.14 6.44-20.86 13.21-33.34 16.85-5.59 1.63-16 1.38-21.25-.37-7.31-2.44-12.6-7.16-15.39-14.23-5.71-14.47 4.56-30.54 11.72-35.94 3.39-2.56 7.78-4.91 12.09-6.37 2.81-.49 5.62-.99 8.43-1.49z" class="st8"/><path d="M135.057 214.895c11.06-.24 19.05 2.03 19.05 12.73-1.32.9-1.49 1.68-3.66 1.87-1.11-2.04-2.52-5.46-4.4-6.74-1.72-1.17-4.2-1.49-6.96-1.5-5.98-.03-9.1 1.58-12.46 4.12-2.44 1.84-3.12 4.26-7.33 4.49-.12-.37-.24-.75-.37-1.12-.69-.91-.77-1.96 0-3 1.1-3.1 8.63-8.41 11.72-9.73 1.37-.58 3.24-.34 4.41-1.12zM156.307 238.485h1.83c.12.37.24.75.37 1.12 2.44 4.06-6.5 7.43-8.79 8.61-10.56 5.44-32.05 6.93-43.96 1.5-3.35-1.53-7.57-2.66-7.69-7.49.29-.38.13-.1.37-.75 1.29-.86 1.62-1.66 3.66-1.87.5-.18 10.73 4.84 13.56 5.62 12.46 3.42 34.94-.71 40.65-6.74z" class="st8"/><g transform="translate(-22.413 -20.385)"><defs><path d="M109.25 187.36c19.01-.38 30.18 9.91 41.64 17.7 4.08 2.78 7.78 6.1 13.27 7.53 5.75 1.49 10.66-3 13.63-4.9 4.54-2.89 8.94-5.19 13.27-8.29 4.22-3.02 8.75-6.8 14.37-8.29 4.97-1.31 8.72 1.38 10.69 3.39 7.19 7.33 6.01 23.98 1.84 34.27-2.47 6.11-6.28 11.97-11.42 15.44-1.44.97-4.29 2.78-7.37 1.88-2.53-.74-4.07-2.75-5.9-4.14-7.42-5.67-15.89-18.87-25.06-21.47-6.53-1.85-17.35 6.34-21 8.66-10.2 6.48-20.99 13.29-33.53 16.95-5.62 1.64-16.09 1.38-21.37-.38-7.36-2.45-12.67-7.2-15.48-14.31-5.74-14.55 4.59-30.71 11.79-36.15 3.41-2.58 7.82-4.94 12.16-6.4 2.82-.49 5.65-.99 8.47-1.49z" id="SVGID_3_"/></defs><clipPath id="SVGID_4_"><use height="100%" width="100%" xlink:href="#SVGID_3_" overflow="visible"/></clipPath><g clip-path="url(#SVGID_4_)"><path d="M84.84 223.98h7.08v32.49h-7.08z"/><path d="M80.2 226.67h7.08v32.49H80.2zM96.97 229.44h7.08v32.49h-7.08z"/><path d="M90.88 230.98h7.08v32.49h-7.08zM116.2 222.6h7.08v32.49h-7.08z"/><path d="M120.37 208.18h7.08v32.49h-7.08z"/><path d="M120.96 206.35h5.92v32.49h-5.92z"/><path d="M121.6 205.22l2.32-1.5 2.32 1.5v32.49h-4.64z"/><path d="M123.55 196.95h.73l.5 32.49h-1.73zM129.72 221.29h10.25v32.49h-10.25z"/><path d="M119.05 230.41h14.98v24.16h-14.98zM138.76 228.38h10.25v32.49h-10.25z"/><path d="M147.06 224.88h10.25v32.49h-10.25zM190.22 229.03h10.25v32.49h-10.25z"/><path d="M187.6 217.3h5.25l2.5 20.85h-9.25zM199.26 236.6h17.01v26.87h-17.01zM156.84 218.24h2.29v32.49h-2.29zM111.97 227.16h7.08v32.49h-7.08z"/><path d="M109.52 229.44h7.08v32.49h-7.08z"/><path d="M104.06 234.49h7.08v25.99h-7.08zM96.97 227.16h2.19v32.49h-2.19z"/><path d="M101.55 224.46l1.37-1.2.9-2.3.76 2.17 1.51 1.33v39.59h-4.54zM184.92 229.03h5.8v12.09h-5.8zM209.68 230.41h1.59v10.26h-1.59z"/><path d="M207.77 234.49h3.99v3.05h-3.99z"/></g></g><path d="M95.107 99.575c4.64-30.29 19.36-55.76 30.7-70.66l-4.54-5.86c-20.03 23.93-26.38 50.56-27.11 56.67-12.22-47.88-48.13-44.22-60.83-43 12.46 27.36 43.49 49.35 57.65 53.01l.98 7.33z" class="st6"/><path d="M94.327 103.225c41.26-28.39 59.91-27.63 87.03-9.14 27.12 18.49 28.84 72.48 24.41 90.23s-11.09 42.32-32.79 61.84c-21.7 19.52-31.06 14.34-38.21 14.1-7.15-.25-22.93-2.22-29.58-3.45-6.65-1.23-11.09-.49-13.07 1.23-1.98 1.72-6.66 6.29-17.01 3.02-10.35-3.27-35.52-18.87-49.78-43.2-9.39-16.02-18.02-36.49-17.28-54.48.74-18 6.53-45.19 25.39-57.69 19.34-12.82 28.34-14.04 60.89-2.46z" fill-rule="evenodd" clip-rule="evenodd" fill="none"/><path d="M132.527 92.665l-5.43-61.85h-.09l-.48-4.38c98.93-27.26 113.51 41.74 16.49 64.05l.1.19zm8.48-19.82c41.65-22.97 78.44-48.13-5.24-42.7l5.15 42.7z" class="st11"/><path d="M279.107 91.615l-43.08-27.92c-3.24 2-11.15 4.67-11.15 4.67l-1.05 16.32h-8.2l4.96-65.02 11.15-.29c59.85 3.91 36.22 20.97 20.11 35.45l37.74 24.3zm-52.32-36.88c17.73-11.15 36.5-28.21 4-28.21z" class="st11"/><path d="M335.057 24.615c4.29 82.15-58.8 83.49-52.23-4.96l3.72-.38c9.82 84.54 26.59 39.84 35.45 5.91l13.15-.67zM363.557 73.245l3.79 19.32-11.03.67-14.49-71 12.87-4c71.19-21.92 52.23 11.53 38.12 34.21-2.67 4.29-29.26 20.8-29.26 20.8zm-2.28-11.27c17.06-19.44 33.83-46.03-4.96-34.88l4.86 34.88zM448.807 83.515l-12.77-27.92-16.49-1.05-13.82 32.88-5.91-2.29 25.64-68.33 14.49 2.57 27.35 52.32zm-22.3-51.66l-5.24 15.82 12.1.29zM484.837 92.565l-19.44-75.29 25.64-8.48 8.86 67 34.6-6.19 1.91 10.48z" class="st11"/><path d="M132.527 92.665l-5.43-61.85h-.09l-.48-4.38c98.93-27.26 113.51 41.74 16.49 64.05l.1.19zm8.48-19.82c41.65-22.97 78.44-48.13-5.24-42.7l5.15 42.7z" class="st12"/><path d="M279.107 91.615l-43.08-27.92c-3.24 2-11.15 4.67-11.15 4.67l-1.05 16.32h-8.2l4.96-65.02 11.15-.29c59.85 3.91 36.22 20.97 20.11 35.45l37.74 24.3zm-52.32-36.88c17.73-11.15 36.5-28.21 4-28.21z" class="st12"/><path d="M335.057 24.615c4.29 82.15-58.8 83.49-52.23-4.96l3.72-.38c9.82 84.54 26.59 39.84 35.45 5.91l13.15-.67zM361.277 61.975c17.06-19.44 33.83-46.03-4.96-34.88l4.86 34.88zm2.28 11.27l3.79 19.32-11.03.67-14.49-71 12.87-4c71.19-21.92 52.23 11.53 38.12 34.21-2.67 4.29-29.26 20.8-29.26 20.8zM448.807 83.515l-12.77-27.92-16.49-1.05-13.82 32.88-5.91-2.29 25.64-68.33 14.49 2.57 27.35 52.32zm-22.3-51.66l-5.24 15.82 12.1.29zM484.837 92.565l-19.44-75.29 25.64-8.48 8.86 67 34.6-6.19 1.91 10.48z" class="st12"/><path d="M219.267 95.755l2.29 15.15c-37.17 18.11-85.2 47.65 15.15 39.74l.29 4.29c-100.94 27.93-114.09-45.36-17.73-59.18z" class="st11"/><path d="M282.267 161.345l-12.77-27.92-16.49-1.05-13.82 32.88-5.91-2.29 25.64-68.33 14.49 2.57 27.35 52.32zm-22.3-51.66l-5.24 15.82 12.1.29zM394.737 166.875l-21.35-45.37-21.73 57.56-35.55-47.37-5.24 38.79-8.86-2.29 8.86-75.29 44.41 53.66 27.64-71.38 32.88 83.2zM432.667 150.785l1.98 20-10.77-1.89-6.65-72.16 13.23-2.57c73.16-14.02 50.66 17.16 34.16 38.17-3.12 3.96-31.95 18.45-31.95 18.45zm-.44-12.43c19.08-17.46 38.66-42.07-1.12-35.21l1.02 35.2z" class="st11"/><path d="M219.767 94.255l2.29 15.15c-37.17 18.11-85.2 47.65 15.15 39.74l.29 4.29c-100.94 27.93-114.09-45.36-17.73-59.18z" class="st13"/><path d="M282.267 161.345l-12.77-27.92-16.49-1.05-13.82 32.88-5.91-2.29 25.64-68.33 14.49 2.57 27.35 52.32zm-22.3-51.66l-5.24 15.82 12.1.29zM394.737 166.875l-21.35-45.37-21.73 57.56-35.55-47.37-5.24 38.79-8.86-2.29 8.86-75.29 44.41 53.66 27.64-71.38 32.88 83.2zM432.667 150.785l1.98 20-10.77-1.89-6.65-72.16 13.23-2.57c73.16-14.02 50.66 16.16 34.16 37.17-3.12 3.96-31.95 19.45-31.95 19.45zm-.44-12.43c19.08-17.46 38.66-42.07-1.12-35.21l1.02 35.2z" class="st13"/><g><path d="M271.867 236.565l-52.32-30.88 2.95 32.21h-8.2l-4.29-64.43 64.14 39.74-2.29-32.21h8.2l4 52.99z" class="st11"/><path d="M309.317 242.085l-5.91-2.57 15.06-25.35-43.74-29.55 14.87-17.44 38.41 34.5 15.82-25.35 13.44 7.24zM416.737 173.085l2.29 15.15c-37.17 18.11-85.2 47.65 15.15 39.74l.29 4.29c-100.93 27.93-114.09-45.36-17.73-59.18z" class="st11"/></g><g><path d="M271.867 236.565l-52.32-30.88 2.95 32.21h-8.2l-4.29-64.43 64.14 39.74-2.29-32.21h8.2l4 52.99z" class="st14"/><path d="M309.317 242.085l-5.91-2.57 15.06-25.35-43.74-29.55 14.87-17.44 38.41 34.5 15.82-25.35 13.44 7.24zM416.737 173.085l2.29 15.15c-37.17 18.11-85.2 47.65 15.15 39.74l.29 4.29c-100.93 27.93-114.09-45.36-17.73-59.18z" class="st14"/></g></svg>