<svg xmlns="http://www.w3.org/2000/svg" viewBox="0 0 678.22 256.97"><defs><style>.cls-1{fill:#333;}</style></defs><title>Risorsa 3</title><g id="Livello_2" data-name="Livello 2"><g id="Livello_1-2" data-name="Livello 1"><path class="cls-1" d="M71,147.47a43.84,43.84,0,0,1,4.49-7.79l-5.72-5.53a50.83,50.83,0,0,0-6.88,12Z"/><path class="cls-1" d="M73.6,177a29.94,29.94,0,0,1-4.09-8.56l-7.09,4.76a38.17,38.17,0,0,0,6.21,11Z"/><path class="cls-1" d="M87.81,188.15A30,30,0,0,1,80,183.78l-4.43,7.15a38.11,38.11,0,0,0,10.33,5.46Z"/><path class="cls-1" d="M128.38,160c0,.6,0,1.2-.06,1.79l7.73,4.4a38.44,38.44,0,0,0-.23-13.12l-8.16.36A30.23,30.23,0,0,1,128.38,160Z"/><path class="cls-1" d="M68.29,160a30.23,30.23,0,0,1,.72-6.6L60.85,153a38.45,38.45,0,0,0-.24,13.15l7.73-4.4C68.31,161.2,68.29,160.6,68.29,160Z"/><path class="cls-1" d="M80.4,133.5c2.06-2.33,4.27-4.62,6.54-6.92l-2.13-8.8L82.62,120c-2.38,2.37-4.82,4.82-7.19,7.39Z"/><path class="cls-1" d="M121.13,190.91l-4.43-7.15a30,30,0,0,1-7.8,4.37l1.92,8.25A38.11,38.11,0,0,0,121.13,190.91Z"/><path class="cls-1" d="M93.73,119.75c1.56-1.59,3.11-3.21,4.6-4.85,1.51,1.67,3.07,3.3,4.65,4.91.41-3.23.85-6.66,1.31-10.26a30,30,0,0,1-6-10.81,29.86,29.86,0,0,1-5.91,10.75C92.89,113.08,93.32,116.52,93.73,119.75Z"/><path class="cls-1" d="M116.31,133.55l5-6.13c-2.38-2.59-4.84-5-7.23-7.44l-2.14-2.15-2.13,8.8C112,128.92,114.26,131.22,116.31,133.55Z"/><path class="cls-1" d="M100.86,189.94c-.83.07-1.68.11-2.53.11s-1.8,0-2.69-.13l-1.5,8.32a37.88,37.88,0,0,0,8.15,0Z"/><path class="cls-1" d="M127.16,168.47a30,30,0,0,1-4.07,8.54l5,7.21a38.17,38.17,0,0,0,6.19-11Z"/><path class="cls-1" d="M121.25,139.72a43.73,43.73,0,0,1,4.46,7.77l8.11-1.35a50.76,50.76,0,0,0-6.85-12Z"/><path class="cls-1" d="M15.75,159.14a83.75,83.75,0,0,1,.49-8.91l-15.82-.7c-.27,3-.42,6-.42,9.09a97.84,97.84,0,0,0,7.29,37.14L21,188A82.21,82.21,0,0,1,15.75,159.14Z"/><path class="cls-1" d="M160.86,77.69c-7.17-8.07-14.75-15.65-22.06-23-3.24-3.24-6.45-6.44-9.56-9.64L125,62.6c9.12,9.12,18,18.15,25.87,27.42Z"/><path class="cls-1" d="M25.21,197.46l-12.94,8.69a99,99,0,0,0,22.1,27.11l8.77-12.73A83.11,83.11,0,0,1,25.21,197.46Z"/><path class="cls-1" d="M171.46,197.46a83.11,83.11,0,0,1-17.92,23.05l8.77,12.73a99,99,0,0,0,22.08-27.09Z"/><path class="cls-1" d="M180.92,159.13A82.22,82.22,0,0,1,175.71,188l13.67,7.77a97.86,97.86,0,0,0,7.29-37.15c0-3.1-.15-6.12-.42-9.08l-15.82.71A83.76,83.76,0,0,1,180.92,159.13Z"/><path class="cls-1" d="M45.84,90c7.89-9.28,16.76-18.3,25.87-27.43L67.48,45c-3.13,3.22-6.36,6.44-9.61,9.69C50.56,62,43,69.59,35.85,77.64Z"/><path class="cls-1" d="M84.65,49.55c4.65-4.72,9.25-9.5,13.68-14.39,4.45,4.91,9.07,9.71,13.74,14.45.9-6.76,1.82-13.59,2.73-20.4C107.06,19.79,101,10.2,98.33,0c-2.69,10.17-8.7,19.74-16.41,29.15C82.83,36,83.75,42.78,84.65,49.55Z"/><path class="cls-1" d="M159.9,101.43c8.32,11.39,14.83,23.36,18.28,36.52l15.72-2.62c-4.1-17-12.43-31.71-22.55-45Z"/><path class="cls-1" d="M109.8,240.93a81.66,81.66,0,0,1-23.51-.07l-2.7,15a98.66,98.66,0,0,0,28.8.1Z"/><path class="cls-1" d="M75.91,238.62a82.24,82.24,0,0,1-23.54-10.89c-2.71,4.42-5.4,8.81-8,13.06a97.88,97.88,0,0,0,28.08,12.71Z"/><path class="cls-1" d="M152.32,240.78c-2.6-4.26-5.28-8.64-8-13.07a82.25,82.25,0,0,1-23.52,10.89l3.46,14.88A97.88,97.88,0,0,0,152.32,240.78Z"/><path class="cls-1" d="M18.48,138c3.45-13.19,10-25.18,18.32-36.6L25.35,90.3c-10.15,13.29-18.49,28-22.6,45.08Z"/><path class="cls-1" d="M139.84,103.34c-4.56-5.05-9.34-9.82-14-14.44-2-2-4-4-5.92-6l-3.73,15.44c5.22,5.24,10.29,10.43,14.88,15.74Z"/><path class="cls-1" d="M65.6,114.08c4.59-5.31,9.66-10.51,14.88-15.75L76.75,82.89c-2,2-3.95,4-6,6-4.61,4.6-9.37,9.36-13.92,14.39Z"/><path class="cls-1" d="M45.65,159.09a53.19,53.19,0,0,1,.58-7.83L32,150.63a68.05,68.05,0,0,0-.6,9,66.7,66.7,0,0,0,3.2,20.44l12.86-7.31A52.58,52.58,0,0,1,45.65,159.09Z"/><path class="cls-1" d="M151,159.09a52.59,52.59,0,0,1-1.81,13.66l12.86,7.31a66.72,66.72,0,0,0,3.2-20.44,68.05,68.05,0,0,0-.59-9l-14.24.64A53.19,53.19,0,0,1,151,159.09Z"/><path class="cls-1" d="M50.19,180.45,38,188.63a67.27,67.27,0,0,0,13.85,19.11l8.43-12.24A52.87,52.87,0,0,1,50.19,180.45Z"/><path class="cls-1" d="M146.48,180.45a52.88,52.88,0,0,1-10.09,15l8.44,12.24a67.27,67.27,0,0,0,13.83-19.09Z"/><path class="cls-1" d="M136.44,214.62l-7.72-12.52A52.52,52.52,0,0,1,114,209.4l3.35,14.4A66.69,66.69,0,0,0,136.44,214.62Z"/><path class="cls-1" d="M104.81,211.38a51.13,51.13,0,0,1-13.3,0l-2.62,14.56a65.72,65.72,0,0,0,18.43.06Z"/><path class="cls-1" d="M48.25,142.64a72,72,0,0,1,10.69-20.21l-10-9.68C42.61,121,37.27,130,34.2,140.32Z"/><path class="cls-1" d="M89.89,88.88C92.76,86,95.6,83,98.33,80c2.75,3,5.61,6,8.49,8.94.75-5.75,1.54-11.73,2.35-17.86-5.09-6.27-9.05-12.65-10.84-19.43C96.55,58.4,92.6,64.76,87.54,71,88.35,77.15,89.14,83.13,89.89,88.88Z"/><path class="cls-1" d="M137.76,122.47a71.94,71.94,0,0,1,10.66,20.17l14-2.34c-3.06-10.27-8.39-19.29-14.7-27.51Z"/><path class="cls-1" d="M82.66,209.41a52.52,52.52,0,0,1-14.7-7.3l-7.72,12.52a66.69,66.69,0,0,0,19.07,9.17Z"/><path class="cls-1" d="M286.72,138.49c.2,11.93-7.08,24-23.59,24H244.59V115.3h18.54C279.31,115.3,286.52,126.82,286.72,138.49Zm-33.3,15.44h9.71c10.72,0,15-7.82,14.76-15.51-.2-7.35-4.52-14.7-14.76-14.7h-9.71Z"/><path class="cls-1" d="M325,129.25v17.39c0,5.06,2.77,8.9,8,8.9,5.06,0,8.5-4.25,8.5-9.3v-17h8.16v33.3h-7.35l-.54-4.52c-3.44,3.37-6.61,5-11.26,5-8,0-13.75-6-13.75-16.31V129.25Z"/><path class="cls-1" d="M354.72,176.37V129.25h7.68l.54,4.58a13.2,13.2,0,0,1,10.79-5.33c10.25,0,17.05,7.62,17.05,17.39s-6.13,17.39-16.78,17.39c-3.51,0-8.7-1.08-11.06-4.72v17.8Zm27.84-30.47c0-5.19-3.51-9.44-9.44-9.44s-9.44,4.25-9.44,9.44a9.44,9.44,0,0,0,18.88,0Z"/><path class="cls-1" d="M422.61,129.25h7.89v33.23h-7.75l-.41-4.85c-1.89,3.91-7.08,5.8-10.79,5.86-9.84.07-17.12-6-17.12-17.66,0-11.46,7.62-17.46,17.33-17.39,4.45,0,8.69,2.09,10.58,5.39Zm-20,16.58c0,6.34,4.38,10.11,9.84,10.11,12.94,0,12.94-20.16,0-20.16C407,135.79,402.65,139.5,402.65,145.84Z"/><path class="cls-1" d="M444.33,115.36v47.12h-8.16V115.36Z"/><path class="cls-1" d="M493.64,162.49H458.32V115.3h35.32v8.63H467.15v10.85H492.7v8.29H467.15v10.65h26.49Z"/><path class="cls-1" d="M507.37,129.25v17.39c0,5.06,2.77,8.9,8,8.9,5.06,0,8.5-4.25,8.5-9.3v-17H532v33.3H524.7l-.54-4.52c-3.44,3.37-6.61,5-11.26,5-8,0-13.75-6-13.75-16.31V129.25Z"/><path class="cls-1" d="M598.86,145.9c0,9.57-6.54,17.32-17.33,17.32s-17.26-7.75-17.26-17.32,6.61-17.33,17.19-17.33S598.86,136.4,598.86,145.9Zm-26.36,0c0,5.06,3,9.77,9,9.77s9-4.72,9-9.77-3.51-9.84-9-9.84C575.6,136.06,572.5,140.91,572.5,145.9Z"/><path class="cls-1" d="M603.2,176.37V129.25h7.68l.54,4.58a13.2,13.2,0,0,1,10.79-5.33c10.25,0,17.05,7.62,17.05,17.39s-6.13,17.39-16.78,17.39c-3.51,0-8.7-1.08-11.06-4.72v17.8ZM631,145.9c0-5.19-3.51-9.44-9.44-9.44s-9.44,4.25-9.44,9.44a9.44,9.44,0,0,0,18.88,0Z"/><path class="cls-1" d="M651.56,148.8c.54,4.11,4.11,7.08,9.91,7.08,3,0,7-1.15,8.9-3.1l5.26,5.19c-3.51,3.64-9.24,5.39-14.29,5.39-11.46,0-18.27-7.08-18.27-17.73,0-10.11,6.88-17.39,17.66-17.39,11.12,0,18.07,6.88,16.79,20.56ZM669.63,142c-.54-4.31-3.91-6.47-8.63-6.47-4.45,0-8.09,2.16-9.3,6.47Z"/><path class="cls-1" d="M312.51,128.94a13.84,13.84,0,0,0-3.86-.56c-3.37,0-6.81.61-9.37,4.72l-.61-3.84h-7.62v33.23h8.22V145c0-6.14,4-8.43,8.29-8.43a8.1,8.1,0,0,1,4.94,1.4Z"/><path class="cls-1" d="M564.45,131.54a12.61,12.61,0,0,0-8.56-3.17c-3.37,0-6.81.61-9.37,4.72l-.61-3.84H538.3v33.23h8.22V145c0-6.14,4-8.43,8.29-8.43a8.16,8.16,0,0,1,5.74,2A39,39,0,0,1,564.45,131.54Z"/><path class="cls-1" d="M256,229a4.82,4.82,0,0,0-4-1.87c-2.35,0-3.48,1-3.48,2.23,0,1.46,1.73,1.87,3.74,2.11,3.5.43,6.77,1.34,6.77,5.35,0,3.75-3.31,5.35-7.06,5.35-3.43,0-6.07-1.06-7.32-4.13l2.64-1.37c.74,1.85,2.69,2.66,4.73,2.66s3.86-.7,3.86-2.52c0-1.58-1.66-2.23-3.89-2.47-3.43-.41-6.6-1.32-6.6-5.09,0-3.46,3.41-4.87,6.5-4.9,2.62,0,5.33.74,6.6,3.34Z"/><path class="cls-1" d="M264.56,236.83c.19,1.46,1.46,2.52,3.53,2.52a4.88,4.88,0,0,0,3.17-1.1l1.87,1.85A7.27,7.27,0,0,1,268,242c-4.08,0-6.5-2.52-6.5-6.31a5.92,5.92,0,0,1,6.29-6.19c4,0,6.43,2.45,6,7.32ZM271,234.4c-.19-1.54-1.39-2.3-3.07-2.3a3.19,3.19,0,0,0-3.31,2.3Z"/><path class="cls-1" d="M276.05,246.64V229.87h2.74l.19,1.63a4.7,4.7,0,0,1,3.84-1.9,5.92,5.92,0,0,1,6.07,6.19c0,3.46-2.18,6.19-6,6.19-1.25,0-3.1-.38-3.94-1.68v6.34ZM286,235.79a3.36,3.36,0,1,0-6.72,0,3.36,3.36,0,0,0,6.72,0Z"/><path class="cls-1" d="M295.16,239h2.52V227.78h-2.62V224.9h5.76V239h2.33v2.69h-8Z"/><path class="cls-1" d="M304.52,232.07c0-10,14.74-10,14.74,0v2.42c0,10-14.74,10-14.74,0Zm3.14,2.42a4.24,4.24,0,1,0,8.45,0v-2.42a4.23,4.23,0,1,0-8.45,0Z"/><path class="cls-1" d="M326.19,232.53H335v2.69h-8.86Z"/><path class="cls-1" d="M341.4,239h2.52V227.78h-2.62V224.9h5.76V239h2.33v2.69h-8Z"/><path class="cls-1" d="M363.43,224.92v10.51h2v3.07h-2v3.19h-3.12v-3.19h-9l-.29-3.22,7.56-10.37Zm-3.12,10.51v-7.78l-5.69,7.78Z"/><path class="cls-1" d="M370,244.05h-1.66l.46-2.38a1.24,1.24,0,0,1-1.13-1.3c0-2.21,3.41-2.11,3.41.07C371,240.74,371.07,240.67,370,244.05Z"/><path class="cls-1" d="M378.38,229.77c0-3.55,3.38-5.09,6.48-5.09,3.36,0,7,1.37,7,5.35,0,4.27-3.22,5.09-6.74,5.09-1.39,0-3.65.36-3.65,2.18v1.44h10.44v3H378.31v-4.42c0-3.86,3.5-5,6.82-5,1.27,0,3.6-.22,3.6-2.16s-1.66-2.69-3.82-2.69c-1.66,0-3.36.84-3.38,2.35Z"/><path class="cls-1" d="M393.86,232.07c0-10,14.74-10,14.74,0v2.42c0,10-14.74,10-14.74,0ZM397,234.5a4.24,4.24,0,1,0,8.45,0v-2.42a4.23,4.23,0,1,0-8.45,0Z"/><path class="cls-1" d="M410.06,239h2.52V227.78H410V224.9h5.76V239h2.33v2.69h-8Z"/><path class="cls-1" d="M422.26,233a3.7,3.7,0,0,1-2.11-3.31c0-3.38,3.12-5.11,6.77-5.11s6.89,1.75,6.89,5.11a3.44,3.44,0,0,1-2.16,3.17,4.22,4.22,0,0,1,2.54,3.74c.07,3.91-3.53,5.47-7.27,5.45s-7.3-1.51-7.22-5.45A4.06,4.06,0,0,1,422.26,233Zm.74,3.65c0,1.3,1.37,2.52,3.94,2.52s4-1.2,3.94-2.52c0-1.66-1.82-2.4-3.94-2.4S423,235,423,236.68Zm3.94-4.7c1.94,0,3.5-.89,3.55-2.35s-1.44-2.38-3.58-2.38c-2.38,0-3.58,1.22-3.53,2.38C423.43,231.09,425.09,232,426.94,232Z"/><path class="cls-1" d="M272.24,196.36c.13,7.87-4.67,15.82-15.56,15.82H244.46V181.07h12.22C267.35,181.07,272.11,188.67,272.24,196.36Zm-22,10.18h6.4c7.07,0,9.87-5.16,9.73-10.22-.13-4.84-3-9.69-9.73-9.69h-6.4Z"/><path class="cls-1" d="M294.35,190.27h5.2v21.91h-5.11l-.27-3.2c-1.24,2.58-4.67,3.82-7.11,3.87-6.49,0-11.29-4-11.29-11.65s5-11.51,11.42-11.47a8,8,0,0,1,7,3.56ZM281.2,201.21a6.28,6.28,0,0,0,6.49,6.67c8.53,0,8.53-13.29,0-13.29A6.24,6.24,0,0,0,281.2,201.21Z"/><path class="cls-1" d="M335.1,212.19V200.45c0-2.89-1.51-5.51-4.49-5.51s-4.67,2.62-4.67,5.51v11.73h-5.42v-22h5l.4,2.67c1.16-2.22,3.69-3,5.78-3a6.56,6.56,0,0,1,6.49,4.09,7.94,7.94,0,0,1,7.33-4c6.22,0,9.29,3.82,9.29,10.4v11.82h-5.42V200.36c0-2.89-1.2-5.33-4.13-5.33s-4.76,2.53-4.76,5.42v11.73Z"/><path class="cls-1" d="M372.73,196.1a7.4,7.4,0,0,0-5.42-2c-2.58,0-4,.8-4,2.18s1.29,2.22,4.09,2.4c4.13.27,9.38,1.2,9.38,7,0,3.87-3.16,7.2-9.42,7.2-3.47,0-6.93-.58-10.13-3.91l2.67-3.87c1.56,1.73,5.11,3,7.56,3.07,2,0,4-1,4-2.62s-1.25-2.13-4.36-2.31c-4.13-.31-9.07-1.82-9.07-6.8s5.24-6.84,9.25-6.84c3.42,0,6,.67,8.53,2.89Z"/><path class="cls-1" d="M387.86,184.1v6.22h6V195h-6.09v9.47c0,2.09,1.16,3.11,2.84,3.11a6.2,6.2,0,0,0,2.62-.67l1.51,4.62a12.14,12.14,0,0,1-4.49.93c-4.76.18-7.87-2.53-7.87-8V195h-4.09v-4.67h4.09v-5.64Z"/><path class="cls-1" d="M414.24,190.27h5.2v21.91h-5.11l-.27-3.2c-1.25,2.58-4.67,3.82-7.11,3.87-6.49,0-11.29-4-11.29-11.65s5-11.51,11.42-11.47a8,8,0,0,1,7,3.56Zm-13.16,10.93a6.28,6.28,0,0,0,6.49,6.67c8.53,0,8.53-13.29,0-13.29A6.24,6.24,0,0,0,401.08,201.21Z"/><path class="cls-1" d="M446.32,181.12v31.07h-5.07l-.36-3a8,8,0,0,1-7.07,3.51c-6.44,0-11.29-4.27-11.29-11.47,0-7.56,4.76-11.47,11.16-11.47,2.31,0,5.91,1.24,7.2,3.51V181.12ZM428,201.21a6.29,6.29,0,1,0,12.58,0,6.25,6.25,0,0,0-6.35-6.4A6,6,0,0,0,428,201.21Z"/><path class="cls-1" d="M458.31,184.1v6.22h6V195h-6.09v9.47c0,2.09,1.16,3.11,2.84,3.11a6.18,6.18,0,0,0,2.62-.67l1.51,4.62a12.13,12.13,0,0,1-4.49.93c-4.76.18-7.87-2.53-7.87-8V195h-4.09v-4.67h4.09v-5.64Z"/><path class="cls-1" d="M320.55,191.44v1.09l.39-.75C320.82,191.67,320.68,191.56,320.55,191.44Z"/><path class="cls-1" d="M317.14,189.9a9,9,0,0,0-1.85-.2c-2.22,0-4.49.4-6.18,3.11l-.4-2.53h-5v21.91h5.42V200.63c0-4,2.62-5.56,5.47-5.56a5.64,5.64,0,0,1,2.57.52Z"/><path class="cls-1" d="M474.52,216.89H471.4l.86-4.48a2.35,2.35,0,0,1-2.13-2.44c0-4.16,6.42-4,6.42.13C476.56,210.65,476.6,210.51,474.52,216.89Z"/><path class="cls-1" d="M506.8,188.53a12.13,12.13,0,0,0-8-3.16c-6.78,0-10.9,5.16-10.9,11.67,0,5.2,3,10.58,10.9,10.58a10.52,10.52,0,0,0,7.14-2.53v-5.61H497.8v-5.34h13.57v13.34a15.77,15.77,0,0,1-12.62,5.7c-11.89,0-16.73-7.82-16.73-16.14,0-8.91,5.56-17.14,16.73-17.14a16.72,16.72,0,0,1,11.76,4.84Z"/><path class="cls-1" d="M521,203.28c.36,2.76,2.76,4.75,6.65,4.75,2,0,4.7-.77,6-2.08l3.53,3.48c-2.35,2.44-6.2,3.62-9.59,3.62-7.69,0-12.26-4.75-12.26-11.89,0-6.78,4.61-11.67,11.85-11.67,7.46,0,12.12,4.61,11.26,13.79Zm12.12-4.57c-.36-2.89-2.62-4.34-5.79-4.34-3,0-5.43,1.45-6.24,4.34Z"/><path class="cls-1" d="M547.81,190.16l.41,2.58c1.72-2.76,4-3.16,6.29-3.16a8.46,8.46,0,0,1,5.74,2.13l-2.49,4.79a5.51,5.51,0,0,0-4-1.45c-2.89,0-5.56,1.54-5.56,5.65v11.76H542.7v-22.3Z"/><path class="cls-1" d="M577.16,212.46V200.52c0-2.94-1.54-5.61-4.57-5.61s-4.75,2.67-4.75,5.61v11.94h-5.52V190.12h5.11l.41,2.71c1.18-2.26,3.75-3.08,5.88-3.08a6.68,6.68,0,0,1,6.6,4.16,8.07,8.07,0,0,1,7.46-4.07c6.33,0,9.45,3.89,9.45,10.58v12h-5.52v-12c0-2.94-1.22-5.43-4.21-5.43s-4.84,2.58-4.84,5.52v11.94Z"/><path class="cls-1" d="M620.52,190.16h5.29v22.3h-5.2l-.27-3.26c-1.27,2.62-4.75,3.89-7.24,3.93-6.6,0-11.49-4-11.49-11.85s5.11-11.71,11.62-11.67c3,0,5.83,1.4,7.1,3.62Zm-13.39,11.13a6.39,6.39,0,0,0,6.6,6.78c8.68,0,8.68-13.52,0-13.52A6.35,6.35,0,0,0,607.14,201.29Z"/><path class="cls-1" d="M646.88,212.46V200.79c0-3.39-1.85-6-5.38-6s-5.7,2.85-5.7,6.24v11.4h-5.47V190.12h4.93l.36,3c2.26-2.22,4.52-3.35,7.33-3.35,5.25,0,9.45,3.93,9.45,10.94v11.71Z"/><path class="cls-1" d="M678.22,190.16l-13.61,31.61h-6.06l4.16-9.68-8.91-21.93h6.42l3.39,9.63,2.13,6.29,2.31-6.15,4.07-9.77Z"/></g></g></svg>