<svg xmlns="http://www.w3.org/2000/svg" height="350.36" width="287.52"><defs><clipPath id="a" clipPathUnits="userSpaceOnUse"><path clip-rule="evenodd" d="M943.313 1722.25c412.607 283.91 599.067 276.26 870.257 91.36 271.19-184.9 288.45-724.81 244.07-902.309-44.38-177.512-110.94-423.16-327.89-618.36-216.95-195.203-310.63-143.429-382.13-140.961-71.49 2.461-229.27 22.18-295.84 34.508-66.557 12.332-110.932 4.934-130.663-12.328-19.719-17.25-66.558-62.859-170.105-30.199-103.539 32.668-355.176 188.75-497.766 432.051-93.914 160.25-180.2 364.867-172.8 544.838 7.394 179.97 65.288 451.9 253.925 576.89 193.492 128.2 283.516 140.39 608.942 24.51z"/></clipPath><clipPath id="b" clipPathUnits="userSpaceOnUse"><path clip-rule="evenodd" d="M868.473 1084.81c190.117 3.8 301.837-99.072 416.387-177.001 40.84-27.778 77.77-61.039 132.66-75.321 57.46-14.937 106.61 30.032 136.33 48.961 45.39 28.91 89.43 51.91 132.66 82.852 42.18 30.187 87.46 68.039 143.71 82.849 49.72 13.1 87.16-13.81 106.86-33.89 71.89-73.33 60.05-239.799 18.42-342.701-24.72-61.11-62.77-119.739-114.23-154.399-14.37-9.691-42.9-27.789-73.7-18.84-25.3 7.36-40.68 27.469-58.95 41.43-74.19 56.66-158.93 188.738-250.57 214.66-65.35 18.481-173.5-63.41-210.04-86.621-101.97-64.777-209.86-132.859-335.319-169.469-56.175-16.39-160.894-13.832-213.718 3.77-73.563 24.519-126.715 71.988-154.762 143.109-57.383 145.5 45.902 307.141 117.914 361.531 34.125 25.77 78.238 49.43 121.598 64.02l84.75 15.06z"/></clipPath></defs><path d="M262.595 264.692c0 47.312-51.111 85.668-114.16 85.668s-114.16-38.356-114.16-85.668c0-47.313 51.111-85.67 114.16-85.67s114.16 38.357 114.16 85.67" fill="#231f20"/><path d="M126.825 115.848c6.19-40.392 25.815-74.344 40.936-94.215l-6.052-7.817C135 45.739 126.531 81.243 125.554 89.386c-16.288-63.843-64.17-58.957-81.109-57.329 16.613 36.483 57.981 65.799 76.874 70.686l1.303 9.772 4.203 3.333" fill="#3370c0"/><path d="M126.825 115.848c6.19-40.392 25.815-74.344 40.936-94.215l-6.052-7.817C135 45.739 126.531 81.243 125.554 89.386c-16.288-63.843-64.17-58.957-81.109-57.329 16.613 36.483 57.981 65.799 76.874 70.686l1.303 9.772z" fill="none" stroke="#231f20" stroke-width="17.332900000000002" stroke-miterlimit="10"/><path d="M125.775 120.727c55.014-37.855 79.876-36.835 116.034-12.182 36.159 24.654 38.46 96.642 32.543 120.308-5.917 23.668-14.792 56.422-43.719 82.448-28.926 26.027-41.417 19.124-50.95 18.795-9.532-.328-30.57-2.957-39.446-4.601-8.874-1.644-14.79-.658-17.421 1.644-2.63 2.3-8.875 8.38-22.681 4.026C86.33 326.81 52.778 306 33.766 273.558c-12.522-21.366-24.026-48.649-23.04-72.645.986-23.996 8.705-60.253 33.857-76.918 25.799-17.094 37.802-18.719 81.192-3.268z" fill="none" stroke="#231f20" stroke-width="21.3328" stroke-miterlimit="10"/><g clip-path="url(#a)" transform="matrix(.13333 0 0 -.13333 0 350.36)"><path d="M2347.78 994.75c0-627.391-555.64-1136-1241.05-1136s-1241.046 508.609-1241.046 1136c0 627.4 555.636 1136 1241.046 1136 685.41 0 1241.05-508.6 1241.05-1136" fill="#255693"/><path d="M1790.52 1964.39c200.45-420.3-119.7-991.199-715.07-1275.12C480.074 405.34-165.055 515.891-365.496 936.199-565.938 1356.5-245.785 1927.39 349.586 2211.32c595.367 283.93 1240.494 173.38 1440.934-246.93" fill="#3370c0"/><path d="M555.879 1813.58c59.723-67.27-.766-218.48-135.102-337.76-134.336-119.27-291.648-161.43-351.367-94.17-59.722 67.27.766 218.48 135.102 337.75 134.336 119.28 291.652 161.44 351.367 94.18" fill="#9ac9e7"/></g><path d="M116.096 205.719c25.203-.504 40.013 13.133 55.199 23.464 5.413 3.682 10.309 8.092 17.585 9.984 7.617 1.98 14.133-3.98 18.073-6.49 6.016-3.833 11.855-6.881 17.586-10.984 5.59-4.001 11.593-9.018 19.049-10.982 6.592-1.736 11.556 1.83 14.167 4.493 9.529 9.72 7.961 31.788 2.442 45.43-3.277 8.1-8.321 15.871-15.142 20.467-1.907 1.284-5.688 3.683-9.771 2.496-3.355-.974-5.392-3.641-7.815-5.49-9.834-7.512-21.068-25.02-33.216-28.456-8.664-2.45-23 8.405-27.844 11.482-13.517 8.587-27.82 17.612-44.45 22.464-7.448 2.173-21.33 1.836-28.332-.498-9.752-3.251-16.799-9.543-20.516-18.97-7.608-19.289 6.085-40.717 15.63-47.928 4.525-3.416 10.373-6.552 16.12-8.486l11.235-1.996" fill="#fff" fill-rule="evenodd"/><path d="M180.087 269.62c14.742-.315 25.394 2.704 25.401 16.973-1.757 1.203-1.984 2.236-4.885 2.496-1.48-2.725-3.366-7.284-5.862-8.985-2.296-1.567-5.605-1.981-9.281-1.997-7.97-.035-12.132 2.11-16.608 5.49-3.25 2.455-4.165 5.682-9.77 5.991l-.489-1.497c-.921-1.214-1.02-2.615 0-3.994 1.471-4.128 11.502-11.21 15.632-12.98 1.815-.777 4.298-.459 5.862-1.497M208.419 301.07h2.442l.488 1.498c3.251 5.419-8.666 9.91-11.724 11.483-14.084 7.248-42.73 9.242-58.617 1.997-4.465-2.037-10.098-3.545-10.257-9.985.392-.51.173-.136.488-.999 1.718-1.141 2.161-2.21 4.885-2.496.668-.244 14.301 6.457 18.073 7.49 16.634 4.55 46.606-.954 54.222-8.988" fill="#fff" fill-rule="evenodd"/><g clip-path="url(#b)" fill="#231f20" transform="matrix(.13333 0 0 -.13333 0 350.36)"><path d="M695.195 393.66h-70.847v324.918h70.847V393.66"/><path d="M648.773 366.789H577.93v324.91h70.843v-324.91M816.527 339.102h-70.843V664.02h70.843V339.102"/><path d="M755.559 323.621h-70.844v324.918h70.844V323.621M1008.82 407.5h-70.851v324.922h70.851V407.5"/><path d="M1050.54 551.641h-70.849v324.918h70.849V551.641"/><path d="M1044.72 569.961h-59.2v324.918h59.2V569.961"/><path d="M1038.33 581.301h-46.42v324.918l23.21 15 23.21-15V581.301"/><path d="M1023.79 664.02h-17.35l5.01 324.91h7.34l5-324.91M1175.66 420.531h-102.51v324.918h102.51V420.531"/><path d="M1116.26 412.68H966.473v241.57h149.787V412.68M1266.05 349.68h-102.51v324.922h102.51V349.68"/><path d="M1349.11 384.699H1246.6v324.922h102.51V384.699M1780.7 343.172h-102.5V668.09h102.5V343.172"/><path d="M1729.45 576.879h-92.5l15 208.512h52.5l25-208.512M1938.69 323.621h-170.1v268.738h170.1V323.621M1367.2 451.07h-22.88v324.918h22.88V451.07M966.473 361.898h-70.848V686.82h70.848V361.898"/><path d="M942.043 339.102h-70.852V664.02h70.852V339.102"/><path d="M887.379 353.672h-70.852v259.859h70.852V353.672M767.57 361.898h-21.886V686.82h21.886V361.898"/><path d="M836.891 317.922h-45.395v395.84l13.649 12.027 9.046 22.973 7.614-21.711 15.086-13.289v-395.84M1683.2 547.16h-58.03v120.93h58.03V547.16M1888.6 551.641h-15.87V654.25h15.87V551.641"/><path d="M1893.49 582.988h-39.85v30.543h39.85v-30.543"/></g><path d="M126.825 115.848c6.19-40.392 25.815-74.344 40.936-94.215l-6.052-7.817C135 45.739 126.531 81.243 125.554 89.386c-16.288-63.843-64.17-58.957-81.109-57.329 16.613 36.483 57.981 65.799 76.874 70.686l1.303 9.772 4.203 3.333" fill="#3370c0"/></svg>