<?xml version="1.0" encoding="utf-8"?>
<!-- Generator: Adobe Illustrator 23.0.2, SVG Export Plug-In . SVG Version: 6.00 Build 0)  -->
<svg version="1.1" id="Layer_1" xmlns="http://www.w3.org/2000/svg" xmlns:xlink="http://www.w3.org/1999/xlink" x="0px" y="0px"
	 viewBox="0 0 500 500" style="enable-background:new 0 0 500 500;" xml:space="preserve">
<style type="text/css">
	.st0{fill:#FFFFFF;}
	.st1{fill:#71CDE5;}
	.st2{fill:#FFDA74;}
	.st3{fill:#65B96D;}
	.st4{fill:#ED2E73;}
	.st5{fill:#64256B;}
	.st6{fill:#ED2B39;}
	.st7{fill:#641C31;}
	.st8{fill:#1F1F1F;}
</style>
<g>
	<g>
		<path class="st8" d="M483.4,225.26c-5.46,0-10.67,3.6-12.39,8.56c-0.33,0.95-10.79,40.51-14.92,56.1l-18.01-64.66h-27.24
			l-18.02,64.54l-17.18-64.54H215.53v86.39c0,7.21,5.87,13.07,13.07,13.07h13.07v-36.8h34.29v-23.95h-34.29v-14.85h46.63v75.59
			h26.15v-36.8h34.29v-23.95h-34.29v-14.85h41.09l22.03,75.59h29.75l16.97-58.04l16.97,58.04h29.75L500,225.26H483.4z"/>
	</g>
	<g>
		<polyline class="st1" points="223.92,70.06 165.81,70.06 13.52,382.18 23.31,382.18 152.29,117.83 170.79,117.83 180.49,97.94 
			210.32,97.94 223.92,70.06 		"/>
		<polyline class="st2" points="41.81,382.18 23.31,382.18 0,429.94 58.12,429.94 67.82,410.06 28.2,410.06 41.81,382.18 		"/>
		<polyline class="st3" points="170.79,117.83 152.29,117.83 23.31,382.18 41.81,382.18 170.79,117.83 		"/>
		<polyline class="st4" points="238.61,97.94 210.32,97.94 200.61,117.83 210.41,117.83 67.82,410.06 86.32,410.06 238.61,97.94 		
			"/>
		<polyline class="st5" points="210.32,97.94 180.49,97.94 170.79,117.83 200.61,117.83 210.32,97.94 		"/>
		<polyline class="st6" points="210.41,117.83 200.61,117.83 71.63,382.18 41.81,382.18 28.2,410.06 67.82,410.06 210.41,117.83 		
			"/>
		<polyline class="st7" points="200.61,117.83 170.79,117.83 41.81,382.18 71.63,382.18 200.61,117.83 		"/>
	</g>
</g>
</svg>
