<svg width="2340.5" height="1151.4" xmlns="http://www.w3.org/2000/svg"><g fill="#142430"><path d="M1432.364.069c-110.949 0-151.636 81.366-176.289 124.515h-2.466C1248.679 61.71 1233.884.07 1119.225.07c-106.024 0-147.943 83.832-167.662 120.817h-2.465V.069L751.849 27.19v24.656c44.383 0 83.833 9.863 83.833 89.997V249.1c39.45-11.094 77.668-20.958 117.12-29.587 9.862-67.807 49.313-150.41 129.447-150.41 43.148 0 55.476 32.054 59.174 123.284a947.376 947.376 0 01118.352 0c2.467 0 4.932 0 7.397 1.232 18.493-60.408 60.408-124.516 120.821-124.516 55.479 0 60.399 35.752 60.399 151.636 38.226 8.63 76.438 17.261 113.424 27.124v-51.78c-1.227-125.75-9.853-196.02-129.45-196.02"/><path d="M1706.09 519.096v-8.63c-1.24 2.466-1.24 4.933-2.466 7.398l-2.467 7.396h-3.706l-2.467-7.396c-1.226-2.465-1.226-4.932-1.226-7.397v16.026h-3.694l1.227-19.725h6.16l2.467 6.164c1.24 2.467 1.24 4.932 1.24 7.397 0-2.465 1.226-4.93 2.466-7.397l2.467-6.164h6.16l1.226 19.725h-4.92zm-28.359-8.63h-4.933v-3.698h14.8v3.699h-4.933v16.026h-4.934zm-117.117-208.34c-101.09-25.89-197.261-49.314-302.045-55.478 0 0-60.408-1.233-62.875-1.233-212.048 1.233-424.096 53.012-633.677 133.146 88.764-23.424 181.222-41.917 273.686-55.478v82.6c0 77.668-19.725 97.393-83.832 97.393v24.657h272.46v-24.657c-56.711 0-73.97-19.725-73.97-97.393v-96.16c65.339-6.166 129.447-9.863 192.316-9.863v106.023c0 77.668-17.26 97.393-73.97 97.393v24.657h261.353v-24.657c-57.942 0-73.969-19.725-73.969-97.393V302.125c65.339 3.699 128.21 16.026 192.315 30.82v72.738c0 77.668-16.026 97.393-73.958 97.393v24.657h272.447v-24.657c-66.572 0-83.825-19.725-83.825-97.393v-45.615c46.84 11.096 94.931 23.425 146.703 34.519 51.786 11.096 72.732-17.26 67.812-36.984-48.092-9.863-216.981-55.478-216.981-55.478M138.183 836.381c20.848 0 27.102-6.253 27.102-31.271v-85.474c0-27.102-12.507-29.186-27.102-29.186v-8.34l64.628-8.338v39.61c6.254-12.51 20.847-39.61 54.203-39.61 37.525 0 41.695 20.847 43.78 41.695 8.34-14.594 20.847-41.695 58.373-41.695 39.61 0 41.695 22.931 41.695 64.626v68.797c0 25.017 6.253 31.271 27.102 31.271v8.339h-87.56v-8.339c18.763 0 25.016-6.254 25.016-31.27v-58.374c0-39.61-2.084-52.119-20.846-52.119-27.102 0-43.78 39.61-43.78 60.459v50.033c0 25.017 6.254 31.271 25.017 31.271v8.339h-83.39v-8.339c18.763 0 25.018-6.254 25.018-31.27V752.99c0-41.693-2.086-56.288-18.764-56.288-31.271 0-43.78 37.526-43.78 60.459v50.033c0 25.017 6.254 31.271 25.018 31.271v8.339h-91.73V836.38M511.347 686.278c25.017 0 31.271 18.762 31.271 41.695h-66.713c0-14.593 8.34-41.695 35.442-41.695zm-35.442 56.29h104.238c0-31.272-8.339-68.799-66.712-68.799-50.033 0-77.135 25.018-77.135 81.306 0 60.457 33.356 93.814 89.644 93.814 22.933 0 43.78-8.34 50.034-10.424v-12.508c-6.255 2.084-18.763 6.254-33.356 6.254-52.118 0-66.713-52.12-66.713-89.643M686.463 828.048c-31.271 0-39.611-29.186-39.611-66.712 0-35.44 8.34-70.882 39.61-70.882 29.187 0 37.525 27.102 37.525 70.882 0 35.44-6.253 66.712-37.524 66.712zm72.966-25.018V590.382l-64.628 8.34v10.424c14.595 0 27.102 2.085 27.102 29.185v62.543c-6.254-10.424-18.762-27.102-45.864-27.102-50.033 0-68.797 37.527-68.797 87.56 0 41.694 12.51 87.56 62.543 87.56 33.356 0 45.864-16.679 54.202-29.188v29.188l62.544-8.34v-8.339c-14.594 0-27.102-2.084-27.102-29.187M799.047 836.381c20.847 0 27.102-6.253 27.102-31.27v-85.475c0-27.102-12.51-29.186-27.102-29.186v-8.34l64.627-8.338v133.423c0 25.017 6.254 31.271 27.102 31.271v8.339h-91.73V836.38M824.06 619.573c0-12.507 10.422-22.931 22.93-22.931s22.932 10.424 22.932 22.931c0 12.51-10.422 22.933-22.931 22.933-14.593 0-22.932-10.424-22.932-22.933M1005.428 788.436c0 27.102-14.594 41.696-35.442 41.696-14.593 0-22.931-12.509-22.931-27.103 0-35.44 43.779-37.525 58.373-37.525zm52.119 47.95c-12.51 0-16.678-8.34-16.678-31.272v-72.966c0-41.695-14.595-60.457-60.458-60.457-29.187 0-66.713 10.423-66.713 37.525 0 12.508 10.424 18.763 20.848 18.763 35.44 0 10.424-43.78 45.865-43.78 25.017 0 25.017 27.103 25.017 47.949v18.763c-22.933 2.084-97.984 4.17-97.984 56.287 0 22.934 22.933 41.696 47.95 41.696 27.101 0 41.694-16.678 50.034-25.018 2.084 12.51 6.253 25.018 29.186 25.018 14.593 0 25.017-2.085 37.526-6.254v-10.424c-4.17 2.085-10.424 4.17-14.593 4.17M1215.996 840.554c-8.34 4.17-25.018 8.339-47.95 8.339-58.372 0-85.473-35.44-85.473-95.899 0-43.779 20.847-81.305 75.05-81.305 29.186 0 60.459 14.593 60.459 37.526 0 14.593-10.426 20.848-22.933 20.848-22.933 0-20.848-25.019-22.933-33.357-4.17-10.424-10.424-12.509-16.677-12.509-22.933 0-31.271 22.934-31.271 60.459 0 37.525 12.508 87.559 60.457 87.559 12.51 0 27.102-4.17 33.357-6.254v14.593h-2.086M1359.833 805.115c-8.347 14.593-25.026 43.78-56.295 43.78-41.694 0-47.95-20.847-47.95-47.949v-81.305c0-27.102-12.507-29.187-27.1-29.187v-8.338l64.628-8.339v97.982c0 43.78 6.253 56.29 27.1 56.29 18.764 0 39.617-37.525 39.617-60.46v-45.864c0-27.1-12.52-29.186-27.108-29.186v-10.423l64.627-8.339V803.03c0 27.103 14.6 29.187 27.106 29.187v8.34l-64.625 8.339v-43.78M1434.897 836.381c20.853 0 27.106-6.253 27.106-31.271v-85.474c0-27.102-12.506-29.186-27.106-29.186v-8.34l64.639-8.338v41.695c6.253-16.678 20.84-41.695 50.025-41.695 8.347 0 20.853 6.254 20.853 18.762s-8.346 20.848-20.853 20.848-10.426-8.34-22.932-8.34c-10.414 0-27.093 22.933-27.093 60.458v41.695c0 25.017 6.253 31.271 27.093 31.271v8.339h-91.732V836.38M1578.76 836.381c20.853 0 27.107-6.253 27.107-31.271v-85.474c0-27.102-12.507-29.186-27.106-29.186v-8.34l64.638-8.338v41.695c6.253-16.678 20.84-41.695 50.025-41.695 8.347 0 20.853 6.254 20.853 18.762s-8.346 20.848-20.853 20.848-10.426-8.34-22.932-8.34c-10.427 0-27.093 22.933-27.093 60.458v41.695c0 25.017 6.253 31.271 27.093 31.271v8.339h-91.731V836.38M1803.955 686.278c25.026 0 31.28 18.762 31.28 41.695h-66.72c0-14.593 8.347-41.695 35.44-41.695zm64.625 139.677c-6.253 2.084-18.76 6.253-33.346 6.253-52.119 0-66.718-52.119-66.718-89.643h104.237c0-31.271-8.333-68.798-66.705-68.798-50.039 0-77.145 25.018-77.145 81.306 0 60.457 33.36 93.813 89.652 93.813 22.932 0 43.772-8.34 50.025-10.424v-12.507M1893.553 836.381c20.84 0 27.092-6.253 27.092-31.271v-85.474c0-27.102-12.506-29.186-27.092-29.186v-8.34l64.625-8.338v43.779c8.333-14.593 25.012-43.78 60.452-43.78 37.532 0 43.785 20.848 43.785 47.95v83.389c0 25.018 6.253 31.271 27.106 31.271v8.34h-91.73v-8.34c20.839 0 27.092-6.253 27.092-31.271v-54.203c0-43.779-6.253-56.288-22.933-56.288-20.84 0-45.852 37.525-45.852 60.458v50.033c0 25.018 6.253 31.271 27.092 31.271v8.34h-91.73l2.093-8.34"/></g><path d="M2197.778 844.732c-6.254 2.085-14.59 4.17-20.83 4.17-33.368 0-60.467-4.17-60.467-47.947V692.553h-29.193V682.13c43.797 0 54.212-37.524 56.292-66.709h10.43v60.457h47.943v14.591h-47.944v108.402c0 25.016 10.416 31.269 29.18 31.269 4.16 0 8.335 0 14.59-2.085v16.677" fill="#142430"/><g fill="#307e9e"><path d="M603.705 997.59H546.13v152.397h-55.034V997.59H433.24v-47.983h170.462v47.983M695.703 1040.481h34.715c3.384 0 6.533-1.875 9.454-5.638 2.913-3.767 4.373-9.036 4.373-15.812 0-6.957-1.694-12.275-5.08-15.946-3.387-3.662-6.771-5.498-10.16-5.498h-33.302zm-55.035 109.507V949.606h92.007c9.781 0 18.813 2.024 27.095 6.07 8.275 4.047 15.38 9.31 21.306 15.804s10.584 13.93 13.972 22.299c3.385 8.375 5.079 16.793 5.079 25.255 0 11.669-2.542 22.54-7.62 32.602-5.083 10.064-12.137 18.3-21.169 24.693l42.334 73.662h-62.09l-35.279-61.53h-20.6v61.53h-55.035M942.936 1074.067l-17.78-62.088-18.628 62.088zm-42.899-124.463h50.237l69.43 200.381h-55.881l-12.137-39.23h-53.342l-11.851 39.23h-56.164l69.708-200.381M1053.28 1149.988V949.606h55.035v200.382h-55.035M1214.716 1051.493v98.495h-55.034V949.606h42.9l80.433 101.89v-101.89h55.033v200.382h-43.746l-79.586-98.495M1389.432 1149.988V949.606h55.025v200.382h-55.025M1550.895 1051.493v98.495h-55.04V949.606h42.907l80.438 101.89v-101.89h55.025v200.382h-43.746l-79.584-98.495M1861.553 1133.338c-14.293 12.038-30.759 18.062-49.385 18.062-12.973 0-25.4-2.307-37.252-6.919-11.853-4.604-22.2-11.333-31.04-20.18-8.853-8.839-15.906-19.655-21.172-32.454-5.267-12.792-7.894-27.374-7.894-43.742 0-14.11 2.627-27.24 7.894-39.372 5.266-12.135 12.506-22.668 21.732-31.607 9.213-8.936 20.08-15.995 32.6-21.17 12.506-5.168 26.012-7.764 40.505-7.764 9.027 0 17.68.989 25.96 2.964 8.28 1.975 15.946 4.894 22.999 8.753s13.4 8.463 19.053 13.827c5.64 5.364 10.253 11.428 13.826 18.204l-40.919 31.326c-3.946-7.899-9.88-14.25-17.786-19.05-7.893-4.794-16.28-7.194-25.12-7.194-6.586 0-12.612 1.318-18.052 3.946-5.467 2.642-10.16 6.313-14.12 11.011-3.946 4.707-7.053 10.299-9.306 16.793-2.267 6.493-3.4 13.592-3.4 21.31 0 7.897 1.133 15.05 3.4 21.443 2.253 6.4 5.4 11.906 9.453 16.516 4.04 4.612 8.88 8.181 14.533 10.723 5.64 2.541 11.946 3.81 18.906 3.81 15.986 0 30.106-6.586 42.332-19.755h-34.719v-39.514h82.425v106.683h-45.453v-16.65"/></g><path d="M127.347 764.156H3.443v289.113h426.789" fill="none" stroke="#f14b1c" stroke-miterlimit="10" stroke-width="6.883561240000001"/><path d="M2195.851 764.158h141.119v289.105h-371.7" fill="none" stroke="#f14b1c" stroke-miterlimit="10" stroke-width="6.88348044"/></svg>