<?xml version="1.0" encoding="UTF-8"?>
<svg width="197px" height="257px" viewBox="0 0 197 257" version="1.1" xmlns="http://www.w3.org/2000/svg" xmlns:xlink="http://www.w3.org/1999/xlink">
    <!-- Generator: Sketch 50.2 (55047) - http://www.bohemiancoding.com/sketch -->
    <title>drupaleurope-logo</title>
    <desc>Created with Sketch.</desc>
    <defs></defs>
    <g id="Page-1" stroke="none" stroke-width="1" fill="none" fill-rule="evenodd">
        <g id="Icon" fill="#FFFFFF" fill-rule="nonzero">
            <path d="M71,147.47 C72.2257264,144.726311 73.7303042,142.115919 75.49,139.68 L69.77,134.15 C66.9405779,137.817813 64.6258168,141.855187 62.89,146.15 L71,147.47 Z" id="Shape"></path>
            <path d="M73.6,177 C71.790398,174.382169 70.4097361,171.492568 69.51,168.44 L62.42,173.2 C63.8647048,177.186116 65.9634376,180.903678 68.63,184.2 L73.6,177 Z" id="Shape"></path>
            <path d="M87.81,188.15 C85.0028145,187.092018 82.3701949,185.618965 80,183.78 L75.57,190.93 C78.7122061,193.270166 82.1964803,195.111806 85.9,196.39 L87.81,188.15 Z" id="Shape"></path>
            <path d="M128.38,160 C128.38,160.6 128.38,161.2 128.32,161.79 L136.05,166.19 C136.725865,161.835808 136.648065,157.397827 135.82,153.07 L127.66,153.43 C128.139403,155.587103 128.380846,157.790267 128.38,160 Z" id="Shape"></path>
            <path d="M68.29,160 C68.2869558,157.780238 68.5284116,155.566893 69.01,153.4 L60.85,153 C60.0153493,157.337017 59.9341618,161.785415 60.61,166.15 L68.34,161.75 C68.31,161.2 68.29,160.6 68.29,160 Z" id="Shape"></path>
            <path d="M80.4,133.5 C82.46,131.17 84.67,128.88 86.94,126.58 L84.81,117.78 L82.62,120 C80.24,122.37 77.8,124.82 75.43,127.39 L80.4,133.5 Z" id="Shape"></path>
            <path d="M121.13,190.91 L116.7,183.76 C114.332875,185.598097 111.703684,187.071118 108.9,188.13 L110.82,196.38 C114.517136,195.096844 117.994573,193.25188 121.13,190.91 Z" id="Shape"></path>
            <path d="M93.73,119.75 C95.29,118.16 96.84,116.54 98.33,114.9 C99.84,116.57 101.4,118.2 102.98,119.81 C103.39,116.58 103.83,113.15 104.29,109.55 C101.561143,106.402337 99.5177566,102.720836 98.29,98.74 C97.08524,102.693745 95.0727763,106.354318 92.38,109.49 C92.89,113.08 93.32,116.52 93.73,119.75 Z" id="Shape"></path>
            <path d="M116.31,133.55 L121.31,127.42 C118.93,124.83 116.47,122.42 114.08,119.98 L111.94,117.83 L109.81,126.63 C112,128.92 114.26,131.22 116.31,133.55 Z" id="Shape"></path>
            <path d="M100.86,189.94 C100.03,190.01 99.18,190.05 98.33,190.05 C97.48,190.05 96.53,190.05 95.64,189.92 L94.14,198.24 C96.8487611,198.5331 99.5812389,198.5331 102.29,198.24 L100.86,189.94 Z" id="Shape"></path>
            <path d="M127.16,168.47 C126.263533,171.514004 124.88979,174.396502 123.09,177.01 L128.09,184.22 C130.749483,180.922256 132.841411,177.204774 134.28,173.22 L127.16,168.47 Z" id="Shape"></path>
            <path d="M121.25,139.72 C122.998755,142.15048 124.493263,144.754141 125.71,147.49 L133.82,146.14 C132.094309,141.846471 129.789628,137.809074 126.97,134.14 L121.25,139.72 Z" id="Shape"></path>
            <path d="M15.75,159.14 C15.7548799,156.163403 15.9184453,153.189182 16.24,150.23 L0.42,149.53 C0.15,152.53 -2.01679764e-14,155.53 -2.01679764e-14,158.62 C-0.0105448562,171.356487 2.46578122,183.972502 7.29,195.76 L21,188 C17.534,178.772528 15.7556974,168.996945 15.75,159.14 Z" id="Shape"></path>
            <path d="M160.86,77.69 C153.69,69.62 146.11,62.04 138.8,54.69 C135.56,51.45 132.35,48.25 129.24,45.05 L125,62.6 C134.12,71.72 143,80.75 150.87,90.02 L160.86,77.69 Z" id="Shape"></path>
            <path d="M25.21,197.46 L12.27,206.15 C17.969309,216.426679 25.4527433,225.606584 34.37,233.26 L43.14,220.53 C35.8478667,213.959167 29.777409,206.148489 25.21,197.46 Z" id="Shape"></path>
            <path d="M171.46,197.46 C166.893608,206.140569 160.826679,213.944292 153.54,220.51 L162.31,233.24 C171.218237,225.590823 178.694708,216.417924 184.39,206.15 L171.46,197.46 Z" id="Shape"></path>
            <path d="M180.92,159.13 C180.928075,168.987849 179.163323,178.76681 175.71,188 L189.38,195.77 C194.205002,183.97924 196.681333,171.359801 196.67,158.62 C196.67,155.52 196.52,152.5 196.25,149.54 L180.43,150.25 C180.750473,153.199234 180.914037,156.163411 180.92,159.13 Z" id="Shape"></path>
            <path d="M45.84,90 C53.73,80.72 62.6,71.7 71.71,62.57 L67.48,45 C64.35,48.22 61.12,51.44 57.87,54.69 C50.56,62 43,69.59 35.85,77.64 L45.84,90 Z" id="Shape"></path>
            <path d="M84.65,49.55 C89.3,44.83 93.9,40.05 98.33,35.16 C102.78,40.07 107.4,44.87 112.07,49.61 C112.97,42.85 113.89,36.02 114.8,29.21 C107.06,19.79 101,10.2 98.33,0 C95.64,10.17 89.63,19.74 81.92,29.15 C82.83,36 83.75,42.78 84.65,49.55 Z" id="Shape"></path>
            <path d="M159.9,101.43 C168.22,112.82 174.73,124.79 178.18,137.95 L193.9,135.33 C189.8,118.33 181.47,103.62 171.35,90.33 L159.9,101.43 Z" id="Shape"></path>
            <path d="M109.8,240.93 C102.000981,242.040792 94.0822663,242.017214 86.29,240.86 L83.59,255.86 C93.1334286,257.301881 102.836789,257.335573 112.39,255.96 L109.8,240.93 Z" id="Shape"></path>
            <path d="M75.91,238.62 C67.5367092,236.257984 59.5912517,232.582282 52.37,227.73 C49.66,232.15 46.97,236.54 44.37,240.79 C53.0000065,246.483067 62.477488,250.77291 72.45,253.5 L75.91,238.62 Z" id="Shape"></path>
            <path d="M152.32,240.78 C149.72,236.52 147.04,232.14 144.32,227.71 C137.104812,232.560228 129.166269,236.235854 120.8,238.6 L124.26,253.48 C134.224953,250.754039 143.695512,246.467649 152.32,240.78 Z" id="Shape"></path>
            <path d="M18.48,138 C21.93,124.81 28.48,112.82 36.8,101.4 L25.35,90.3 C15.2,103.59 6.86,118.3 2.75,135.38 L18.48,138 Z" id="Shape"></path>
            <path d="M139.84,103.34 C135.28,98.29 130.5,93.52 125.84,88.9 C123.84,86.9 121.84,84.9 119.92,82.9 L116.19,98.34 C121.41,103.58 126.48,108.77 131.07,114.08 L139.84,103.34 Z" id="Shape"></path>
            <path d="M65.6,114.08 C70.19,108.77 75.26,103.57 80.48,98.33 L76.75,82.89 C74.75,84.89 72.8,86.89 70.75,88.89 C66.14,93.49 61.38,98.25 56.83,103.28 L65.6,114.08 Z" id="Shape"></path>
            <path d="M45.65,159.09 C45.6501734,156.469275 45.8440347,153.852147 46.23,151.26 L32,150.63 C31.6011774,153.613429 31.4007372,156.620032 31.4,159.63 C31.3970645,166.568299 32.476716,173.464573 34.6,180.07 L47.46,172.76 C46.2591903,168.302547 45.6506249,163.706366 45.65,159.09 Z" id="Shape"></path>
            <path d="M151,159.09 C150.998382,163.70301 150.389826,168.295757 149.19,172.75 L162.05,180.06 C164.172965,173.454497 165.252609,166.558274 165.25,159.62 C165.252578,156.610254 165.055478,153.603652 164.66,150.62 L150.42,151.26 C150.805965,153.852147 150.999827,156.469275 151,159.09 Z" id="Shape"></path>
            <path d="M50.19,180.45 L38,188.63 C41.4544288,195.766415 46.1432433,202.235963 51.85,207.74 L60.28,195.5 C56.0756773,191.101337 52.6622259,186.009916 50.19,180.45 Z" id="Shape"></path>
            <path d="M146.48,180.45 C144.002599,185.992099 140.589399,191.066231 136.39,195.45 L144.83,207.69 C150.527698,202.1903 155.209568,195.727761 158.66,188.6 L146.48,180.45 Z" id="Shape"></path>
            <path d="M136.44,214.62 L128.72,202.1 C124.226708,205.290534 119.259267,207.754007 114,209.4 L117.35,223.8 C124.161769,221.776579 130.606377,218.677496 136.44,214.62 Z" id="Shape"></path>
            <path d="M104.81,211.38 C100.395575,211.959061 95.9244248,211.959061 91.51,211.38 L88.89,225.94 C95.0000189,226.825575 101.204345,226.845774 107.32,226 L104.81,211.38 Z" id="Shape"></path>
            <path d="M48.25,142.64 C50.7141727,135.376966 54.322994,128.554302 58.94,122.43 L48.94,112.75 C42.61,121 37.27,130 34.2,140.32 L48.25,142.64 Z" id="Shape"></path>
            <path d="M89.89,88.88 C92.76,86 95.6,83 98.33,80 C101.08,83 103.94,86 106.82,88.94 C107.57,83.19 108.36,77.21 109.17,71.08 C104.08,64.81 100.12,58.43 98.33,51.65 C96.55,58.4 92.6,64.76 87.54,71 C88.35,77.15 89.14,83.13 89.89,88.88 Z" id="Shape"></path>
            <path d="M137.76,122.47 C142.363556,128.58353 145.962127,135.39246 148.42,142.64 L162.42,140.3 C159.36,130.03 154.03,121.01 147.72,112.79 L137.76,122.47 Z" id="Shape"></path>
            <path d="M82.66,209.41 C77.4077143,207.762073 72.4471561,205.298667 67.96,202.11 L60.24,214.63 C66.0681403,218.682074 72.5058238,221.777698 79.31,223.8 L82.66,209.41 Z" id="Shape"></path>
        </g>
    </g>
</svg>