<svg version="1.1" id="Layer_1" xmlns="http://www.w3.org/2000/svg" xmlns:xlink="http://www.w3.org/1999/xlink"><style>.st2{stroke:#000;stroke-width:15.4282;stroke-miterlimit:10}.st3{fill:#f58223}.st6{fill:#0273bb}.st8{fill-rule:evenodd;clip-rule:evenodd;fill:#fff}.st11{stroke:#000;stroke-width:13.2378;stroke-miterlimit:10}.st12{fill:#94d9f8}.st13{fill:#ffd600}.st14{fill:#add136}</style><path d="M406.6,316.9c5.4-35.2,22.5-64.8,35.7-82.1l-5.3-6.8c-23.3,27.8-30.7,58.8-31.5,65.9	c-14.2-55.6-55.9-51.4-70.7-50c14.5,31.8,50.5,57.3,67,61.6l1.1,8.5L406.6,316.9z" fill="#0273bb" stroke="#000" stroke-width="15.1" stroke-miterlimit="10"/><path d="M405.6,321.1c47.9-33,69.6-32.1,101.1-10.6c31.5,21.5,33.5,84.2,28.4,104.9c-5.2,20.6-12.9,49.2-38.1,71.9	c-25.2,22.7-36.1,16.7-44.4,16.4c-8.3-0.3-26.6-2.6-34.4-4c-7.7-1.4-12.9-0.6-15.2,1.4c-2.3,2-7.7,7.3-19.8,3.5	c-12-3.8-41.3-21.9-57.8-50.2c-10.9-18.6-20.9-42.4-20.1-63.3c0.9-20.9,7.6-52.5,29.5-67C357.4,309.1,367.8,307.7,405.6,321.1z" fill-rule="evenodd" clip-rule="evenodd" fill="none" stroke="#000" stroke-width="18.6" stroke-miterlimit="10"/><path class="st2" d="M532.3,514.5c0,0,53.7-61.3-2-46l-5.8-21c36.4-3.9,97.8,1.9,38.4,59.3l34.4,1.9v9.7L532.3,514.5z"/><path class="st2" d="M683.3 469.6c5.7 18-8.4 38.8-32.2 46.2-23.3 7.4-47.2-1.4-53-19.4-5.8-18.3 8.9-38.9 32.2-46.4 23.4-7.4 47.1 1.2 52.9 19.7H683.3zM668.1 469.1c-2.6-7.7-15.8-10-29.5-5.6-14.2 4.4-23.3 14.1-21.1 21.3 2.3 7.7 15.7 10.2 29.4 5.8 13.8-4.4 23.6-14.2 21.1-21.4L668.1 469.1zM693.9 514.5c0 0 53.7-61.3-2-46l-5.8-21c36.4-3.9 97.8 1.9 38.4 59.3l34.4 1.9v9.7L693.9 514.5zM796.3 527.1l-16.8 2.6-1.9-77.1-18.8 3.4-1.2-12.7 39.5 2.9L796.3 527.1z"/><path class="st3" d="M533.8,514.5c0,0,53.7-61.3-2-46l-5.8-21c36.4-3.9,97.8,1.9,38.4,59.3l34.4,1.9v9.7L533.8,514.5z"/><path class="st3" d="M684.8 469.6c5.7 18-8.4 38.8-32.2 46.2-23.3 7.4-47.2-1.4-53-19.4-5.8-18.3 8.9-38.9 32.2-46.4 23.4-7.4 47.1 1.2 52.9 19.7H684.8zM669.6 469.1c-2.6-7.7-15.8-10-29.5-5.6-14.2 4.4-23.3 14.1-21.1 21.3 2.3 7.7 15.7 10.2 29.4 5.8 13.8-4.4 23.6-14.2 21.1-21.4L669.6 469.1zM695.4 514.5c0 0 53.7-61.3-2-46l-5.8-21c36.4-3.9 97.8 1.9 38.4 59.3l34.4 1.9v9.7L695.4 514.5zM797.8 527.1l-16.8 2.6-1.9-77.1-18.8 3.4-1.2-12.7 39.5 2.9L797.8 527.1z"/><defs><path id="SVGID_1_" d="M405.6,321.1c47.9-33,69.6-32.1,101.1-10.6c31.5,21.5,33.5,84.2,28.4,104.9c-5.2,20.6-12.9,49.2-38.1,71.9 c-25.2,22.7-36.1,16.7-44.4,16.4c-8.3-0.3-26.6-2.6-34.4-4c-7.7-1.4-12.9-0.6-15.2,1.4c-2.3,2-7.7,7.3-19.8,3.5 c-12-3.8-41.3-21.9-57.8-50.2c-10.9-18.6-20.9-42.4-20.1-63.3c0.9-20.9,7.6-52.5,29.5-67C357.4,309.1,367.8,307.7,405.6,321.1z"/></defs><clipPath id="SVGID_2_"><use xlink:href="#SVGID_1_" overflow="visible"/></clipPath><g clip-path="url(#SVGID_2_)"><ellipse cx="424.6" cy="405.7" rx="144.2" ry="132" fill="#00598e"/><ellipse transform="rotate(-25 379 353)" class="st6" cx="378.8" cy="352.7" rx="138.8" ry="98"/><ellipse transform="rotate(-42 332 336)" cx="332.4" cy="335.6" rx="37.8" ry="18.9" fill="#94c5e2"/></g><path class="st8" d="M397.2,395.2c22-0.4,34.9,11.4,48.1,20.4c4.7,3.2,9,7.1,15.3,8.7c6.6,1.7,12.3-3.5,15.8-5.7 c5.2-3.3,10.3-6,15.3-9.6c4.9-3.5,10.1-7.9,16.6-9.6c5.7-1.5,10.1,1.6,12.3,3.9c8.3,8.5,6.9,27.7,2.1,39.6 c-2.9,7.1-7.3,13.8-13.2,17.8c-1.7,1.1-5,3.2-8.5,2.2c-2.9-0.8-4.7-3.2-6.8-4.8c-8.6-6.5-18.4-21.8-28.9-24.8 c-7.5-2.1-20,7.3-24.3,10c-11.8,7.5-24.2,15.3-38.7,19.6c-6.5,1.9-18.6,1.6-24.7-0.4c-8.5-2.8-14.6-8.3-17.9-16.5 c-6.6-16.8,5.3-35.5,13.6-41.8c3.9-3,9-5.7,14-7.4C390.7,396.3,393.9,395.8,397.2,395.2z"/><path class="st8" d="M453 450.9c12.8-.3 22.1 2.4 22.1 14.8-1.5 1-1.7 1.9-4.3 2.2-1.3-2.4-2.9-6.3-5.1-7.8-2-1.4-4.9-1.7-8.1-1.7-6.9 0-10.6 1.8-14.5 4.8-2.8 2.1-3.6 5-8.5 5.2-.1-.4-.3-.9-.4-1.3-.8-1.1-.9-2.3 0-3.5 1.3-3.6 10-9.8 13.6-11.3C449.4 451.5 451.6 451.8 453 450.9zM477.7 478.3c.7 0 1.4 0 2.1 0 .1.4.3.9.4 1.3 2.8 4.7-7.6 8.6-10.2 10-12.3 6.3-37.2 8.1-51.1 1.7-3.9-1.8-8.8-3.1-8.9-8.7.3-.4.2-.1.4-.9 1.5-1 1.9-1.9 4.3-2.2.6-.2 12.5 5.6 15.8 6.5C444.9 490.1 471 485.3 477.7 478.3z"/><g><defs><path id="SVGID_3_" d="M396.9,395.2c22.1-0.4,35.1,11.5,48.4,20.6c4.7,3.2,9,7.1,15.4,8.8c6.7,1.7,12.4-3.5,15.8-5.7 c5.3-3.4,10.4-6,15.4-9.6c4.9-3.5,10.2-7.9,16.7-9.6c5.8-1.5,10.1,1.6,12.4,3.9c8.4,8.5,7,27.9,2.1,39.8 c-2.9,7.1-7.3,13.9-13.3,17.9c-1.7,1.1-5,3.2-8.6,2.2c-2.9-0.9-4.7-3.2-6.9-4.8c-8.6-6.6-18.5-21.9-29.1-24.9 c-7.6-2.1-20.2,7.4-24.4,10.1c-11.8,7.5-24.4,15.4-39,19.7c-6.5,1.9-18.7,1.6-24.8-0.4c-8.5-2.8-14.7-8.4-18-16.6 c-6.7-16.9,5.3-35.7,13.7-42c4-3,9.1-5.7,14.1-7.4C390.4,396.4,393.7,395.8,396.9,395.2z"/></defs><clipPath id="SVGID_4_"><use xlink:href="#SVGID_3_" overflow="visible"/></clipPath><g clip-path="url(#SVGID_4_)"><path d="M368.6 437.7H376.8V475.5H368.6z"/><path d="M363.2 440.9H371.4V478.7H363.2zM382.7 444.1H390.9V481.90000000000003H382.7z"/><path d="M375.6 445.9H383.8V483.7H375.6zM405 436.1H413.2V473.90000000000003H405z"/><path d="M409.9 419.4H418.09999999999997V457.2H409.9z"/><path d="M410.5 417.3H417.4V455.1H410.5z"/><path d="M416.7 453.7L411.3 453.7 411.3 415.9 414 414.2 416.7 415.9z"/><path d="M415 444.1L413 444.1 413.6 406.3 414.4 406.3zM420.7 434.6H432.59999999999997V472.40000000000003H420.7z"/><path d="M408.3 445.2H425.7V473.3H408.3zM431.2 442.9H443.09999999999997V480.7H431.2z"/><path d="M440.9 438.8H452.79999999999995V476.6H440.9zM491 443.6H502.9V481.40000000000003H491z"/><path d="M497 454.2L486.2 454.2 488 430 494.1 430zM501.5 452.4H521.3V483.59999999999997H501.5zM452.2 431.1H454.9V468.90000000000003H452.2zM400.1 441.4H408.3V479.2H400.1z"/><path d="M397.3 444.1H405.5V481.90000000000003H397.3z"/><path d="M390.9 450H399.09999999999997V480.2H390.9zM382.7 441.4H385.2V479.2H382.7z"/><path d="M393.3 484.3L388 484.3 388 438.3 389.6 436.9 390.6 434.2 391.5 436.8 393.3 438.3zM484.9 443.6H491.59999999999997V457.70000000000005H484.9zM513.6 445.2H515.4V457.09999999999997H513.6z"/><path d="M511.4 450H516V453.5H511.4z"/></g></g><path class="st6" d="M406.6,316.9c5.4-35.2,22.5-64.8,35.7-82.1l-5.3-6.8c-23.3,27.8-30.7,58.8-31.5,65.9	c-14.2-55.6-55.9-51.4-70.7-50c14.5,31.8,50.5,57.3,67,61.6l1.1,8.5L406.6,316.9z"/><path d="M405.6,321.1c47.9-33,69.6-32.1,101.1-10.6c31.5,21.5,33.5,84.2,28.4,104.9c-5.2,20.6-12.9,49.2-38.1,71.9	c-25.2,22.7-36.1,16.7-44.4,16.4c-8.3-0.3-26.6-2.6-34.4-4c-7.7-1.4-12.9-0.6-15.2,1.4c-2.3,2-7.7,7.3-19.8,3.5	c-12-3.8-41.3-21.9-57.8-50.2c-10.9-18.6-20.9-42.4-20.1-63.3c0.9-20.9,7.6-52.5,29.5-67C357.4,309.1,367.8,307.7,405.6,321.1z" fill-rule="evenodd" clip-rule="evenodd" fill="none"/><g><path class="st11" d="M606.5,441.5l-52.3-30.9l3,32.2H549l-4.3-64.4l64.1,39.7l-2.3-32.2h8.2l4,53L606.5,441.5z"/><path class="st11" d="M644 447l-5.9-2.6 15.1-25.4-43.7-29.5 14.9-17.4 38.4 34.5 15.8-25.4 13.4 7.2L644 447zM751.4 378l2.3 15.2c-37.2 18.1-85.2 47.7 15.2 39.7l.3 4.3C668.2 465.1 655.1 391.8 751.4 378z"/></g><g><path class="st11" d="M544.9 303.1l2.3 15.2C510.1 336.4 462 366 562.4 358l.3 4.3C461.7 390.3 448.6 317 544.9 303.1zM611.9 366.2l-12.8-27.9-16.5-1-13.8 32.9-5.9-2.3 25.6-68.3 14.5 2.6 27.4 52.3L611.9 366.2zM589.6 314.6l-5.2 15.8 12.1.3L589.6 314.6zM724.4 371.8l-21.3-45.4L681.3 384l-35.5-47.4-5.2 38.8-8.9-2.3 8.9-75.3 44.4 53.7 27.6-71.4 32.9 83.2L724.4 371.8zM763.7 361.5l2.3 11.8-9.5 2.7-14.5-71 12.9-4c71.2-21.9 52.2 11.5 38.1 34.2C790.3 339.5 763.7 361.5 763.7 361.5zM761.4 344.7c17.1-19.4 33.8-46-5-34.9L761.4 344.7 761.4 344.7z"/></g><g><path class="st12" d="M606.5,441.5l-52.3-30.9l3,32.2H549l-4.3-64.4l64.1,39.7l-2.3-32.2h8.2l4,53L606.5,441.5z"/><path class="st12" d="M644 447l-5.9-2.6 15.1-25.4-43.7-29.5 14.9-17.4 38.4 34.5 15.8-25.4 13.4 7.2L644 447zM751.4 378l2.3 15.2c-37.2 18.1-85.2 47.7 15.2 39.7l.3 4.3C668.2 465.1 655.1 391.8 751.4 378z"/></g><g><path class="st11" d="M467.2,297.6l-5.4-61.9h-0.1l-0.5-4.4c98.9-27.3,113.5,41.7,16.5,64l0.1,0.2L467.2,297.6z M475.7,277.7 c41.6-23,78.4-48.1-5.2-42.7L475.7,277.7L475.7,277.7z"/><path class="st11" d="M613.8,296.5l-43.1-27.9c-3.2,2-11.2,4.7-11.2,4.7l-1,9.8h-8.2l5-58.5l11.2-0.3c59.9,3.9,36.2,21,20.1,35.5 l37.7,24.3L613.8,296.5z M561.5,259.6c17.7-11.2,36.5-28.2,4-28.2L561.5,259.6z"/><path class="st11" d="M669.7 229.5c4.3 82.2-58.8 83.5-52.2-5l3.7-.4c9.8 84.5 26.6 39.8 35.5 5.9L669.7 229.5 669.7 229.5zM698.2 283.6l2.3 11.8-9.5 2.7-14.5-71 12.9-4c71.2-21.9 52.2 11.5 38.1 34.2C724.8 261.6 698.2 283.6 698.2 283.6zM695.9 266.9c17.1-19.4 33.8-46-5-34.9L695.9 266.9 695.9 266.9zM778.5 288.4l-12.8-27.9-16.5-1-13.8 32.9-5.9-2.3 25.6-68.3 14.5 2.6 27.4 52.3L778.5 288.4zM756.2 236.8l-5.2 15.8 12.1.3L756.2 236.8zM814.5 297.5l-19.4-75.3 25.6-8.5 8.9 67 34.6-6.2 1.9 10.5L814.5 297.5z"/></g><g><path class="st13" d="M467.2,297.6l-5.4-61.9h-0.1l-0.5-4.4c98.9-27.3,113.5,41.7,16.5,64l0.1,0.2L467.2,297.6z M475.7,277.7 c41.6-23,78.4-48.1-5.2-42.7L475.7,277.7L475.7,277.7z"/><path class="st13" d="M613.8,296.5l-43.1-27.9c-3.2,2-11.2,4.7-11.2,4.7l-1,9.8h-8.2l5-58.5l11.2-0.3c59.9,3.9,36.2,21,20.1,35.5 l37.7,24.3L613.8,296.5z M561.5,259.6c17.7-11.2,36.5-28.2,4-28.2L561.5,259.6z"/><path class="st13" d="M669.7 229.5c4.3 82.2-58.8 83.5-52.2-5l3.7-.4c9.8 84.5 26.6 39.8 35.5 5.9L669.7 229.5 669.7 229.5zM698.2 283.6l2.3 11.8-9.5 2.7-14.5-71 12.9-4c71.2-21.9 52.2 11.5 38.1 34.2C724.8 261.6 698.2 283.6 698.2 283.6zM695.9 266.9c17.1-19.4 33.8-46-5-34.9L695.9 266.9 695.9 266.9zM778.5 288.4l-12.8-27.9-16.5-1-13.8 32.9-5.9-2.3 25.6-68.3 14.5 2.6 27.4 52.3L778.5 288.4zM756.2 236.8l-5.2 15.8 12.1.3L756.2 236.8zM814.5 297.5l-19.4-75.3 25.6-8.5 8.9 67 34.6-6.2 1.9 10.5L814.5 297.5z"/></g><g><path class="st14" d="M544.9 303.1l2.3 15.2C510.1 336.4 462 366 562.4 358l.3 4.3C461.7 390.3 448.6 317 544.9 303.1zM611.9 366.2l-12.8-27.9-16.5-1-13.8 32.9-5.9-2.3 25.6-68.3 14.5 2.6 27.4 52.3L611.9 366.2zM589.6 314.6l-5.2 15.8 12.1.3L589.6 314.6zM724.4 371.8l-21.3-45.4L681.3 384l-35.5-47.4-5.2 38.8-8.9-2.3 8.9-75.3 44.4 53.7 27.6-71.4 32.9 83.2L724.4 371.8zM763.7 361.5l2.3 11.8-9.5 2.7-14.5-71 12.9-4c71.2-21.9 52.2 11.5 38.1 34.2C790.3 339.5 763.7 361.5 763.7 361.5zM761.4 344.7c17.1-19.4 33.8-46-5-34.9L761.4 344.7 761.4 344.7z"/></g></svg>