<?xml version="1.0" encoding="UTF-8" standalone="no"?>
<svg
   xmlns:dc="http://purl.org/dc/elements/1.1/"
   xmlns:cc="http://creativecommons.org/ns#"
   xmlns:rdf="http://www.w3.org/1999/02/22-rdf-syntax-ns#"
   xmlns:svg="http://www.w3.org/2000/svg"
   xmlns="http://www.w3.org/2000/svg"
   viewBox="0 0 488 169.33333"
   height="169.33333"
   width="488"
   xml:space="preserve"
   id="svg2"
   version="1.1"><metadata
     id="metadata8"><rdf:RDF><cc:Work
         rdf:about=""><dc:format>image/svg+xml</dc:format><dc:type
           rdf:resource="http://purl.org/dc/dcmitype/StillImage" /></cc:Work></rdf:RDF></metadata><defs
     id="defs6"><clipPath
       id="clipPath32"
       clipPathUnits="userSpaceOnUse"><path
         id="path30"
         d="m 3065.74,584.102 h -224.18 c -16.31,0.019 -32.34,-4.297 -46.49,-12.5 -14.14,-8.215 -25.9,-20.032 -34.1,-34.266 l -112,-195.969 c -8.13,-14.219 -12.41,-30.351 -12.41,-46.769 0,-16.422 4.28,-32.547 12.41,-46.77 l 112,-196.4374 c 8.21,-14.2304 19.97,-26.0312 34.12,-34.2422 14.14,-8.20699 30.16,-12.52731 46.47,-12.52731 h 224.18 c 16.31,0 32.34,4.32032 46.48,12.52731 14.14,8.211 25.91,20.0118 34.11,34.2422 l 112,196.4374 c 8.13,14.223 12.41,30.348 12.41,46.77 0,16.418 -4.28,32.55 -12.41,46.769 l -112,195.969 c -8.19,14.234 -19.95,26.051 -34.1,34.266 -14.14,8.203 -30.18,12.519 -46.49,12.5 z m -10.47,-112.247 101.9,-177.722 -101.9,-177.735 h -203.24 l -101.9,177.735 101.9,177.722 z" /></clipPath><linearGradient
       id="linearGradient38"
       spreadMethod="pad"
       gradientTransform="matrix(402.26,500.08,-500.08,402.26,2732.2,19.07)"
       gradientUnits="userSpaceOnUse"
       y2="0"
       x2="1"
       y1="0"
       x1="0"><stop
         id="stop34"
         offset="0"
         style="stop-opacity:1;stop-color:#50a1de" /><stop
         id="stop36"
         offset="1"
         style="stop-opacity:1;stop-color:#82d6ed" /></linearGradient></defs><g
     transform="matrix(1.3333333,0,0,-1.3333333,0,169.33333)"
     id="g10"><g
       transform="scale(0.1)"
       id="g12"><path
         id="path14"
         style="fill:#222124;fill-opacity:1;fill-rule:nonzero;stroke:none"
         d="m 372.395,575.496 c 0.785,16.137 -2.153,32.227 -8.582,47.016 -6.43,14.789 -16.18,27.863 -28.469,38.195 -24.336,20.332 -58.797,30.465 -103.387,30.402 H 129.223 V 442.852 h 100.976 c 37.473,-1.243 73.977,12.16 101.903,37.421 13.109,12 23.496,26.731 30.449,43.165 6.957,16.433 10.308,34.191 9.844,52.058 z M 390.273,14.2617 295.879,240.809 c -25.387,61.359 -61.051,92.043 -106.996,92.043 h -59.66 V 14.2617 H 0 V 799.988 h 251.316 c 81.399,0 144.547,-18.703 189.442,-56.121 44.902,-37.418 67.347,-89.488 67.347,-156.211 1.391,-50.246 -14.628,-99.414 -45.296,-139.004 -32.188,-39.367 -76.403,-66.836 -125.707,-78.105 v -2.149 c 19.293,-7.968 36.214,-20.859 49.093,-37.421 16.075,-17.93 29.18,-38.372 38.817,-60.516 L 543.953,14.2617 h -153.68" /><path
         id="path16"
         style="fill:#222124;fill-opacity:1;fill-rule:nonzero;stroke:none"
         d="m 953.645,352.781 c 0,44.59 -10.317,78.574 -30.942,101.953 -20.629,23.391 -49.558,35.079 -86.801,35.079 -16.543,0.136 -32.937,-3.18 -48.16,-9.723 -15.219,-6.555 -28.937,-16.203 -40.304,-28.344 -25.813,-27.051 -42.372,-61.726 -47.243,-98.965 z m -253.45,-95.32 c 2.532,-51.191 17.969,-90.141 46.313,-116.832 28.351,-26.688 68.707,-40 121.074,-39.938 30.824,-0.14 61.449,4.95 90.602,15.059 27.082,9.059 52.706,22.078 76.056,38.629 V 47.4688 C 1008.03,31.5 979.391,20.0313 949.473,13.5117 912.602,4.46875 874.773,-0.0195313 836.832,0.140625 752.406,0.140625 687.07,25.6406 640.813,76.6484 594.555,127.66 571.402,198.441 571.34,288.984 c -1.235,54.485 10.59,108.457 34.457,157.332 21.582,43.34 54.766,79.707 95.785,104.954 40.414,24.941 86.957,37.902 134.32,37.421 76.703,0 136.328,-23.73 178.878,-71.191 42.55,-47.449 63.8,-113.242 63.74,-197.363 V 257.461 H 700.195" /><path
         id="path18"
         style="fill:#222124;fill-opacity:1;fill-rule:nonzero;stroke:none"
         d="m 1282.89,180.289 c -0.4,-11.008 1.74,-21.969 6.26,-32.008 4.52,-10.031 11.29,-18.859 19.77,-25.801 18.84,-14.91 42.32,-22.5581 66.24,-21.601 17.27,-0.578 34.47,2.57 50.44,9.23 15.97,6.661 30.36,16.68 42.19,29.403 12.09,13.008 21.51,28.297 27.74,44.988 6.23,16.691 9.15,34.461 8.58,52.289 v 50.418 l -119.97,-16.281 c -37.98,-5.516 -64.29,-14.965 -78.92,-28.528 -14.64,-13.558 -22.33,-34.328 -22.33,-62.476 z M 1502.72,14.2617 v 77.2578 h -2.23 c -16.91,-28.5703 -41.06,-52.0586 -69.97,-68.0586 -28.9,-15.99996 -61.51,-23.921838 -94.45,-22.949181 -54.66,0 -97.73,14.988281 -129.23,44.988281 -31.5,29.9883 -47.21,70.531 -47.15,121.602 0,52.57 15.44,94.757 46.32,126.558 30.87,31.809 76.08,51.543 135.61,59.211 l 162.3,22.449 c 0,76.457 -35.08,114.649 -105.23,114.59 -33.76,0.031 -67.27,-5.73 -99.12,-17.027 -30.65,-10.61 -59.5,-25.949 -85.51,-45.461 v 111.504 c 28.06,16.023 58.35,27.668 89.86,34.512 35.24,9.609 71.52,14.753 108.01,15.339 71.33,0 125,-18.711 161,-56.121 36.01,-37.414 53.86,-91.73 53.55,-162.949 V 14.2617 h -123.76" /><path
         id="path20"
         style="fill:#222124;fill-opacity:1;fill-rule:nonzero;stroke:none"
         d="M 2152.25,37.4492 C 2109.51,12.5117 2056.86,0.0390625 1994.3,0.0390625 1944.44,-0.828125 1895.19,11.25 1851.27,35.1211 c -41.31,23.1094 -75.13,57.8086 -97.36,99.8989 -23.67,44.441 -35.72,94.242 -35.01,144.707 -1.13,56.035 11.27,111.511 36.13,161.628 23.32,46.055 59.83,83.958 104.77,108.79 48.88,26.566 103.74,39.875 159.24,38.632 24.63,-0.097 49.18,-2.761 73.27,-7.949 21.01,-3.719 41.34,-10.625 60.31,-20.484 V 440.332 c -36.81,28.496 -81.74,44.246 -128.12,44.891 -23.64,0.898 -47.19,-3.36 -69.06,-12.481 -21.87,-9.121 -41.53,-22.89 -57.66,-40.359 -32.42,-35.235 -48.64,-82.285 -48.64,-141.153 0,-58.871 15.44,-104.742 46.32,-137.601 30.88,-33.18 73.06,-49.789 126.54,-49.859 22.16,0.519 44.08,4.789 64.85,12.628 23.46,8.153 45.6,19.793 65.67,34.524 l -0.27,-113.4728" /><path
         id="path22"
         style="fill:#222124;fill-opacity:1;fill-rule:nonzero;stroke:none"
         d="M 2585.48,19.3984 C 2572.66,13.25 2559.07,8.91016 2545.09,6.48828 c -18.47,-4.11719 -37.32,-6.249999 -56.23,-6.359374 -108.94,0 -163.41,59.242194 -163.41,177.730094 v 295.305 h -92.64 v 102.332 h 92.64 v 128.992 l 125.98,38.91 V 575.027 h 134.05 V 473.066 H 2451.43 V 201.332 c 0,-35.48 6.18,-60.613 18.53,-75.391 12.35,-14.781 32.24,-22.171 59.66,-22.171 9.43,0.269 18.78,1.839 27.79,4.679 9.86,2.59 19.24,6.762 27.79,12.352 l 0.28,-101.4026" /><path
         id="path24"
         style="fill:#222124;fill-opacity:1;fill-rule:nonzero;stroke:none"
         d="m 3660.01,451.824 c -9.89,6.153 -20.72,10.578 -32.06,13.098 -13.23,3.816 -26.9,5.859 -40.66,6.086 -17.45,0.32 -34.7,-3.789 -50.16,-11.965 -15.46,-8.176 -28.63,-20.148 -38.31,-34.805 -22.42,-31.183 -33.63,-72.121 -33.63,-122.82 V 14.25 h -125.42 v 561.238 h 125.42 V 466.047 h 2.51 c 9.86,33.973 29.15,64.383 55.58,87.644 24.09,20.536 54.71,31.629 86.24,31.25 17.16,0.762 34.31,-1.847 50.49,-7.675 V 451.824" /><g
         id="g26"><g
           clip-path="url(#clipPath32)"
           id="g28"><path
             id="path40"
             style="fill:url(#linearGradient38);fill-opacity:1;fill-rule:nonzero;stroke:none"
             d="m 3065.74,584.102 h -224.18 c -16.31,0.019 -32.34,-4.297 -46.49,-12.5 -14.14,-8.215 -25.9,-20.032 -34.1,-34.266 l -112,-195.969 c -8.13,-14.219 -12.41,-30.351 -12.41,-46.769 0,-16.422 4.28,-32.547 12.41,-46.77 l 112,-196.4374 c 8.21,-14.2304 19.97,-26.0312 34.12,-34.2422 14.14,-8.20699 30.16,-12.52731 46.47,-12.52731 h 224.18 c 16.31,0 32.34,4.32032 46.48,12.52731 14.14,8.211 25.91,20.0118 34.11,34.2422 l 112,196.4374 c 8.13,14.223 12.41,30.348 12.41,46.77 0,16.418 -4.28,32.55 -12.41,46.769 l -112,195.969 c -8.19,14.234 -19.95,26.051 -34.1,34.266 -14.14,8.203 -30.18,12.519 -46.49,12.5 z m -10.47,-112.247 101.9,-177.722 -101.9,-177.735 h -203.24 l -101.9,177.735 101.9,177.722 h 203.24" /></g></g><path
         id="path42"
         style="fill:#6c6d70;fill-opacity:1;fill-rule:nonzero;stroke:none"
         d="m 999.566,1173.24 v 17.74 h -21.734 v 27.29 h -0.625 l -20.547,-6.24 h -0.504 v -20.68 h -31.847 v 11.56 c -0.282,4.35 1.027,8.66 3.683,12.11 1.289,1.35 2.852,2.4 4.59,3.08 1.738,0.69 3.606,0.98 5.465,0.86 3.32,-0.04 6.594,-0.76 9.621,-2.12 l 0.809,-0.51 v 18.74 h -0.497 c -3.902,1.21 -7.976,1.78 -12.058,1.69 -5.977,0.02 -11.879,-1.35 -17.234,-4 -4.989,-2.67 -9.071,-6.76 -11.747,-11.74 -2.902,-5.21 -4.386,-11.09 -4.304,-17.05 v -12.49 h -15.055 v -17.61 h 15.055 v -74.2 h 21.672 v 73.76 h 32.472 v -47.22 c 0,-19.35 9.121,-29.16 27.356,-29.16 3.043,0.08 6.074,0.41 9.054,1 2.356,0.44 4.641,1.17 6.809,2.18 v 17.74 l -0.812,-0.68 c -1.379,-0.9 -2.899,-1.55 -4.497,-1.94 -1.394,-0.44 -2.843,-0.67 -4.304,-0.69 -1.739,-0.18 -3.492,0.04 -5.129,0.65 -1.637,0.6 -3.106,1.58 -4.305,2.85 -2.34,3.44 -3.402,7.6 -3,11.74 v 43.4 z M 856.109,1122.4 c -2.199,-2.6 -4.976,-4.65 -8.117,-5.97 -3.133,-1.32 -6.539,-1.89 -9.933,-1.64 -3.532,-0.27 -7.075,0.3 -10.332,1.68 -3.258,1.39 -6.141,3.53 -8.407,6.24 -4.828,6.3 -7.207,14.13 -6.683,22.06 -0.453,8.04 1.91,15.99 6.683,22.48 2.246,2.65 5.071,4.75 8.254,6.13 3.184,1.39 6.641,2.03 10.106,1.86 3.359,0.16 6.715,-0.45 9.804,-1.76 3.098,-1.32 5.852,-3.32 8.063,-5.86 4.762,-6.44 7.109,-14.36 6.617,-22.36 0.539,-8.1 -1.66,-16.15 -6.246,-22.86 z m -17.117,70.58 c -6.519,0.36 -13.054,-0.63 -19.179,-2.91 -6.125,-2.28 -11.715,-5.79 -16.415,-10.34 -8.785,-9.89 -13.277,-22.88 -12.496,-36.09 -0.3,-6.26 0.645,-12.51 2.793,-18.41 2.145,-5.88 5.442,-11.28 9.703,-15.88 9.575,-8.27 21.844,-12.76 34.5,-12.61 12.653,0.15 24.817,4.92 34.196,13.42 8.707,9.78 13.199,22.59 12.492,35.66 0.707,12.69 -3.648,25.13 -12.113,34.61 -4.387,4.32 -9.637,7.66 -15.407,9.81 -5.765,2.16 -11.929,3.06 -18.074,2.67 z m -81.25,-40.28 c -4.668,1.61 -9.086,3.88 -13.117,6.74 -0.855,0.94 -1.516,2.05 -1.945,3.25 -0.43,1.2 -0.617,2.47 -0.551,3.74 -0.027,1.31 0.273,2.61 0.891,3.77 0.609,1.16 1.507,2.14 2.605,2.85 2.813,1.78 6.109,2.66 9.43,2.5 3.761,-0.06 7.504,-0.63 11.117,-1.68 3.457,-0.9 6.715,-2.42 9.621,-4.5 l 0.809,-0.62 v 20.79 h -0.497 c -3.16,1.22 -6.421,2.16 -9.742,2.81 -3.508,0.63 -7.062,0.97 -10.621,1.01 -9.121,0.43 -18.109,-2.38 -25.355,-7.94 -3.121,-2.35 -5.637,-5.42 -7.328,-8.94 -1.696,-3.52 -2.524,-7.39 -2.414,-11.3 -0.2,-3.76 0.484,-7.52 2,-10.97 1.519,-3.45 3.832,-6.49 6.742,-8.88 4.066,-3.06 8.519,-5.56 13.242,-7.44 3.789,-1.54 7.5,-3.26 11.117,-5.18 1.828,-1.09 3.512,-2.41 4.992,-3.94 0.914,-1.54 1.367,-3.32 1.317,-5.12 0,-6.24 -4.625,-9.11 -14.117,-9.11 -4.047,0.04 -8.055,0.76 -11.868,2.12 -4.312,1.49 -8.394,3.59 -12.117,6.25 l -0.808,0.68 v -21.48 h 0.496 c 3.73,-1.59 7.597,-2.82 11.558,-3.69 4.114,-0.84 8.289,-1.34 12.489,-1.49 9.562,-0.61 19.019,2.23 26.671,7.99 3.246,2.4 5.86,5.55 7.621,9.18 1.762,3.63 2.618,7.64 2.497,11.68 0.211,5.71 -1.68,11.31 -5.313,15.73 -5.773,4.86 -12.316,8.73 -19.359,11.44 z m -76.258,-30.48 c -2.187,-2.61 -4.964,-4.67 -8.105,-5.99 -3.141,-1.32 -6.547,-1.89 -9.941,-1.63 -3.528,-0.24 -7.059,0.36 -10.313,1.74 -3.254,1.37 -6.137,3.5 -8.422,6.19 -4.785,6.31 -7.137,14.14 -6.621,22.04 -0.48,8.04 1.863,15.99 6.621,22.49 2.254,2.65 5.094,4.74 8.285,6.13 3.188,1.38 6.66,2.02 10.137,1.86 3.359,0.18 6.719,-0.41 9.813,-1.73 3.101,-1.32 5.851,-3.34 8.046,-5.88 4.77,-6.45 7.114,-14.37 6.621,-22.37 0.418,-8.09 -1.769,-16.1 -6.242,-22.85 z m -17.238,70.57 c -6.527,0.36 -13.055,-0.63 -19.18,-2.9 -6.125,-2.28 -11.714,-5.8 -16.418,-10.34 -4.378,-4.88 -7.746,-10.59 -9.886,-16.79 -2.153,-6.2 -3.035,-12.76 -2.606,-19.31 -0.301,-6.26 0.645,-12.51 2.789,-18.4 2.149,-5.89 5.446,-11.29 9.703,-15.89 9.575,-8.27 21.848,-12.75 34.504,-12.61 12.653,0.15 24.817,4.93 34.196,13.43 8.707,9.77 13.199,22.59 12.492,35.66 0.707,12.68 -3.649,25.13 -12.113,34.6 -4.387,4.32 -9.637,7.67 -15.407,9.82 -5.765,2.15 -11.929,3.06 -18.074,2.67 z m -58.391,-0.25 c -5.324,0.06 -10.5,-1.75 -14.617,-5.12 -3.754,-3.41 -6.59,-7.71 -8.246,-12.49 v 16.11 h -21.73 v -91.81 h 21.547 v 46.91 c -0.371,6.85 1.488,13.65 5.304,19.36 1.512,2.31 3.575,4.21 6.008,5.52 2.438,1.31 5.16,1.99 7.922,1.97 2.098,-0.15 4.187,-0.44 6.25,-0.87 1.812,-0.41 3.543,-1.13 5.113,-2.12 l 0.875,-0.7 v 21.56 h -0.496 c -2.551,1.12 -5.34,1.62 -8.121,1.43 z m -70.828,-0.56 c -3.98,0.84 -8.039,1.28 -12.113,1.31 -9.121,0.25 -18.144,-1.91 -26.168,-6.24 -7.312,-4.14 -13.273,-10.3 -17.176,-17.75 -4.218,-8.17 -6.363,-17.27 -6.246,-26.47 -0.086,-8.28 1.91,-16.44 5.809,-23.74 3.68,-6.93 9.328,-12.63 16.238,-16.36 7.258,-3.95 15.41,-5.95 23.672,-5.8 9.059,-0.23 18.02,1.92 25.98,6.24 v 19.86 l -0.812,-0.69 c -3.164,-2.36 -6.688,-4.19 -10.434,-5.43 -3.297,-1.22 -6.781,-1.89 -10.3,-2 -3.743,-0.25 -7.485,0.33 -10.977,1.71 -3.484,1.37 -6.625,3.49 -9.199,6.22 -5.231,5.99 -7.918,13.79 -7.488,21.73 -0.493,8.17 2.246,16.2 7.617,22.36 2.605,2.72 5.75,4.86 9.238,6.28 3.484,1.42 7.234,2.09 10.992,1.97 7.41,-0.11 14.594,-2.54 20.551,-6.93 l 0.812,-0.69 v 21.04 c -3.285,1.47 -6.722,2.58 -10.242,3.31 z m -86.929,37.91 c -3.403,0.04 -6.68,-1.26 -9.121,-3.62 -1.172,-1.17 -2.102,-2.55 -2.739,-4.07 -0.633,-1.52 -0.957,-3.15 -0.957,-4.8 0,-1.65 0.324,-3.28 0.957,-4.81 0.637,-1.52 1.567,-2.9 2.739,-4.06 1.203,-1.17 2.632,-2.08 4.203,-2.68 1.566,-0.6 3.238,-0.88 4.918,-0.82 3.363,-0.01 6.613,1.24 9.113,3.5 1.211,1.12 2.18,2.48 2.84,4 0.652,1.52 0.984,3.15 0.969,4.8 -0.004,1.67 -0.344,3.32 -1,4.86 -0.657,1.53 -1.606,2.92 -2.809,4.08 -1.195,1.19 -2.621,2.12 -4.188,2.74 -1.57,0.62 -3.242,0.92 -4.925,0.88 z m -10.934,-38.72 h 21.234 v -91.81 h -21.234 z m -84.062,-44.22 -6.247,-16.93 h -0.25 c -1.492,5.66 -3.417,11.19 -5.746,16.55 l -31.976,80.45 h -31.227 v -128.04 h 20.672 v 78.88 c 0,5 0,10.62 0,17.61 0,3.44 -0.5,6.25 -0.625,8.06 h 0.5 c 0.723,-3.71 1.723,-7.36 2.996,-10.93 l 38.41,-93.68 h 14.555 l 38.098,94.24 c 1.004,3.31 1.84,6.67 2.496,10.06 h 0.5 c -0.5,-9.43 -0.809,-17.86 -1,-22.98 v -81.19 h 22.047 v 127.97 h -30.414 l -32.789,-80.07" /><path
         id="path44"
         style="fill:#ef3f21;fill-opacity:1;fill-rule:nonzero;stroke:none"
         d="M 0,1269.99 H 101.555 V 1168.44 H 0 v 101.55" /><path
         id="path46"
         style="fill:#73c12d;fill-opacity:1;fill-rule:nonzero;stroke:none"
         d="M 112.422,1269.99 H 213.66 V 1168.44 H 112.422 v 101.55" /><path
         id="path48"
         style="fill:#50a0dd;fill-opacity:1;fill-rule:nonzero;stroke:none"
         d="M 0,1157.88 H 101.555 V 1056.33 H 0 v 101.55" /><path
         id="path50"
         style="fill:#f8b00b;fill-opacity:1;fill-rule:nonzero;stroke:none"
         d="M 112.422,1157.88 H 213.66 V 1056.33 H 112.422 v 101.55" /></g></g></svg>