<svg version="1.1" id="Tiny_Logo" xmlns="http://www.w3.org/2000/svg" x="0" y="0" width="175" height="60" xml:space="preserve"><style>.st6{fill:#fff}</style><path id="Darmstadt_x2C__Germany_9_" class="st6" d="M85.9 46.1c-.7 0-1-.2-1-.6 0-.3.3-.5 1-.5.5 0 1 .2 1.3.5l.8-.9c-.6-.5-1.2-.7-2.1-.7-1 0-2.3.5-2.3 1.7s1.2 1.6 2.2 1.7c.8 0 1.1.2 1.1.6 0 .4-.5.6-1 .6-.6 0-1.5-.3-1.8-.8l-.7.9c.8.8 1.6 1 2.5 1 1.5 0 2.3-.8 2.3-1.8 0-1.4-1.3-1.6-2.3-1.7zm5.7 2.2c-.4 0-.7-.2-.7-.8v-2.3h1.5v-1.1h-1.5v-1.5l-1.3.1v1.4h-1v1.1h1v2.3c0 1.3.8 2 1.9 2 .4 0 .7-.1 1.1-.2l-.4-1.1c-.1.1-.4.1-.6.1zm-23.5-3.5c-.4-.5-1-.9-1.6-.9h-.1c-1.6 0-2.8.9-2.8 2.8s1.2 2.8 2.8 2.8c.6 0 1.4-.3 1.7-.9l.1.8h1.2V44h-1.3v.8zm-1.6 3.6c-.1 0-.1 0 0 0h-.2c-.8-.1-1.5-.8-1.4-1.6v-.2c0-.8.7-1.5 1.6-1.5 2 0 2 3.3 0 3.3zm30.8-3.6c-.4-.5-1-.9-1.6-.9h-.1c-1.6 0-2.8.9-2.8 2.8s1.2 2.8 2.8 2.8c.6 0 1.4-.3 1.7-.9l.1.8h1.2V44h-1.3v.8zm-1.5 3.6h-.2c-.8-.1-1.5-.8-1.4-1.6v-.2c0-.8.7-1.5 1.6-1.5 2 0 2 3.3 0 3.3zM80.6 44c-.7 0-1.4.3-1.8 1-.2-.6-.8-1-1.5-1h-.1c-.5 0-1.1.2-1.4.7l-.1-.7h-1.2v5.4h1.3v-2.9c0-.7.4-1.3 1.1-1.3.7 0 1.1.6 1.1 1.3v2.9h1.3v-2.9c0-.7.4-1.3 1.2-1.3.7 0 1 .6 1 1.3v2.9h1.3v-2.9c.1-1.6-.7-2.5-2.2-2.5zm-21.7-2.2h-3v7.6h3c2.7 0 3.8-1.9 3.8-3.9 0-1.8-1.2-3.7-3.8-3.7zm0 6.3h-1.6v-4.9h1.6c1.6 0 2.3 1.2 2.4 2.4 0 1.2-.7 2.5-2.4 2.5zM73.2 44c-.5 0-1.1.1-1.5.8l-.1-.6h-1.2v5.4h1.3v-2.8c0-1 .6-1.4 1.3-1.4.2 0 .4 0 .6.1v-1.4c-.1-.1-.2-.1-.4-.1zm74.5.8c-.3-.5-1-.9-1.7-.9-1.6 0-2.8.9-2.8 2.9 0 1.9 1.2 2.9 2.8 2.9.6 0 1.5-.3 1.8-1l.1.8h1.3v-5.4h-1.3l-.2.7zm-1.6 3.6h-.2c-.9-.1-1.5-.8-1.5-1.7v-.2c0-.9.8-1.5 1.6-1.5 2.2.1 2.2 3.4.1 3.4zm7.2-4.4c-.7 0-1.2.3-1.8.8l-.1-.7h-1.2v5.5h1.3v-2.8c0-.8.5-1.5 1.4-1.5.9 0 1.3.6 1.3 1.5v2.9h1.3v-2.9c.1-1.9-1-2.8-2.2-2.8zm-21.6-.1c-.6 0-1.1.1-1.5.8l-.1-.6h-1.2v5.4h1.3v-2.9c0-1 .7-1.4 1.4-1.4.4 0 .7.1 1 .4l.6-1.2c-.5-.3-1-.5-1.5-.5zm8.1.1c-.7 0-1.5.3-1.8 1-.3-.6-.9-1-1.5-1h-.1c-.5 0-1.1.2-1.4.8l-.1-.7h-1.2v5.5h1.3v-2.9c0-.7.4-1.4 1.2-1.4s1.1.7 1.1 1.4v2.9h1.3v-2.9c0-.7.5-1.3 1.2-1.3s1 .6 1 1.3v2.9h1.3v-2.9c0-1.8-.8-2.7-2.3-2.7zm20.6.1l-1 2.4-.6 1.5-.5-1.5-.8-2.4h-1.6l2.2 5.4-1 2.4h1.5l3.3-7.7h-1.5zm-35.4-.2c-1.8 0-2.9 1.2-2.9 2.9s1.1 2.9 3 2.9c.8 0 1.8-.3 2.3-.9l-.9-.8c-.3.3-1 .5-1.5.5-1 0-1.5-.5-1.6-1.2h4.3c.2-2.3-.9-3.4-2.7-3.4zm-1.5 2.3c.2-.7.8-1.1 1.5-1.1.8 0 1.3.4 1.4 1.1h-2.9zm-14.7 2.1c-.4 0-.7-.2-.7-.8v-2.3h1.5v-1.1h-1.5v-1.5l-1.3.1v1.4h-1v1.1h1v2.3c0 1.3.8 2 1.9 2 .4 0 .7-.1 1.1-.2l-.4-1.1c-.1.1-.4.1-.6.1zm-4.9-3.5c-.3-.6-1.2-.9-1.8-.9-1.6 0-2.7 1-2.7 2.8 0 1.8 1.2 2.8 2.8 2.8.7 0 1.3-.3 1.7-.9l.1.7h1.2v-7.6h-1.3v3.1zm-.1 2c0 .8-.7 1.5-1.5 1.5s-1.5-.7-1.5-1.5v-.2c0-.8.7-1.4 1.5-1.4h.1c.8 0 1.4.7 1.4 1.6zm8 1.4c-.4 0-.8.2-.8.7 0 .3.2.6.5.6l-.2 1.1h.8c.5-1.6.5-1.5.5-1.7 0-.5-.4-.7-.8-.7zm6-1.9h2v1.4c-.5.4-1.1.6-1.7.6-1.9 0-2.7-1.3-2.7-2.6 0-1.6 1-2.9 2.7-2.9.7 0 1.4.3 2 .8l.9-.9c-.8-.8-1.8-1.2-2.9-1.2-2.7 0-4.1 2-4.1 4.2 0 2 1.2 3.9 4.1 3.9 1.2 0 2.3-.5 3.1-1.4V45h-3.3v1.3z"/><path class="st6" d="M69.3 30.1l-.1-.9h-1.9v8.1h2V33c0-1.5 1-2.1 2-2.1.4 0 .9.1 1.2.3V29h-.9c-.8 0-1.7.1-2.3 1.1zm-8.8-4.3H56v11.5h4.5c4 0 5.8-2.9 5.8-5.9-.1-2.8-1.9-5.6-5.8-5.6zm0 9.4h-2.4v-7.4h2.4c2.5 0 3.6 1.8 3.6 3.6 0 1.9-1 3.8-3.6 3.8zm19.1-1.9c0 1.2-.8 2.3-2.1 2.3s-2-.9-2-2.2v-4.2h-2v4.3c0 2.5 1.4 4 3.4 4 1.1 0 1.9-.4 2.8-1.2l.1 1.1h1.8v-8.1h-2v4zm19.8-3c-.5-.8-1.5-1.3-2.6-1.3-2.4 0-4.2 1.4-4.2 4.2 0 2.8 1.8 4.3 4.2 4.3.9 0 2.2-.5 2.6-1.4l.1 1.2h1.9v-8.1h-1.9l-.1 1.1zm-2.5 5.4c-1.3 0-2.4-.9-2.4-2.5 0-1.5 1.1-2.5 2.4-2.5 3.2.1 3.2 5 0 5zM87.5 29c-1 0-2 .5-2.6 1.3l-.1-1.1h-1.9v11.5h2v-4.3c.6.9 1.8 1.2 2.7 1.2 2.6 0 4.1-1.9 4.1-4.2 0-2.5-1.7-4.4-4.2-4.4zm-.2 6.6c-1.3 0-2.3-1-2.3-2.3 0-1.3.9-2.3 2.3-2.3s2.3 1 2.3 2.3c0 1.2-1 2.3-2.3 2.3zm60.9-6.6c-1 0-2 .5-2.6 1.3l-.1-1.1h-1.9v11.5h2v-4.3c.6.9 1.8 1.2 2.7 1.2 2.6 0 4.1-1.9 4.1-4.2 0-2.5-1.7-4.4-4.2-4.4zm-.2 6.6c-1.3 0-2.3-1-2.3-2.3 0-1.3.9-2.3 2.3-2.3s2.3 1 2.3 2.3c0 1.2-1 2.3-2.3 2.3zm-9.8-6.6c-2.6 0-4.2 1.9-4.2 4.2 0 2.3 1.6 4.2 4.2 4.2s4.2-1.9 4.2-4.2c.1-2.3-1.6-4.2-4.2-4.2zm.1 6.6c-1.5 0-2.2-1.2-2.2-2.4s.8-2.4 2.2-2.4c1.3 0 2.2 1.2 2.2 2.4 0 1.3-.8 2.4-2.2 2.4zm19.3-6.7c-2.6 0-4.3 1.8-4.3 4.2 0 2.6 1.7 4.3 4.5 4.3 1.2 0 2.6-.4 3.5-1.3l-1.3-1.3c-.5.5-1.4.8-2.2.8-1.4 0-2.3-.7-2.4-1.7h6.3c.3-3.3-1.4-5-4.1-5zm-2.2 3.4c.3-1.1 1.2-1.6 2.3-1.6 1.2 0 2 .5 2.1 1.6h-4.4zm-47.2 5h8.6v-2.1h-6.5v-2.6h6.2v-2h-6.2v-2.7h6.5v-2.1h-8.6v11.5zm-5.5 0h2V25.8h-2v11.5zm21.5-4c0 1.2-.8 2.3-2.1 2.3s-2-.9-2-2.2v-4.2h-2v4.3c0 2.5 1.4 4 3.4 4 1.1 0 1.9-.4 2.8-1.2l.1 1.1h1.8v-8.1h-2v4zM132 29c-.8 0-1.7.1-2.3 1.2l-.1-.9h-1.9v8.1h2V33c0-1.5 1-2.1 2-2.1.5 0 1 .2 1.4.5.3-.6.6-1.2 1-1.7-.6-.5-1.3-.7-2.1-.7z" id="Drupal_Europe_11_"/><path id="Signet" class="st6" d="M26.9 27.9l-.4-1.6-.4.4-1.3 1.3.9 1.1c.3-.3.8-.7 1.2-1.2zm.1 11.3c-.5-.2-1-.5-1.4-.8l-.8 1.3c.6.4 1.2.8 1.9 1l.3-1.5zm-3.3-9.9c-.5.7-.9 1.4-1.3 2.2l1.5.2c.2-.5.5-1 .8-1.4l-1-1zm.7 7.8c-.3-.5-.6-1-.7-1.6l-1.3.9c.3.7.6 1.4 1.1 2l.9-1.3zm11.1-.6l-1.3-.9c-.2.6-.4 1.1-.7 1.6l.9 1.3c.5-.6.8-1.3 1.1-2zm-12-2.1v-.3c0-.4 0-.8.1-1.2l-1.5-.1c-.2.8-.2 1.6 0 2.4l1.4-.8zm11.9-2.9c-.3-.8-.7-1.5-1.2-2.2l-1 1c.3.4.6.9.8 1.4l1.4-.2zm-2.3 8.2l-.8-1.3c-.4.3-.9.6-1.4.8l.4 1.5c.6-.3 1.2-.6 1.8-1zm2.7-6.9l-1.5.1c.1.4.1.8.1 1.2v.3l1.4.8c.1-.8.1-1.6 0-2.4zm-4-6.1l-.4-.4L31 28c.4.4.8.8 1.2 1.3l.9-1.1c-.4-.6-.8-1-1.3-1.5zm-3.3 12.8l-.3 1.5c.5.1 1 .1 1.5 0l-.3-1.5h-.9zM30 24.8c-.5-.6-.9-1.2-1.1-2-.2.7-.6 1.4-1.1 2 .1.7.2 1.3.2 1.9.3-.3.6-.6.8-.9.3.3.6.6.8.9.3-.6.3-1.2.4-1.9zm-8 15.7c-.8-.8-1.4-1.7-1.8-2.7L18 39.3c.6 1.3 1.5 2.5 2.5 3.5l1.5-2.3zM43.5 30l2.9-.5c-.7-3.1-2.3-5.8-4.1-8.2l-2.1 2c1.5 2.1 2.7 4.3 3.3 6.7zM27.2 46.1c1.1.2 2.2.2 3.4 0l-.5-2.7c-.8.1-1.6.1-2.4 0l-.5 2.7zm-5.4-18.9L20 25.4c-1.2 1.5-2.1 3.1-2.7 5l2.6.4c.4-1.2 1-2.5 1.9-3.6zM16.7 34c0 1.3.2 2.5.6 3.7l2.3-1.3c-.2-.8-.3-1.7-.3-2.5 0-.5 0-1 .1-1.4l-2.6-.1c0 .5-.1 1-.1 1.6zm12.2-19.7c-.3 1.2-1 2.4-2 3.5.1 1.1.3 2.2.4 3.3.5-.5 1-1.1 1.5-1.6.5.5 1 1.1 1.5 1.6.1-1 .3-2.1.4-3.3-.7-1.1-1.4-2.3-1.8-3.5zm-2.2 34.5l-.5 2.7c1.7.3 3.5.3 5.3 0l-.5-2.7c-1.4.2-2.8.2-4.3 0zm-11.1-7.9l-2.4 1.6c1 1.9 2.4 3.5 4 4.9l1.6-2.3c-1.3-1.2-2.4-2.6-3.2-4.2zm3.5 7.9c1.6 1 3.3 1.8 5.1 2.3l.6-2.7c-1.5-.4-3-1.1-4.3-2-.4.8-.9 1.6-1.4 2.4zm-5.2-14.9c0-.5 0-1.1.1-1.6l-2.9-.1c0 .5-.1 1.1-.1 1.7 0 2.3.5 4.6 1.3 6.7l2.5-1.4c-.6-1.7-.9-3.5-.9-5.3zm20.6 7.8c-.8.6-1.7 1-2.7 1.3l.6 2.6c1.2-.4 2.4-.9 3.5-1.7l-1.4-2.2zM17.7 23.4l-2.1-2c-1.9 2.4-3.4 5.1-4.1 8.2l2.9.5c.6-2.5 1.8-4.7 3.3-6.7zm15.3 25l.6 2.7c1.8-.5 3.5-1.3 5.1-2.3l-1.5-2.4c-1.2.9-2.6 1.5-4.2 2zm13.8-16.3l-2.9.1c.1.5.1 1.1.1 1.6 0 1.8-.3 3.6-1 5.3l2.5 1.4c.9-2.2 1.3-4.5 1.3-6.8.1-.5.1-1 0-1.6zm-7.8 13l1.6 2.3c1.6-1.4 3-3.1 4-4.9l-2.4-1.6c-.8 1.6-1.9 3-3.2 4.2zM28.9 11.3c.8.9 1.7 1.8 2.5 2.6.2-1.2.3-2.5.5-3.7-1.4-1.7-2.5-3.5-3-5.3-.5 1.9-1.6 3.6-3 5.3.2 1.2.3 2.5.5 3.7.9-.9 1.7-1.7 2.5-2.6zm-4.8 5l-.8-3.2-1.8 1.8c-1.3 1.3-2.7 2.7-4 4.2l1.8 2.3c1.5-1.8 3.1-3.5 4.8-5.1zM40.3 19c-1.3-1.5-2.7-2.9-4-4.2-.6-.6-1.2-1.2-1.7-1.8l-.8 3.2c1.7 1.7 3.3 3.3 4.7 5l1.8-2.2zm.3 11.5c-.6-1.9-1.5-3.5-2.7-5l-1.8 1.8c.8 1.1 1.5 2.4 1.9 3.7l2.6-.5zm-4.1-6.8c-.8-.9-1.7-1.8-2.6-2.6L32.8 20l-.7 2.8c1 1 1.9 1.9 2.7 2.9l1.7-2zM41.1 34c0-.5 0-1.1-.1-1.6l-2.6.1c.1.5.1.9.1 1.4 0 .8-.1 1.7-.3 2.5l2.3 1.3c.5-1.2.7-2.5.6-3.7zm-1.2 5.3l-2.2-1.5c-.5 1-1.1 1.9-1.8 2.7l1.5 2.2c1.1-1 1.9-2.1 2.5-3.4zM21.4 23.7l1.6 2c.8-1 1.8-1.9 2.7-2.9L25 20l-1.1 1.1c-.8.8-1.7 1.7-2.5 2.6zM22 44c1.1.7 2.2 1.3 3.5 1.7l.6-2.6c-1-.3-1.9-.7-2.7-1.3L22 44z"/></svg>