<svg id="Layer_1" data-name="Layer 1" xmlns="http://www.w3.org/2000/svg" viewBox="0 0 200.04 173.8"><defs><style>.cls-1{fill:#231f20;}.cls-2{fill:#fff;}</style></defs><title>dcont-logo-v1-stacked-black</title><rect class="cls-1" width="200.04" height="173.8"/><path class="cls-2" d="M29.59,84.61a9.25,9.25,0,0,1,9,6.48H34.76a5.35,5.35,0,0,0-5.17-3.38c-3.83,0-6.61,3-6.61,7.91s2.78,7.94,6.61,7.94a5.35,5.35,0,0,0,5.17-3.38h3.81a9.22,9.22,0,0,1-9,6.45c-5.44,0-9.86-4.53-9.86-11S24.15,84.61,29.59,84.61Z" transform="translate(-0.17 -0.32)"/><path class="cls-2" d="M48.57,106.72c-4.37,0-7.67-3.47-7.67-8.84s3.44-8.8,7.8-8.8,7.81,3.44,7.81,8.8S53,106.72,48.57,106.72Zm0-3.07c2.36,0,4.69-1.89,4.69-5.77S51,92.15,48.65,92.15,44.12,94,44.12,97.88,46.18,103.65,48.57,103.65Z" transform="translate(-0.17 -0.32)"/><path class="cls-2" d="M70.18,96.89c0-3.13-1.53-4.74-3.84-4.74s-3.86,1.61-3.86,4.74v9.55H59.31V89.36h3.17v2A5.67,5.67,0,0,1,67,89.08c3.58,0,6.28,2.51,6.28,7.28v10.08H70.18Z" transform="translate(-0.17 -0.32)"/><path class="cls-2" d="M77.51,92.24H75.7V89.36h1.81V85.11h3.2v4.25h3.72v2.88H80.71v9.46c0,1.27.44,1.8,1.77,1.8h2v2.94h-2.5c-2.72,0-4.42-1.27-4.42-4.74Z" transform="translate(-0.17 -0.32)"/><path class="cls-2" d="M90.18,106.44H87V89.36h3.17v2.48a4.89,4.89,0,0,1,4.58-2.76v3.66H94c-2.34,0-3.78,1.08-3.78,4.71Z" transform="translate(-0.17 -0.32)"/><path class="cls-2" d="M103.51,89.08a6.28,6.28,0,0,1,5.31,2.76V89.36H112v17.08h-3.2V103.9a6.37,6.37,0,0,1-5.36,2.82c-4,0-7.17-3.63-7.17-8.9S99.48,89.08,103.51,89.08Zm.67,3.07c-2.36,0-4.64,2-4.64,5.67s2.28,5.83,4.64,5.83,4.64-2.08,4.64-5.77S106.57,92.15,104.18,92.15Z" transform="translate(-0.17 -0.32)"/><path class="cls-2" d="M122.29,89.08c3.75,0,6.2,2.08,7.06,5.67h-3.42a3.61,3.61,0,0,0-3.64-2.7c-2.55,0-4.25,2.11-4.25,5.83s1.7,5.86,4.25,5.86a3.52,3.52,0,0,0,3.64-2.69h3.42a7,7,0,0,1-7.06,5.67c-4.39,0-7.5-3.47-7.5-8.84S117.9,89.08,122.29,89.08Z" transform="translate(-0.17 -0.32)"/><path class="cls-2" d="M132.68,92.24h-1.8V89.36h1.8V85.11h3.2v4.25h3.72v2.88h-3.72v9.46c0,1.27.44,1.8,1.78,1.8h1.94v2.94h-2.5c-2.72,0-4.42-1.27-4.42-4.74Z" transform="translate(-0.17 -0.32)"/><path class="cls-2" d="M148.82,106.72c-4.36,0-7.67-3.47-7.67-8.84s3.45-8.8,7.81-8.8,7.81,3.44,7.81,8.8S153.21,106.72,148.82,106.72Zm0-3.07c2.37,0,4.7-1.89,4.7-5.77s-2.25-5.73-4.61-5.73-4.53,1.86-4.53,5.73S146.43,103.65,148.82,103.65Z" transform="translate(-0.17 -0.32)"/><path class="cls-2" d="M162.74,106.44h-3.17V89.36h3.17v2.48a4.89,4.89,0,0,1,4.58-2.76v3.66h-.8c-2.34,0-3.78,1.08-3.78,4.71Z" transform="translate(-0.17 -0.32)"/><path class="cls-2" d="M175.46,106.72c-3.66,0-6.25-2.42-6.39-5.52h3.28a2.87,2.87,0,0,0,3.06,2.54c1.83,0,2.8-.86,2.8-2,0-3.35-8.89-1.43-8.89-7.69,0-2.73,2.28-4.93,5.89-4.93s5.75,2.08,5.92,5.49H178a2.62,2.62,0,0,0-2.86-2.52c-1.69,0-2.58.78-2.58,1.93,0,3.44,8.64,1.52,8.81,7.69C181.33,104.55,179.08,106.72,175.46,106.72Z" transform="translate(-0.17 -0.32)"/><path class="cls-2" d="M50.13,50.92c0,10.6-6.67,18.35-17.15,18.35H20V32.61H33C43.46,32.61,50.13,40.15,50.13,50.92ZM32.28,60.28c5.26,0,8.57-3.33,8.57-9.36s-3.31-9.47-8.57-9.47H29.11V60.28Z" transform="translate(-0.17 -0.32)"/><path class="cls-2" d="M63.36,69.27H54.23V40.1h9.13v5.15c2-3.17,4.94-5.41,8.43-5.41V50.71H69.23c-3.77,0-5.87,1.35-5.87,5.82Z" transform="translate(-0.17 -0.32)"/><path class="cls-2" d="M101.8,69.27H92.62V65.11a9,9,0,0,1-7.92,4.42c-6.06,0-9.83-4.78-9.83-12.48V40.1H84V55.75c0,3.38,1.72,5.36,4.33,5.36s4.33-2,4.33-5.36V40.1h9.18Z" transform="translate(-0.17 -0.32)"/><path class="cls-2" d="M123.8,39.74c6.24,0,11.14,5.61,11.14,14.92s-4.9,15-11.14,15a8.37,8.37,0,0,1-7.64-4.42v18H107V40.1h9.14v4.06A8.24,8.24,0,0,1,123.8,39.74Zm-2.89,8.89c-2.56,0-4.75,2.13-4.75,6s2.19,6.08,4.75,6.08,4.75-2.18,4.75-6.08S123.47,48.63,120.91,48.63Z" transform="translate(-0.17 -0.32)"/><path class="cls-2" d="M148.36,39.74A8.22,8.22,0,0,1,156,44.16V40.1h9.14V69.27H156v-4a8.28,8.28,0,0,1-7.68,4.42c-6.2,0-11.14-5.67-11.14-15S142.16,39.74,148.36,39.74Zm2.93,8.89c-2.61,0-4.75,2.08-4.75,6s2.14,6.08,4.75,6.08S156,58.61,156,54.66,153.85,48.63,151.29,48.63Z" transform="translate(-0.17 -0.32)"/><path class="cls-2" d="M170.4,30.79h9.13V69.27H170.4Z" transform="translate(-0.17 -0.32)"/><path class="cls-2" d="M24.62,137.38c2,0,3.5,1.65,3.5,4.22s-1.52,4.27-3.5,4.27a3,3,0,0,1-2.75-1.65v1.52H20.64v-11.1h1.23v4.41A3.06,3.06,0,0,1,24.62,137.38Zm-.25,1.19c-1.34,0-2.5,1.14-2.5,3s1.16,3.06,2.5,3.06,2.5-1.14,2.5-3.07S25.72,138.57,24.37,138.57Z" transform="translate(-0.17 -0.32)"/><path class="cls-2" d="M34.81,137.52h1.26l-4.43,12.09H30.37l1.46-4-3-8.13h1.36l2.31,6.66Z" transform="translate(-0.17 -0.32)"/><path class="cls-2" d="M44,145.87c-2.16,0-3.74-1.68-3.74-4.29s1.54-4.29,3.74-4.29,3.67,1.64,3.67,4.11a5.51,5.51,0,0,1-.05.81H42.2A1.84,1.84,0,0,0,44,144.13a1.53,1.53,0,0,0,1.49-1h2A3.51,3.51,0,0,1,44,145.87Zm-1.81-5.07h3.53A1.73,1.73,0,0,0,44,139,1.8,1.8,0,0,0,42.22,140.8Z" transform="translate(-0.17 -0.32)"/><path class="cls-2" d="M51.92,145.87a3,3,0,0,1-3.25-2.76h1.89a1.28,1.28,0,0,0,1.35,1.11c.74,0,1.14-.37,1.14-.85,0-1.49-4.21-.54-4.21-3.59,0-1.38,1.11-2.49,2.95-2.49a2.77,2.77,0,0,1,3,2.75H53A1.14,1.14,0,0,0,51.73,139c-.7,0-1.06.31-1.06.79,0,1.52,4.13.57,4.18,3.62C54.85,144.79,53.74,145.87,51.92,145.87Z" transform="translate(-0.17 -0.32)"/><path class="cls-2" d="M56.69,139.15h-.88v-1.72h.88v-2.06h1.9v2.06h1.67v1.72H58.59v4c0,.56.2.8.79.8h.88v1.77H59.07c-1.42,0-2.38-.68-2.38-2.58Z" transform="translate(-0.17 -0.32)"/><path class="cls-2" d="M64.87,145.87c-2.17,0-3.74-1.68-3.74-4.29s1.53-4.29,3.74-4.29,3.67,1.64,3.67,4.11a5.52,5.52,0,0,1-.06.81H63a1.83,1.83,0,0,0,1.79,1.92,1.54,1.54,0,0,0,1.49-1h2A3.52,3.52,0,0,1,64.87,145.87Zm-1.82-5.07h3.54A1.74,1.74,0,0,0,64.81,139,1.81,1.81,0,0,0,63.05,140.8Z" transform="translate(-0.17 -0.32)"/><path class="cls-2" d="M73.16,145.87c-2.16,0-3.74-1.68-3.74-4.29s1.53-4.29,3.74-4.29,3.67,1.64,3.67,4.11a5.51,5.51,0,0,1,0,.81H71.33a1.84,1.84,0,0,0,1.79,1.92,1.53,1.53,0,0,0,1.49-1h2A3.51,3.51,0,0,1,73.16,145.87Zm-1.81-5.07h3.53A1.74,1.74,0,0,0,73.11,139,1.8,1.8,0,0,0,71.35,140.8Z" transform="translate(-0.17 -0.32)"/><path class="cls-2" d="M88.62,141.15c0-1.32-.66-2-1.66-2s-1.66.69-1.66,2v4.59H83.42v-4.59c0-1.32-.66-2-1.66-2s-1.68.69-1.68,2v4.59H78.2v-8.31h1.88v1a2.61,2.61,0,0,1,2.19-1.12,2.78,2.78,0,0,1,2.62,1.59,2.9,2.9,0,0,1,2.56-1.59c1.79,0,3,1.26,3,3.55v4.88H88.62Z" transform="translate(-0.17 -0.32)"/><path class="cls-2" d="M95.54,145.87c-2.16,0-3.74-1.68-3.74-4.29s1.54-4.29,3.74-4.29,3.67,1.64,3.67,4.11a5.51,5.51,0,0,1,0,.81H93.71a1.84,1.84,0,0,0,1.79,1.92,1.53,1.53,0,0,0,1.49-1h2A3.51,3.51,0,0,1,95.54,145.87Zm-1.81-5.07h3.53A1.74,1.74,0,0,0,95.49,139,1.8,1.8,0,0,0,93.73,140.8Z" transform="translate(-0.17 -0.32)"/><path class="cls-2" d="M103.51,137.29a2.94,2.94,0,0,1,2.43,1.29v-3.94h1.91v11.1h-1.91v-1.23a2.73,2.73,0,0,1-2.44,1.36c-1.9,0-3.4-1.72-3.4-4.32S101.6,137.29,103.51,137.29Zm.47,1.85c-1,0-2,.84-2,2.41s1,2.48,2,2.48,2-.87,2-2.45S105,139.14,104,139.14Z" transform="translate(-0.17 -0.32)"/></svg>