<?xml version="1.0" encoding="UTF-8"?>
<svg width="1452" height="372" version="1.1" viewBox="0 0 1452 372" xmlns="http://www.w3.org/2000/svg"><g transform="matrix(1.3333 0 0 -1.3333 0 372)"><g transform="translate(333 84.47)"><path d="m28.687 64.353 34.337 45.178h35.207l-43.465-51.86 47.377-57.671h-36.8l-36.655 47.502h-0.28977v-47.502h-28.397v109.53h28.397v-45.178z" fill="#333"/></g><g transform="translate(333 114.54)"><path d="m156.91 19.03c-2.9943 3.2927-7.0993 4.939-12.315 4.939-5.2158 0-9.3691-1.6464-12.46-4.939-2.9943-3.1959-4.4914-7.1665-4.4914-11.912 0-4.8422 1.4971-8.8612 4.4914-12.057 3.0908-3.099 7.2442-4.6485 12.46-4.6485 5.2158 0 9.3208 1.5495 12.315 4.6485 3.0908 3.1959 4.6363 7.2149 4.6363 12.057 0 4.7454-1.5454 8.716-4.6363 11.912zm30.136 25.422v-74.521h-26.369v8.2802h-0.28976c-2.2215-3.5832-5.3607-6.2949-9.4174-8.1349-4.0567-1.7432-8.4032-2.6148-13.039-2.6148-10.818 0-19.801 3.8738-26.948 11.621-7.051 7.8444-10.576 17.238-10.576 28.182 0 10.943 3.4772 20.289 10.432 28.036 7.051 7.7475 15.985 11.621 26.803 11.621 9.8521 0 17.531-3.2443 23.036-9.7328v7.2633z" fill="#333"/></g><g transform="translate(333 84.47)"><path d="m229.17 109.53v-109.53h-26.369v109.53z" fill="#333"/></g><g transform="translate(333 114.54)"><path d="m297.66 19.03c-2.9943 3.2927-7.0993 4.939-12.315 4.939-5.2158 0-9.3691-1.6464-12.46-4.939-2.9943-3.1959-4.4914-7.1665-4.4914-11.912 0-4.8422 1.4971-8.8612 4.4914-12.057 3.0908-3.099 7.2442-4.6485 12.46-4.6485 5.2158 0 9.3208 1.5495 12.315 4.6485 3.0908 3.1959 4.6363 7.2149 4.6363 12.057 0 4.7454-1.5454 8.716-4.6363 11.912zm30.136 25.422v-74.521h-26.369v8.2802h-0.28977c-2.2216-3.5832-5.3607-6.2949-9.4174-8.1349-4.0567-1.7432-8.4032-2.6148-13.039-2.6148-10.818 0-19.801 3.8738-26.948 11.621-7.051 7.8444-10.576 17.238-10.576 28.182 0 10.943 3.4772 20.289 10.432 28.036 7.051 7.7475 15.985 11.621 26.803 11.621 9.852 0 17.531-3.2443 23.036-9.7328v7.2633z" fill="#333"/></g><g transform="translate(333 117.01)"><path d="m371.65 41.982v-9.297h0.28976c5.8919 7.8444 13.716 11.767 23.471 11.767 11.784 0 20.235-4.7454 25.355-14.236 2.5113 4.5517 6.0368 8.038 10.576 10.459 4.5397 2.5179 9.4174 3.7769 14.633 3.7769 16.903 0 25.355-9.8297 25.355-29.489v-47.502h-26.369v35.59c0 2.4211-0.0482 4.1643-0.14484 5.2296 0 1.0653-0.19323 2.7601-0.57959 5.0843-0.28976 2.3243-0.7727 4.0674-1.4488 5.2296-0.67614 1.1621-1.7869 2.2274-3.3323 3.1958-1.4489 1.0653-3.2358 1.5979-5.3607 1.5979-2.3182 0-4.2982-0.48422-5.9402-1.4527-1.642-0.87159-2.8977-1.9369-3.767-3.1958-0.86933-1.1621-1.5454-2.7601-2.0284-4.7938-0.38636-2.0337-0.62781-3.8253-0.7244-5.3748-0.0966-1.4527-0.1449-3.2927-0.1449-5.5201v-35.59h-26.369v35.59c0 1.9369-0.0483 3.438-0.14487 4.5032 0 1.0653-0.0966 2.5664-0.28976 4.5032-0.19318 1.9369-0.53125 3.4864-1.0142 4.6485-0.48294 1.1621-1.1591 2.3727-2.0284 3.6316-0.7727 1.259-1.8835 2.179-3.3323 2.7601-1.4488 0.58106-3.0908 0.8716-4.926 0.8716-1.8352 0-3.4772-0.29054-4.926-0.8716-1.4488-0.58107-2.6079-1.5011-3.4772-2.7601-0.7727-1.259-1.4005-2.4695-1.8834-3.6316-0.48297-1.1621-0.82101-2.7116-1.0142-4.6485-0.19318-1.9369-0.33807-3.438-0.43466-4.5032v-4.5032-35.59h-26.369v74.521z" fill="#333"/></g><g transform="translate(333 117.01)"><path d="m486.44 41.982h26.369v-39.803c0-5.2296 0.9176-9.2486 2.7528-12.057 1.9318-2.7116 5.4089-4.0675 10.432-4.0675 5.0226 0 8.4515 1.3558 10.287 4.0675 1.9318 2.8085 2.8977 6.8275 2.8977 12.057v39.803h26.369v-44.887c0-21.403-13.184-32.104-39.553-32.104-26.369 0-39.553 10.701-39.553 32.104z" fill="#333"/></g><g transform="translate(333 117.01)"><path d="m607.03 41.982v-9.5875h0.28973c5.409 8.038 13.329 12.057 23.761 12.057 9.5623 0 16.613-2.7601 21.153-8.2802 4.5397-5.4233 6.8095-12.977 6.8095-22.661v-46.049h-26.369v36.316 2.179 2.6148c0 0.48422-0.0483 1.3074-0.1449 2.4695 0 1.259-0.0966 2.179-0.2898 2.7601-0.0965 0.58106-0.28973 1.4042-0.57953 2.4695-0.28973 1.0653-0.6278 1.84-1.0142 2.3243-0.38641 0.48422-0.9176 1.0653-1.5937 1.7432-0.57952 0.77475-1.2557 1.3074-2.0284 1.5979-0.7727 0.38738-1.6903 0.72633-2.7528 1.0169-1.0624 0.29053-2.2215 0.4358-3.4772 0.4358-9.176 0-13.764-5.7622-13.764-17.287v-38.641h-26.369v74.521z" fill="#333"/></g><g transform="translate(333 114.54)"><path d="m725.86 19.03c-2.9943 3.2927-7.0993 4.939-12.315 4.939-5.2158 0-9.3691-1.6464-12.46-4.939-2.9942-3.1959-4.4913-7.1665-4.4913-11.912 0-4.8422 1.4971-8.8612 4.4913-12.057 3.0909-3.099 7.2442-4.6485 12.46-4.6485 5.2158 0 9.3209 1.5495 12.315 4.6485 3.0909 3.1959 4.6362 7.2149 4.6362 12.057 0 4.7454-1.5454 8.716-4.6362 11.912zm30.136 25.422v-74.521h-26.369v8.2802h-0.2898c-2.2215-3.5832-5.3607-6.2949-9.4174-8.1349-4.0568-1.7432-8.4033-2.6148-13.039-2.6148-10.818 0-19.801 3.8738-26.948 11.621-7.051 7.8444-10.576 17.238-10.576 28.182 0 10.943 3.4772 20.289 10.432 28.036 7.051 7.7475 15.985 11.621 26.803 11.621 9.852 0 17.531-3.2443 23.036-9.7328v7.2633z" fill="#333"/></g><g transform="translate(60.66 .082825)"><path d="m119.87 34.395-59.737-34.395-60.131 34.708 60.769 105.12z"/></g><g transform="translate(121.17 34.471)"><path d="m120.41 105.03v-69.655l-61.192-35.373-59.215 105.43z"/></g><g transform="translate(60.635 139.9)"><path d="m120.25 104.41-59.603-104.41-60.651 104.38 60.154 34.726z"/></g><g transform="translate(121.18 139.5)"><path d="m120.4 69.774v-69.774l-120.4 0.4008 59.712 104.41z"/></g><g transform="translate(0 34.791)"><path d="m121.98 105.21-61.315-105.21-60.66 35.018v69.689z"/></g><g transform="translate(0 139.5)"><path d="m121.29 0.40083-121.29-0.4008v69.771l60.635 35.005z"/></g><g transform="translate(194.02 154.37)"><path d="m0 82.359v-54.906l47.556-27.453v54.906z" fill="#6a4fa0"/></g><g transform="translate(95.112 169.19)"><path d="m25.676 54.906-25.676-14.822v-25.261l25.676-14.823 25.676 14.822v25.262l-25.676 14.822z" fill="#34403b"/></g><g transform="translate(0 154.37)"><path d="m47.556 82.359-47.556-27.453v-54.906l47.556 27.453z" fill="#90c64d"/></g><g transform="translate(73.233 224.09)"><path d="m0 27.453 47.556-27.453 47.555 27.453-47.555 27.453z" fill="#4fa9e0"/></g><g transform="translate(73.233 .086182)"><path d="m95.112 27.453-6.41e-4 6.43e-4v-6.43e-4 6.43e-4l-47.555 27.452-47.556-27.453 47.556-27.453z" fill="#e88f3f"/></g><g transform="translate(47.556 181.82)"><path d="m25.677 14.823 21.879-12.63v25.262l25.677 14.821-47.556 27.453-25.677-14.823v-54.906z" fill="#037d4d"/></g><g transform="translate(0 42.361)"><path d="m47.556-1.5e-5v54.906l-47.556 27.453v-54.906z" fill="#ebce36"/></g><g transform="translate(47.557 139.54)"><path d="m47.555 14.822v29.645l-21.879 12.63-25.676-14.822v-29.645l21.879-12.63z" fill="#1c5f43"/></g><g transform="translate(69.435 124.72)"><path d="m25.676 29.645-25.676-14.822 25.676-14.823z" fill="#2b5140"/></g><g transform="translate(95.112 154.37)"><path d="m0 29.645v-29.645l25.677 14.823z" fill="#383a3a"/></g><g transform="translate(194.02 42.361)"><path d="m0-1.5e-5 47.556 27.453v54.906l-47.556-27.453z" fill="#d65196"/></g><g transform="translate(172.14 97.268)"><path d="m21.879 84.551v-29.645h6.23e-4l-21.88-12.63 21.88-12.631v-29.645l47.556 27.453v29.645z" fill="#7a2f89"/></g><g transform="translate(146.46 139.54)"><path d="m0 44.468v-29.645l25.676-14.823 21.88 12.631v29.645l-25.676 14.822z" fill="#30358a"/></g><g transform="translate(146.46 124.72)"><path d="m0-8e-6 25.676 14.822 6.44e-4 -6.43e-4 -25.676 14.823z" fill="#3a383a"/></g><g transform="translate(120.79 154.37)"><path d="m25.676 3.1e-5v29.645l-25.676-14.823z" fill="#383739"/></g><g transform="translate(95.112 95.076)"><path d="m0 29.645v-29.645l25.677 14.822v6.23e-4z" fill="#42423d"/></g><g transform="translate(120.79 95.075)"><path d="m0 14.823 0.42398-0.24452 25.252-14.578v29.646z" fill="#63363a"/></g><g transform="translate(95.112 109.9)"><path d="m0 44.468v-29.645l25.677-14.823 25.676 14.823h-6.21e-4l6.21e-4 6.41e-4v29.644l-25.676 14.822z" fill="#383739"/></g><g transform="translate(47.556 27.539)"><path d="m47.556 42.276v25.261l-21.879-12.63-25.677 14.823v-54.906h6.33e-4v-6.45e-4l25.676-14.823 47.556 27.454z" fill="#d7812b"/></g><g transform="translate(95.112 54.992)"><path d="m25.676 54.906v-6.22e-4l-25.676-14.822v-25.257l6.43e-4 6.45e-4 -6.43e-4 -0.001286v-0.0038l25.676-14.822 25.676 14.822v25.261z" fill="#bb3d2f"/></g><g transform="translate(120.79 181.82)"><path d="m25.676 27.448v-25.256l21.88 12.63 25.676-14.822v54.906h-6.26e-4l-25.676 14.822-47.555-27.453 25.676-14.821v-0.0057z" fill="#2b4696"/></g><g transform="translate(95.112 169.19)"><path d="m25.676 54.906-25.676-14.822v-25.261l25.676-14.823 25.676 14.822v25.262l-25.676 14.822z" fill="#34403b"/></g><g transform="translate(120.79 27.539)"><path d="m47.55 54.909-21.874 12.628v-25.261l-25.676-14.822 47.555-27.452v-6.41e-4h6.41e-4l25.676 14.822v54.906l-25.676-14.822-0.0051 0.0032" fill="#d03c2b"/></g><g transform="translate(146.46 82.445)"><path d="m25.676 57.098-25.676-14.822v-29.645l21.874-12.628 0.0051-0.003197 25.676 14.823v29.645z" fill="#753438"/></g><g transform="translate(0 97.268)"><path d="m69.435 42.275-21.88 12.631v29.644l-47.555-27.452h-6.38e-4v-29.645l47.556-27.453v29.645l0.0038 0.0026 21.876 12.628z" fill="#4aa847"/></g><g transform="translate(47.557 82.445)"><path d="m47.555 42.275-25.676 14.823-21.875-12.628-0.003829-0.002555v-29.645l25.676-14.822 21.879 12.63z" fill="#5b7b42"/></g></g></svg>
