<?xml version="1.0" encoding="UTF-8"?>
<svg width="591.52" height="93.987" version="1.1" viewBox="0 0 591.52 93.987" xmlns="http://www.w3.org/2000/svg"><g transform="matrix(1.3333 0 0 -1.3333 0 93.987)"><g transform="scale(.1)"><path d="m3837 136.19v225.79c0 106.54-51.51 152.42-129.83 152.42-46.58 0-81.14-21.872-102.32-52.934v45.164h-52.93v-370.43h52.93v216.62c0 81.14 40.22 115.71 91.73 115.71 59.27 0 87.51-35.977 87.51-115.71v-216.62h52.91" fill="#3e3c3c"/><path d="m337.39 220.62c81.121 0 146.89 65.82 146.89 146.91 0 81.121-65.765 146.88-146.89 146.88-81.114 0-146.88-65.758-146.88-146.88 0-81.09 65.769-146.91 146.88-146.91" fill="#f0551c"/><path d="m337.39 704.93c-186.34 0-337.39-151.05-337.39-337.4 0-186.32 151.05-337.4 337.39-337.4 186.33 0 337.41 151.07 337.41 337.4 0 186.35-151.08 337.4-337.41 337.4m236.86-574.23h-473.7v473.69h473.7v-473.69" fill="#3cae9e"/><path d="m98.953 129.08h476.87v476.89h-476.87zm238.44 385.33c81.132 0 146.9-65.758 146.9-146.89 0-81.136-65.77-146.92-146.9-146.92-81.133 0-146.9 65.782-146.9 146.92 0 81.133 65.762 146.89 146.9 146.89" fill="#93cf3e"/><g fill="#3e3c3c"><path d="m3055.8 581.6v95.711l-97.36-48.691v-73.758l97.36 26.738"/><path d="m3055.8 506.62h-97.37v-370.43h97.37v370.43"/><path d="m3395.9 488.28c-12.68 13.414-36.68 26.114-68.43 26.114-34.57 0-59.28-14.817-76.21-32.457v24.687h-97.36v-370.43h97.36v200.39c0 64.203 24.7 80.434 62.81 80.434 21.86 0 40.91-9.883 56.45-23.993l25.38 95.258"/><path d="m3467.2 173.57c0 24.688-21.17 46.563-45.17 46.563-24.69 0-45.16-21.875-45.16-46.563 0-24.687 20.47-45.156 45.16-45.156 24 0 45.17 20.469 45.17 45.156"/><path d="m2863.9 249.78c-24-20.469-37.41-28.222-55.05-28.222-23.27 0-35.98 9.16-35.98 44.453v148.87h88.91v91.738h-88.91v143.94l-97.37-48.683v-95.262h-62.1v-91.738h62.1v-174.98c0-64.922 38.82-111.48 98.79-111.48 30.34 0 59.25 9.883 75.48 22.578l14.13 98.789"/><path d="m2555.5 136.19v208.86c0 104.42-42.33 169.34-136.88 169.34-38.82 0-69.86-14.817-86.79-32.457v24.687h-97.38v-370.43h97.38v202.5c0 64.215 23.29 83.969 63.5 83.969 40.22 0 62.8-19.754 62.8-86.078v-200.39h97.37"/><path d="m2046 244.86c-10.59-17.656-35.99-33.886-67.74-33.886-41.63 0-56.45 23.281-56.45 49.394 0 29.629 19.76 46.582 56.45 46.582 34.58 0 50.81-4.941 67.74-15.547zm-52.92 269.53c-59.99 0-95.97-12.7-139.01-37.399l37.4-67.742c33.87 18.348 57.16 24.695 101.61 24.695 35.27 0 52.92-21.172 52.92-47.265v-18.348c-15.52 7.762-37.4 14.812-71.26 14.812-83.98 0-150.31-40.941-150.31-122.78 0-89.609 69.16-131.95 138.3-131.95 34.58 0 65.62 14.121 83.27 32.461v-24.688h97.37v248.36c0 83.261-60.68 129.84-150.29 129.84"/><path d="m1751.1 136.19v514.38l-97.36-48.683v-465.7h97.36"/><path d="m1461.8 244.86c-10.58-17.656-35.98-33.886-67.74-33.886-41.63 0-56.45 23.281-56.45 49.394 0 29.629 19.75 46.582 56.45 46.582 34.57 0 50.8-4.941 67.74-15.547zm-52.93 269.53c-59.97 0-95.96-12.7-139-37.399l37.4-67.742c33.86 18.348 57.16 24.695 101.6 24.695 35.29 0 52.93-21.172 52.93-47.265v-18.348c-15.52 7.762-37.41 14.812-71.26 14.812-83.98 0-150.31-40.941-150.31-122.78 0-89.609 69.15-131.95 138.31-131.95 34.58 0 65.62 14.121 83.26 32.461v-24.688h97.37v248.36c0 83.261-60.68 129.84-150.3 129.84"/><path d="m1030 220.14c-28.23 0-50.806 11.308-65.627 31.758v139.73c14.117 18.34 29.637 31.035 59.977 31.035 38.1 0 63.5-31.758 63.5-107.95 0-62.109-20.46-94.57-57.85-94.57zm12.7 294.26c-35.29 0-59.979-14.817-78.327-31.04v23.27h-97.371v-506.62l97.371 48.672v108.67c17.645-16.231 45.867-28.926 78.327-28.926 91.72 0 143.94 77.598 143.94 188.4 0 138.3-64.91 197.58-143.94 197.58"/><path d="m4436.4 462.18v44.441h-91.73v143.94l-52.91-29.629v-114.32h-45.88v-44.441h45.88v-249.8c0-61.387 24.69-83.965 70.54-83.965 28.25 0 47.99 4.238 68.45 12.695l3.53 45.879c-16.94-7.07-31.06-10.586-52.21-10.586-28.23 0-37.4 11.289-37.4 44.453v241.32h91.73"/><path d="m3956.5 346.45c6.35 82.559 44.46 122.07 99.5 122.07 64.92 0 95.94-50.098 100.2-122.07zm249.09-14.105c0 105.84-52.23 182.05-148.88 182.05-88.2 0-153.14-73.395-153.14-191.21 0-145.37 82.56-194.77 150.32-194.77 55.74 0 88.2 14.824 132.65 43.047l-24.71 38.105c-33.86-22.578-59.25-35.293-102.3-35.293-60.69 0-98.08 50.118-103.03 129.14h246.98c1.41 8.457 2.11 16.23 2.11 28.926"/></g></g></g></svg>
