<svg width="1153.9" height="483.32" xmlns="http://www.w3.org/2000/svg"><defs><clipPath id="a"><path d="M0 0h761.2v1138.1H0z"/></clipPath><clipPath id="b"><path d="M916.04 1588h1280.4v1417.4H916.04z"/></clipPath><clipPath id="c"><path d="M916.04 170h1280.4v1417.4H916.04z"/></clipPath><clipPath id="d"><path d="M911.5 1242.2h544.38v691.99H911.5z"/></clipPath><clipPath id="e"><path d="M0 657.11h761.2v1847.7H0z"/></clipPath><clipPath id="f"><path d="M0 2015.4h761.2v1609.5H0z"/></clipPath></defs><path d="M0 483.322v-87.614V483.322m101.49-84.347v-67.401h.001v67.4" fill="#fff"/><g clip-path="url(#a)" transform="matrix(.1333 0 0 -.1333 0 483.32)"><path d="M0 0v657.11l761.21 481.02-.004-505.52c-.488-2-83.031-337.03-761.2-632.62" fill="#b1d819"/></g><path d="M292.846 179.234V82.61v96.624" fill="#fff"/><g clip-path="url(#b)" transform="matrix(.1333 0 0 -.1333 0 483.32)"><path d="M2196.4 2276.3v729.04c.02.02.03.04.04.05v-724.7c-.01-1.47-.02-2.93-.04-4.39" fill="#fff"/><path d="M1455.7 1588.3l-539.55 345.52c32.695 228.59 259.58 346.48 259.58 346.48l696.75 437.86c211.45 151.04 321.43 284.14 323.93 287.18V2276.3c-2.93-215.51-152.76-309.89-152.76-309.89L1455.7 1588.3" fill="#b1d819"/></g><path d="M292.846 460.653h-.001.001v-96.629 96.628" fill="#fff"/><g clip-path="url(#c)" transform="matrix(.1333 0 0 -.1333 0 483.32)"><path d="M2196.4 170.01a.222.222 0 00-.04.047v729.07c.02-1.457.03-2.918.04-4.391v-724.73" fill="#fff"/><path d="M2196.4 170.06c-2.5 3.031-112.48 136.2-323.93 287.25l-696.75 437.81s-227.3 118.11-259.66 347.11l539.14 345.21 588.44-378.38s149.83-94.42 152.76-309.93V170.06" fill="#1d3931"/></g><path d="M121.52999999999999 310.61v-77.936-.157 78.093" fill="#fff"/><g clip-path="url(#d)" fill="#6b9d2d" transform="matrix(.1333 0 0 -.1333 0 483.32)"><path d="M915.57 1242.2h-.004c-2.422 17.16-4.007 34.75-4.074 53.16v585.71c.067 18.38 1.652 35.96 4.074 53.12l.563-.36c-.028-.21-.059-.41-.086-.62l539.14-345.22.49.32.2-.13-540.31-345.98"/><path d="M1455.2 1588h-.02l-539.13 345.21c.027.21.058.41.086.62l539.55-345.52-.49-.32"/></g><path d="M101.49 331.577h.001V214.615z" fill="#fff"/><g clip-path="url(#e)" fill="#6c9e2d" transform="matrix(.1333 0 0 -.1333 0 483.32)"><path d="M0 657.11v1847.7l761.21-489.42-.004-877.24h.004L0 657.13M0 657.11l761.21 481.02h-.004L.006 657.11"/></g><path d="M101.492 214.607V94.417v120.19" fill="#fff"/><g clip-path="url(#f)" transform="matrix(.1333 0 0 -.1333 0 483.32)"><path d="M761.21 2015.4L0 2504.82v1120.1c750.47-205.37 761.06-694.28 761.2-708.03v-901.45" fill="#1d3931"/></g><g fill="#1d3931"><path d="M1153.025 142.702v125.695h-33.072V142.702zm-16.137-61.184c9.218 0 16.935 7.71 16.935 16.918s-7.717 16.919-16.935 16.919-16.935-7.71-16.935-16.919 7.717-16.918 16.935-16.918zm-99.013 58.79c26.841 0 48.888 20.11 48.888 67.038 0 37.588-17.732 63.925-48.888 63.925-11.022 0-20.608-4.31-26.599-9.817v66.182l-33.072 16.52V142.946h33.072v7.901c6.23-5.508 14.618-10.535 26.6-10.535zm-4.313 99.838c12.701 0 19.652-11.013 19.652-32.082 0-25.858-8.627-36.63-21.568-36.63-10.305 0-15.577 4.308-20.37 10.534v47.404c5.033 6.944 12.701 10.774 22.286 10.774zm-145.21-.719c15.816 0 23.485-16.04 23.485-33.517 0-19.155-7.669-33.76-23.485-33.76-15.818 0-23.246 14.367-23.246 33.76 0 19.391 7.428 33.517 23.246 33.517zm0-99.12c32.832 0 57.035 27.056 57.035 65.603 0 38.545-24.203 65.36-57.035 65.36s-56.797-26.815-56.797-65.36c0-38.547 23.966-65.603 56.797-65.603zm-87.077 57.461v70.87h-33.072v-67.996c0-22.506-7.667-29.209-21.327-29.209s-21.567 6.703-21.567 28.49v68.714h-33.072V142.942h33.072v8.38c5.75-5.987 16.294-11.015 29.475-11.015 32.112 0 46.49 22.028 46.49 57.461zm-147.117-13.407v84.276h-33.07v-8.38c-5.99 6.226-16.536 11.014-28.277 11.014-23.485 0-46.971-14.365-46.971-44.773 0-27.772 22.526-41.659 51.044-41.659 11.502 0 18.933 2.395 24.204 5.028v-6.225c0-8.858-5.99-16.04-17.974-16.04-15.097 0-23.006 2.155-34.508 8.379l-12.701-22.983c14.618-8.38 26.84-12.69 47.21-12.69 30.434 0 51.043 15.802 51.043 44.053zm-56.076 58.897c10.784 0 19.41-5.507 23.006-11.492v-15.8c-5.751-3.593-11.263-5.269-23.006-5.269-12.462 0-19.171 5.746-19.171 15.801 0 8.859 5.032 16.76 19.171 16.76M469.375 160.928l61.79 109.917h-40.392l-45.681-81.118-26.93 31.68v49.438h-33.66V102.85h33.66v47.757c0 6.241-.24 21.36-.48 26.64 2.405-3.84 8.655-11.52 13.223-17.04l47.126-57.357h40.632l-49.288 58.077M448.749 375.519c0 15.985-12.499 28.338-33.715 28.338-13.805 0-26.158-5.96-34.15-14.096l7.556-8.43c7.702 7.411 16.567 12.208 27.03 12.208 13.515 0 21.943-6.686 21.943-17.439 0-9.445-5.666-14.823-24.267-21.507-21.944-7.848-29.356-14.97-29.356-29.646 0-16.276 12.788-26.013 31.825-26.013 13.66 0 22.38 4.07 30.954 10.899l-7.267 8.866c-7.41-6.104-14.24-9.446-24.414-9.446-13.95 0-19.763 6.974-19.763 14.967 0 8.43 3.778 13.224 24.123 20.492 22.525 8.137 29.5 15.694 29.5 30.807M516.48 335.124h-18.892v49.701c0 6.83 1.889 9.155 7.702 9.155 4.36 0 7.267-.727 10.754-2.18l-.726 9.446c-4.216 1.744-8.284 2.616-14.097 2.616-9.447 0-14.532-4.65-14.532-17.294v-51.444h-9.446v-9.154h9.446v-23.543l10.899-6.102v29.645h18.892v9.154M609.198 402.258H598.3v-9.3c-4.362 6.393-11.48 10.899-21.073 10.899-16.129 0-26.74-9.447-26.74-31.39v-46.503h10.9v44.614c0 16.42 5.813 23.832 18.021 23.832 10.608 0 18.892-7.12 18.892-23.832v-44.614h10.898v76.294M693.93 383.366v-38.075c-4.215-6.394-11.626-11.48-20.636-11.48-12.643 0-18.892 10.9-18.892 31.39 0 19.181 7.265 29.21 19.328 29.21 8.138 0 14.822-4.36 20.2-11.044zm10.898 18.892h-10.899v-9.3c-5.377 5.811-12.643 10.899-22.96 10.899-15.259 0-27.32-11.627-27.32-38.511 0-27.029 12.787-40.98 28.773-40.98 9.59 0 16.13 4.067 21.507 10.173v-32.117l10.899-6.102v105.938M754.968 402.258h-10.899v-76.294h10.899zm2.325-97.656c0 4.214-3.488 7.702-7.557 7.702-4.504 0-7.992-3.488-7.992-7.702 0-4.36 3.488-7.847 7.992-7.847 4.07 0 7.557 3.487 7.557 7.847M845.499 363.892c0-20.054-9.01-30.08-22.236-30.08-13.223 0-22.087 10.026-22.087 30.08s8.864 30.518 22.087 30.518c13.225 0 22.236-10.464 22.236-30.518zm10.898-.29c0 25.867-14.822 40.255-33.423 40.255-18.602 0-32.842-13.807-32.842-39.674 0-25.866 14.823-39.818 33.423-39.818s32.842 13.37 32.842 39.237M936.617 382.35c0 14.967-12.935 21.507-26.158 21.507-10.464 0-19.619-3.925-26.885-9.738l6.394-7.993c6.104 5.377 13.224 8.43 20.781 8.43 10.463 0 15.404-4.36 15.404-11.772 0-6.248-4.505-9.736-18.02-15.55-15.26-6.538-21.654-11.19-21.654-23.396 0-11.626 10.028-19.473 23.833-19.473 10.464 0 18.602 3.343 24.415 8.137l-6.104 7.993c-5.958-4.649-10.9-6.83-19.038-6.83-7.992 0-12.642 3.925-12.642 9.446 0 6.395 3.924 9.01 16.858 14.823 14.386 6.541 22.816 10.754 22.816 24.415"/></g></svg>