<?xml version="1.0" encoding="UTF-8"?>
<svg width="603px" height="577px" viewBox="0 0 603 577" version="1.1" xmlns="http://www.w3.org/2000/svg" xmlns:xlink="http://www.w3.org/1999/xlink">
    <!-- Generator: Sketch 57.1 (83088) - https://sketch.com -->
    <title>dnyc</title>
    <desc>Created with Sketch.</desc>
    <g id="Page-1" stroke="none" stroke-width="1" fill="none" fill-rule="evenodd">
        <g id="dnyc">
            <g id="textI" transform="translate(75.000000, 0.000000)" fill="#000000" fill-rule="nonzero">
                <path d="M52.5,55.300003 C52.5,35.300003 45.299988,25.699966 31.700012,25.699966 C27.700012,25.699966 25.299988,25.699966 22.900024,26.499954 C18.900024,27.300003 15.700012,27.300003 12.5,27.300003 C9.299988,27.300003 6.099976,26.499954 3.700012,24.099991 C1.299988,21.699966 0.5,18.499954 0.5,14.499954 C0.5,4.899979 6.099976,0.099991 18.099976,0.099991 C19.700012,0.099991 21.299988,0.899979 22.900024,0.899979 L44.5,3.300003 C52.5,4.899979 60.5,4.899979 69.299988,4.899979 C77.299988,4.899979 86.900024,4.899979 96.5,3.300003 L114.099976,0.899979 C116.5,0.899979 118.099976,0.099991 120.5,0.099991 C131.700012,0.099991 138.099976,4.899979 138.099976,14.499954 C138.099976,18.499954 136.5,21.699966 134.099976,24.099991 C131.700012,26.499954 128.5,27.300003 125.299988,27.300003 C122.900024,27.300003 118.900024,27.300003 114.099976,26.499954 C112.5,25.699966 110.099976,25.699966 106.099976,25.699966 C92.5,25.699966 86.099976,35.300003 86.099976,55.300003 L86.099976,215.300003 C86.099976,236.099991 92.5,245.699951 106.099976,245.699951 C108.5,245.699951 110.900024,245.699951 114.099976,244.899963 C119.700012,244.099976 122.900024,243.299988 125.299988,243.299988 C133.299988,243.299988 138.099976,248.099976 138.099976,256.899963 C138.099976,266.499939 131.700012,270.499939 120.5,270.499939 C119.700012,270.499939 118.900024,270.499939 117.299988,270.499939 C116.5,270.499939 115.700012,270.499939 114.099976,270.499939 L94.099976,267.299988 C86.900024,266.499939 79.700012,265.699951 71.700012,265.699951 C60.5,265.699951 50.900024,266.499939 42.099976,267.299988 L22.900024,270.499939 C22.900024,270.499939 22.099976,270.499939 20.5,270.499939 C18.900024,270.499939 18.099976,270.499939 17.299988,270.499939 C6.099976,270.499939 0.5,266.499939 0.5,256.899963 C0.5,248.099976 4.5,243.299988 12.5,243.299988 C14.099976,243.299988 17.299988,244.099976 22.900024,244.899963 C26.099976,245.699951 29.299988,245.699951 31.700012,245.699951 C45.299988,245.699951 52.5,236.099991 52.5,215.300003 L52.5,55.300003 Z" id="textToPath-I"></path>
            </g>
            <g id="textNY" transform="translate(0.000000, 306.000000)" fill="#000000" fill-rule="nonzero">
                <path d="M109.185519,18.1192049 L214.443442,238.700542 L214.443442,79.5668876 C214.443442,59.0842867 214.443442,48.0552681 214.443442,45.691872 C212.086897,32.2994583 205.802934,25.2093912 194.805761,25.2093912 C192.449215,25.2093912 189.307234,25.2093912 185.379697,25.9971098 C181.452161,26.7849485 178.31012,26.7849485 175.953635,26.7849485 C172.811594,26.7849485 169.669552,25.9971098 167.313007,23.6337147 C164.956522,21.2704387 163.385471,18.1192049 163.385471,14.1802524 C163.385471,4.72679118 168.884058,0 181.452161,0 C183.808707,0 185.379697,0.787838741 186.165253,0.787838741 L203.446389,3.15123384 C212.086897,3.93895244 219.156534,4.72679118 226.226051,4.72679118 C232.510132,4.72679118 241.936196,3.93895244 252.933369,2.3633951 C256.860905,1.5756765 261.573877,1.5756765 266.286968,0 C267.072404,0 267.857958,0 269.428949,0 C270.214505,0 270.99994,0 272.57105,0 C283.568103,0 289.06663,4.72679118 289.06663,14.1802524 C289.06663,22.8459961 283.568103,26.7849485 273.356485,26.7849485 C271.785494,26.7849485 270.214505,26.7849485 269.428949,26.7849485 L265.501413,26.7849485 C256.860905,26.7849485 252.147813,28.3605058 249.791268,32.2994583 C247.434723,35.450572 245.863732,42.5407583 245.863732,54.3576156 L245.078296,77.2034915 L243.507186,116.593016 L243.507186,222.157013 C243.507186,240.276099 241.936196,252.880795 238.008659,260.7587 C234.081123,267.848766 227.011606,271 216.799987,271 C204.231824,271 193.23477,262.334256 183.808707,243.427333 L80.90721,29.1483436 L80.90721,211.915713 C80.90721,232.398194 87.976787,241.851776 101.330447,241.851776 C103.686932,241.851776 106.828973,241.851776 110.756509,241.063938 C114.684045,240.276099 117.826087,239.48838 120.182572,239.48838 C128.8232,239.48838 132.750736,244.215051 132.750736,252.880795 C132.750736,262.334256 127.252149,266.273209 114.684045,266.273209 C114.684045,266.273209 113.898551,266.273209 112.3275,266.273209 C111.542004,266.273209 110.756509,266.273209 109.971014,266.273209 L93.4753741,263.909814 C84.8347463,262.334256 76.9796738,262.334256 69.1246014,262.334256 C62.0550842,262.334256 53.4144564,262.334256 42.4174031,263.909814 L22.7797219,266.273209 C22.7797219,266.273209 21.9941666,266.273209 20.4231756,266.273209 C18.8521857,266.273209 18.0666303,266.273209 17.2811349,266.273209 C6.28402164,266.273209 0.785494482,262.334256 0.785494482,252.880795 C0.785494482,245.00289 4.71303071,241.063938 12.5681032,241.063938 C14.1390941,241.063938 18.0666303,241.063938 23.5652174,241.063938 C26.7072582,242.639494 29.0637436,242.639494 32.2057843,242.639494 C45.559384,242.639494 51.8434655,233.186033 51.8434655,213.491271 L51.8434655,185.918604 L51.8434655,150.468032 L51.8434655,116.593016 L51.8434655,54.3576156 C51.8434655,34.6628534 44.7738885,25.2093912 31.4202899,25.2093912 C29.849239,25.2093912 26.7072582,25.2093912 23.5652174,25.9971098 C18.8521857,26.7849485 14.9246495,26.7849485 12.5681032,26.7849485 C3.92753623,26.7849485 0,22.8459961 0,14.1802524 C0,4.72679118 5.49852618,0 16.4956394,0 C18.8521857,0 20.4231756,0.787838741 22.7797219,0.787838741 C36.1333206,2.3633951 46.3449393,3.15123384 53.4144564,3.15123384 C57.3419927,3.15123384 62.8405797,2.3633951 71.4811467,1.5756765 C79.3362191,0.787838741 84.8347463,0 88.7622825,0 C96.617355,0 102.115942,3.15123384 104.472427,8.66574363 L109.185519,18.1192049 Z" id="textToPath-N"></path>
                <path d="M437.750677,189.218967 C437.750677,188.417142 437.750677,186.011915 437.750677,182.00304 C437.750677,177.994165 437.750677,173.985289 437.750677,171.579939 L361.556497,48.1065044 C356.843407,40.0887537 353.701425,35.2781764 352.130435,34.4763532 C348.202899,29.6657759 343.489807,28.0621276 337.205725,28.0621276 C334.063744,28.0621276 332.492754,28.0621276 330.921763,28.8639518 C329.350653,28.0621276 328.565217,28.0621276 326.994226,28.8639518 C325.423117,28.8639518 323.852126,28.8639518 323.06669,28.8639518 C311.284082,28.8639518 305,24.0532522 305,14.4319764 C305,4.81069955 310.498526,0 320.710145,0 C324.637681,0 330.136207,0.801824183 336.42029,2.40535028 C348.988334,4.00887537 360.770943,4.81069955 371.768116,4.81069955 C379.623188,4.81069955 392.191233,4.00887537 407.901378,1.60364837 C414.185459,0.801824183 418.112995,0 422.040532,0 C433.037705,0 438.536232,4.81069955 438.536232,14.4319764 C438.536232,23.2515503 432.252149,28.0621276 418.898551,28.0621276 L414.971014,27.2604257 L405.544951,27.2604257 L397.689879,27.2604257 C394.547778,27.2604257 392.976787,28.0621276 392.976787,30.4674779 C392.976787,31.269301 392.976787,32.071003 393.762342,32.8728271 C393.762342,32.8728271 394.547778,34.4763532 395.333333,36.0798783 L455.031812,140.310638 L516.301401,36.0798783 C517.872392,33.6746513 517.872392,32.071003 517.872392,29.6657759 C517.872392,27.2604257 516.301401,26.4586025 513.15942,26.4586025 L512.373865,26.4586025 L505.304348,26.4586025 L495.092729,27.2604257 C490.379638,28.0621276 487.237657,28.0621276 484.881111,28.8639518 C473.884058,28.0621276 469.170966,24.0532522 469.170966,14.4319764 C469.170966,4.81069955 473.884058,0 484.881111,0 C488.808648,0 492.736184,0.801824183 498.234711,1.60364837 C513.15942,4.00887537 525.727465,4.81069955 536.724652,4.81069955 C547.721706,4.81069955 560.28987,4.00887537 574.429024,1.60364837 C579.141996,0.801824183 583.855087,0 586.997068,0 C597.208687,0 602.707213,4.81069955 602.707213,14.4319764 C602.707213,23.2515503 597.208687,27.2604257 587.782623,27.2604257 C583.855087,27.2604257 580.712987,27.2604257 579.141996,26.4586025 C574.429024,25.6569006 572.072478,25.6569006 570.501488,25.6569006 C563.431851,25.6569006 557.933324,28.8639518 553.220233,35.2781764 L547.721706,44.8994532 L469.956522,168.372765 L469.956522,185.210091 C469.956522,212.470395 471.527512,229.30772 473.884058,235.721945 C476.240603,242.937872 481.73913,246.145046 490.379638,246.145046 C492.736184,246.145046 495.878284,246.145046 499.805821,245.343222 C504.518792,244.541398 507.660893,243.739696 509.231884,243.739696 C517.872392,243.739696 521.799928,248.550273 521.799928,257.369848 C521.799928,266.991125 516.301401,271 504.518792,271 C503.733357,271 502.947802,271 501.376812,271 C500.591256,271 499.805821,271 499.020265,271 L477.026039,267.792948 C469.170966,266.991125 461.315894,266.991125 453.460821,266.991125 C444.820313,266.991125 436.965241,266.991125 429.895604,267.792948 L409.472487,271 C408.686932,271 407.901378,271 407.115942,271 C405.544951,271 404.759396,271 403.973841,271 C392.191233,271 386.692706,266.991125 386.692706,257.369848 C386.692706,248.550273 390.620242,243.739696 399.26087,243.739696 C401.617415,243.739696 404.759396,244.541398 408.686932,245.343222 C412.614468,246.145046 415.75645,246.145046 418.112995,246.145046 C429.110168,246.145046 435.394131,238.928997 437.750677,225.298845 C437.750677,222.091794 437.750677,210.866869 437.750677,189.218967 Z" id="textToPath-Y"></path>
            </g>
            <g id="drupalicon" transform="translate(335.000000, 0.000000)">
                <g id="Layer_1">
                    <path d="M177.489345,50.3732991 C163.643646,41.745828 150.632863,38.3713736 137.552503,29.7786906 C129.481643,24.2821566 118.245058,11.2713736 108.852246,0.03478819 C107.043261,18.0550706 101.546727,25.3605905 95.2848524,30.578819 C81.9957638,41.015276 73.6465982,44.1462131 62.1664955,50.4080873 C52.4953787,55.3480103 0.06957638,86.6573813 0.06957638,153.972529 C0.06957638,221.287677 56.7047497,270.860847 119.567009,270.860847 C182.429268,270.860847 236.97715,225.218742 236.97715,156.05982 C236.97715,86.9008986 185.838511,55.5915276 177.489345,50.3732991 Z" id="Path" fill="#00598E" fill-rule="nonzero"></path>
                    <path d="M156.268549,212.3819 C160.443132,212.3819 164.896021,212.660205 168.026958,214.747497 C171.157895,216.834788 172.966881,221.531194 174.010526,224.140308 C175.054172,226.749422 174.010526,228.314891 171.923235,229.358537 C170.114249,230.402182 169.835944,229.880359 168.026958,226.505905 C166.217972,223.131451 164.617715,219.722208 155.503209,219.722208 C146.388703,219.722208 143.501284,222.853145 139.083184,226.505905 C134.665083,230.158665 133.099615,231.445828 131.499358,229.358537 C129.899101,227.271245 130.455712,225.183954 133.308344,222.57484 C136.160976,219.965725 140.892169,215.791142 145.31027,213.947368 C149.72837,212.103594 152.093967,212.3819 156.268549,212.3819 L156.268549,212.3819 Z" id="Path" fill="#FFFFFF" fill-rule="nonzero"></path>
                    <path d="M112.992041,242.125802 C118.21027,246.300385 126.037612,249.709628 142.735944,249.709628 C159.434275,249.709628 171.157895,244.978434 176.376123,241.082157 C178.74172,239.273171 179.785366,240.803851 180.028883,241.847497 C180.272401,242.891142 180.794223,244.456611 178.985237,246.300385 C177.663286,247.622336 165.696149,255.971502 151.572144,257.258665 C137.448139,258.545828 118.453787,259.345956 106.973684,248.909499 C105.164698,247.100513 105.651733,244.456611 106.973684,243.412965 C108.295635,242.36932 109.339281,241.603979 110.869961,241.603979 C112.400642,241.603979 112.191913,241.603979 112.992041,242.125802 L112.992041,242.125802 Z" id="Path" fill="#FFFFFF" fill-rule="nonzero"></path>
                    <path d="M49.1209243,222.296534 C68.9501926,222.018228 72.6029525,218.643774 90.1014121,210.816431 C184.551348,168.54878 202.049807,129.93389 205.424262,121.062901 C208.798716,112.191913 213.773427,97.8243902 208.555199,81.9261874 C207.546341,78.8648267 206.815789,76.3948652 206.293967,74.4119384 C193.73543,60.3922978 181.281258,52.7041078 177.524134,50.3732991 C163.956739,41.745828 150.632863,38.3713736 137.587291,29.7786906 C129.516431,24.5604621 118.279846,11.2713736 108.887035,0.03478819 C107.078049,18.0550706 101.85982,25.6041078 95.3196406,30.578819 C82.030552,41.015276 73.6813864,44.1462131 62.2012837,50.4080873 C52.5301836,55.5915443 0.06957638,86.6225931 0.06957638,153.937741 C0.06957638,175.436842 5.84441592,195.126958 15.7590501,211.964442 L18.3333761,211.860077 C23.7951049,216.800068 32.4225931,222.574856 49.1209243,222.296534 Z" id="Path" fill="#0073BA" fill-rule="nonzero"></path>
                    <path d="M177.419769,50.3732991 C163.852375,41.745828 150.563286,38.3713736 137.482927,29.7786906 C129.412067,24.5604621 118.175481,11.2713736 108.78267,0.03478819 C106.973684,18.0550706 101.755456,25.6041078 95.215276,30.578819 C81.9261874,41.015276 73.5770218,44.1462131 62.0969191,50.4080873 C52.4605905,55.5915276 0,86.6225931 0,153.937741 C0,175.436842 5.77483954,195.126958 15.6894737,211.964442 C36.805905,247.865854 76.7079589,270.826059 119.497433,270.826059 C182.39448,270.826059 236.907574,225.183954 236.907574,156.025032 C236.907574,118.071117 221.496406,91.4929397 206.189602,74.4119384 C193.631065,60.3575096 181.176893,52.7041078 177.419769,50.3732991 Z M209.146598,80.8825417 C226.262388,102.312067 234.959435,127.568293 234.959435,156.025032 C234.959435,172.514634 231.828498,188.099743 225.6362,202.362901 C219.756996,215.860719 211.303466,227.827856 200.484339,237.95122 C179.089602,257.919641 150.354557,268.912709 119.532221,268.912709 C104.294994,268.912709 89.3360719,265.990501 75.072914,260.250449 C61.0532734,254.614763 48.4599487,246.543902 37.5712452,236.246598 C14.5762516,214.538768 1.94813864,185.316688 1.94813864,153.937741 C1.94813864,126.002824 11.0278562,101.164056 28.9089859,80.1172015 C42.5807445,64.0450578 57.3309371,55.1392811 63.0014121,52.0779204 C65.7844673,50.5820282 68.3587933,49.2252888 70.863543,47.9381258 C78.7256739,43.9026958 86.1703466,40.0759949 96.3980745,32.0747112 C101.85982,27.9349166 107.669448,21.3599487 110.139409,4.69640565 C118.766881,14.9589217 128.751091,26.4738126 136.404493,31.4137356 C143.18819,35.9014121 150.145828,39.0323492 156.859949,42.0589217 C163.226187,44.9115533 169.801155,47.9033376 176.306547,52.0431322 C176.306547,52.0431322 176.550064,52.182285 176.550064,52.182285 C195.64878,64.0450578 205.806932,76.7427471 209.146598,80.8825417 Z" id="Shape" fill="#004975" fill-rule="nonzero"></path>
                    <path d="M110.104621,5.2182285 C113.757381,15.932991 113.235558,21.3947368 113.235558,23.7255456 C113.235558,26.0563543 111.913607,32.3530167 107.739024,35.4839538 C105.930039,36.805905 105.373427,37.8495507 105.373427,38.093068 C105.373427,39.1367137 107.739024,39.9020539 107.739024,42.2676508 C107.739024,45.1202824 106.417073,50.895122 92.6061617,64.7060334 C78.7952503,78.5169448 58.9311938,90.7971759 43.5548139,98.3810013 C28.1784339,105.964827 20.872914,105.408216 18.7856226,101.755456 C16.6983312,98.1026958 19.5509628,89.9970475 29.2220796,79.3170732 C38.8931964,68.6370988 69.402439,53.2259307 69.402439,53.2259307 L107.495507,26.6129653 L109.582798,16.4548139" id="Path" fill="#93C5E4" fill-rule="nonzero"></path>
                    <path d="M110.104621,4.93992298 C107.739024,22.160077 102.520796,27.3783055 95.4935815,32.8400513 C83.7351733,41.7110398 72.2550706,47.1727856 69.6807445,48.4947368 C62.8970475,51.9039795 38.3713736,65.4713736 25.5693196,85.0223363 C21.6730424,91.005905 25.5693196,93.3715019 26.3346598,93.8933248 C27.1,94.4151476 36.0057766,95.4587933 55.0349166,83.9786906 C74.0640565,72.4985879 82.4480103,65.7496791 93.1627728,54.5478819 C98.9028241,48.5643132 99.7029525,45.1550706 99.7029525,43.5896021 C99.7029525,41.7806162 98.3810013,40.9804878 96.2937099,40.458665 C95.2500642,40.1803594 94.9717587,39.6933248 96.2937099,38.8931964 C97.6156611,38.093068 103.042619,35.4839538 104.36457,34.4403081 C105.686521,33.3966624 111.948395,29.2220796 112.191913,22.4383825 C112.43543,15.6546855 111.948395,10.9582798 110.104621,4.93992298 L110.104621,4.93992298 Z" id="Path" fill="#FFFFFF" fill-rule="nonzero"></path>
                    <path d="M51.4169448,194.639923 C51.6952503,174.288832 70.7243902,155.259692 94.7282413,154.981386 C125.272272,154.703081 146.388703,185.247112 161.799872,184.968806 C174.845443,184.690501 199.89294,159.155969 212.173171,159.155969 C225.218742,159.155969 228.871502,172.723363 228.871502,180.794223 C228.871502,188.865083 226.262388,203.476123 220.000513,212.625417 C213.738639,221.774711 209.842362,225.149166 202.536842,224.627343 C193.144031,223.862003 174.358408,194.639923 162.356483,194.083312 C147.22362,193.561489 114.34878,225.670988 88.5359435,225.670988 C72.881258,225.670988 68.1848524,223.305392 62.9666239,219.930937 C55.0349166,214.469191 51.1386393,206.120026 51.4169448,194.639923 L51.4169448,194.639923 Z" id="Path" fill="#FFFFFF" fill-rule="nonzero"></path>
                    <path d="M208.450834,81.9261874 C213.669063,97.8591784 208.72914,112.191913 205.319897,121.062901 C201.910655,129.93389 184.446983,168.54878 89.9970475,210.816431 C72.5333761,218.643774 68.845828,222.018228 49.0165597,222.296534 C32.3182285,222.57484 23.6907574,216.8 18.2290116,211.860077 L15.6546855,211.964442 C36.7711168,247.865854 76.6731707,270.826059 119.462644,270.826059 C182.359692,270.826059 236.872786,225.183954 236.872786,156.025032 C236.872786,118.071117 221.461617,91.4929397 206.154814,74.4119384 C206.711425,76.3948652 207.476765,78.8648267 208.450834,81.9261874 Z" id="Path"></path>
                </g>
            </g>
        </g>
    </g>
</svg>